<?xml version="1.0" encoding="utf-8"?>
<!-- Generator: Adobe Illustrator 26.4.1, SVG Export Plug-In . SVG Version: 6.00 Build 0)  -->
<svg version="1.1" id="Capa_1" xmlns="http://www.w3.org/2000/svg" xmlns:xlink="http://www.w3.org/1999/xlink" x="0px" y="0px"
	 viewBox="0 0 708.66 338.33" style="enable-background:new 0 0 708.66 338.33;" xml:space="preserve">
<style type="text/css">
	.st0{display:none;}
	.st1{display:none;fill:url(#SVGID_1_);}
	.st2{fill:#FFFFFF;}
	.st3{display:none;fill:#D198C2;}
	.st4{display:inline;fill:#26286A;}
	.st5{display:inline;}
	.st6{fill:#26286A;}
</style>
<g id="Paquete_de_vectores:_motivo_de_puntos_15" class="st0">
</g>
<g id="Paquete_de_vectores:_motivo_de_puntos_15_1_" class="st0">
</g>
<g id="Paquete_de_vectores:_motivo_de_puntos_03" class="st0">
</g>
<linearGradient id="SVGID_1_" gradientUnits="userSpaceOnUse" x1="354.3308" y1="338.3291" x2="354.3308" y2="5.000000e-04">
	<stop  offset="0" style="stop-color:#D59BC4"/>
	<stop  offset="1" style="stop-color:#28378E"/>
</linearGradient>
<rect y="0" class="st1" width="708.66" height="338.33"/>
<g>
	<g>
		<path class="st2" d="M135.95,112.53c-0.12,0.22-0.23,0.44-0.35,0.67l0.22,0.12c0.14-0.23,0.3-0.47,0.46-0.72l0.24-0.36l-0.55,0.25
			L135.95,112.53z"/>
		<path class="st2" d="M74.66,101.92c-0.12,0.22-0.23,0.44-0.35,0.67l0.22,0.12c0.14-0.23,0.3-0.47,0.46-0.72l0.23-0.36l-0.55,0.25
			L74.66,101.92z"/>
		<path class="st2" d="M52.13,94.5c-0.12,0.22-0.23,0.44-0.35,0.67L52,95.29c0.14-0.23,0.3-0.47,0.46-0.72l0.24-0.36l-0.55,0.25
			L52.13,94.5z"/>
		<path class="st2" d="M396.06,6.74c-0.43,0-0.79,0.35-0.79,0.79c0,0.43,0.35,0.79,0.79,0.79s0.79-0.35,0.79-0.79
			C396.85,7.1,396.49,6.74,396.06,6.74z"/>
		<path class="st2" d="M374.05,14.36c-0.53,0-0.95,0.43-0.95,0.95c0,0.53,0.43,0.95,0.95,0.95c0.52,0,0.95-0.43,0.95-0.95
			C375,14.78,374.58,14.36,374.05,14.36z"/>
		<path class="st2" d="M358,24.95c-0.62,0-1.12,0.5-1.12,1.12c0,0.62,0.5,1.12,1.12,1.12c0.62,0,1.12-0.5,1.12-1.12
			C359.12,25.45,358.62,24.95,358,24.95z"/>
		<path class="st2" d="M407.64,23.62c-0.43,0-0.79,0.35-0.79,0.79c0,0.43,0.35,0.79,0.79,0.79c0.43,0,0.79-0.35,0.79-0.79
			C408.43,23.98,408.08,23.62,407.64,23.62z"/>
		<path class="st2" d="M294.13,11.71c-0.8,0-1.45,0.65-1.45,1.45c0,0.8,0.65,1.45,1.45,1.45c0.8,0,1.45-0.65,1.45-1.45
			C295.58,12.36,294.93,11.71,294.13,11.71z"/>
		<path class="st2" d="M297.77,29.25c-0.43,0-0.79,0.35-0.79,0.79c0,0.43,0.35,0.79,0.79,0.79c0.43,0,0.79-0.35,0.79-0.79
			C298.56,29.6,298.21,29.25,297.77,29.25z"/>
		<path class="st2" d="M39.82,5.75c-0.71,0-1.28,0.58-1.28,1.28c0,0.71,0.58,1.28,1.28,1.28c0.71,0,1.28-0.58,1.28-1.28
			C41.1,6.33,40.53,5.75,39.82,5.75z"/>
		<path class="st2" d="M36.01,20.31c-0.43,0-0.79,0.35-0.79,0.79c0,0.43,0.35,0.79,0.79,0.79c0.43,0,0.79-0.35,0.79-0.79
			C36.8,20.67,36.45,20.31,36.01,20.31z"/>
		<path class="st2" d="M104.18,12.54c-0.19,0-0.34,0.07-0.46,0.2c-0.1,0.11-0.15,0.26-0.15,0.42c0,0.31,0.21,0.62,0.61,0.62
			c0.19,0,0.34-0.07,0.46-0.2c0.1-0.11,0.15-0.26,0.15-0.42C104.79,12.85,104.58,12.54,104.18,12.54z"/>
		<path class="st2" d="M126.02,29.08c-0.19,0-0.34,0.07-0.46,0.2c-0.1,0.11-0.15,0.26-0.15,0.42c0,0.31,0.21,0.62,0.6,0.62
			c0.19,0,0.34-0.07,0.46-0.2c0.1-0.11,0.15-0.26,0.15-0.42C126.63,29.39,126.42,29.08,126.02,29.08z"/>
		<path class="st2" d="M170.31,23.75c0-0.31-0.21-0.62-0.61-0.62c-0.19,0-0.34,0.07-0.45,0.2c-0.1,0.11-0.15,0.26-0.15,0.42
			c0,0.31,0.21,0.62,0.61,0.62c0.19,0,0.34-0.07,0.46-0.2C170.26,24.06,170.31,23.91,170.31,23.75z"/>
		<path class="st2" d="M191.22,41c-0.19,0-0.34,0.07-0.46,0.2c-0.1,0.11-0.15,0.26-0.15,0.42c0,0.31,0.21,0.62,0.61,0.62
			c0.19,0,0.34-0.07,0.46-0.2c0.1-0.11,0.15-0.26,0.15-0.42C191.82,41.31,191.61,41,191.22,41z"/>
		<path class="st2" d="M234.57,19.49c-0.19,0-0.34,0.07-0.46,0.2c-0.1,0.11-0.15,0.26-0.15,0.42c0,0.31,0.21,0.62,0.61,0.62
			c0.19,0,0.34-0.07,0.46-0.2c0.1-0.11,0.15-0.26,0.15-0.42C235.17,19.8,234.96,19.49,234.57,19.49z"/>
		<path class="st2" d="M266,69.12c-0.19,0-0.34,0.07-0.46,0.2c-0.1,0.11-0.15,0.26-0.15,0.42c0,0.31,0.21,0.62,0.6,0.62
			c0.19,0,0.34-0.07,0.45-0.2c0.1-0.11,0.15-0.26,0.15-0.42C266.61,69.44,266.4,69.12,266,69.12z"/>
		<path class="st2" d="M324.04,53.62c0.1-0.11,0.15-0.26,0.15-0.42c0-0.31-0.21-0.62-0.61-0.62c-0.19,0-0.34,0.07-0.46,0.2
			c-0.1,0.11-0.15,0.26-0.15,0.42c0,0.31,0.21,0.62,0.61,0.62C323.77,53.82,323.93,53.75,324.04,53.62z"/>
		<path class="st2" d="M327.68,23.51c0.1-0.11,0.15-0.26,0.15-0.42c0-0.31-0.21-0.62-0.6-0.62c-0.19,0-0.34,0.07-0.45,0.2
			c-0.1,0.11-0.15,0.26-0.15,0.42c0,0.31,0.21,0.62,0.61,0.62C327.41,23.71,327.57,23.64,327.68,23.51z"/>
		<path class="st2" d="M422.53,68.79c-0.19,0-0.34,0.07-0.46,0.2c-0.1,0.11-0.15,0.26-0.15,0.42c0,0.31,0.21,0.62,0.6,0.62
			c0.19,0,0.34-0.07,0.46-0.2c0.1-0.11,0.15-0.26,0.15-0.42C423.14,69.11,422.93,68.79,422.53,68.79z"/>
		<path class="st2" d="M381.5,39.67c-0.19,0-0.34,0.07-0.46,0.2c-0.1,0.11-0.15,0.26-0.15,0.42c0,0.31,0.21,0.62,0.61,0.62
			c0.19,0,0.34-0.07,0.46-0.2c0.1-0.11,0.15-0.26,0.15-0.42C382.1,39.98,381.9,39.67,381.5,39.67z"/>
		<path class="st2" d="M25.42,76.74c-0.19,0-0.34,0.07-0.46,0.2c-0.1,0.11-0.15,0.26-0.15,0.42c0,0.31,0.21,0.62,0.6,0.62
			c0.19,0,0.34-0.07,0.45-0.2c0.1-0.11,0.15-0.26,0.15-0.42C26.03,77.05,25.82,76.74,25.42,76.74z"/>
		<path class="st2" d="M20.13,45.3c-0.19,0-0.34,0.07-0.46,0.2c-0.1,0.11-0.15,0.26-0.15,0.42c0,0.31,0.21,0.62,0.61,0.62
			c0.19,0,0.34-0.07,0.46-0.2c0.1-0.11,0.15-0.26,0.15-0.42C20.73,45.61,20.53,45.3,20.13,45.3z"/>
		<path class="st2" d="M80.03,58.53c-0.19,0-0.34,0.07-0.46,0.2c-0.1,0.11-0.15,0.26-0.15,0.42c0,0.31,0.21,0.62,0.61,0.62
			c0.19,0,0.34-0.07,0.46-0.2c0.1-0.11,0.15-0.26,0.15-0.42C80.63,58.85,80.42,58.53,80.03,58.53z"/>
		<path class="st2" d="M75.39,19.48c-0.19,0-0.34,0.07-0.46,0.2c-0.1,0.11-0.15,0.26-0.15,0.42c0,0.31,0.21,0.62,0.61,0.62
			c0.19,0,0.34-0.07,0.46-0.2c0.1-0.11,0.15-0.26,0.15-0.42C76,19.8,75.79,19.48,75.39,19.48z"/>
		<path class="st2" d="M46.93,49.6c-0.19,0-0.34,0.07-0.46,0.2c-0.1,0.11-0.15,0.26-0.15,0.42c0,0.31,0.21,0.62,0.61,0.62
			c0.19,0,0.34-0.07,0.46-0.2c0.1-0.11,0.15-0.26,0.15-0.42C47.54,49.91,47.33,49.6,46.93,49.6z"/>
		<path class="st2" d="M187.91,18.16c-0.19,0-0.34,0.07-0.46,0.2c-0.1,0.11-0.15,0.26-0.15,0.42c0,0.31,0.21,0.62,0.61,0.62
			c0.19,0,0.34-0.07,0.46-0.2c0.1-0.11,0.15-0.26,0.15-0.42C188.51,18.47,188.3,18.16,187.91,18.16z"/>
		<path class="st2" d="M204.78,83.02c-0.19,0-0.34,0.07-0.46,0.2c-0.1,0.11-0.15,0.26-0.15,0.42c0,0.31,0.21,0.62,0.61,0.62
			c0.19,0,0.34-0.07,0.46-0.2c0.1-0.11,0.15-0.26,0.15-0.42C205.39,83.33,205.18,83.02,204.78,83.02z"/>
		<path class="st2" d="M276.93,126.04c-0.19,0-0.34,0.07-0.46,0.2c-0.1,0.11-0.15,0.26-0.15,0.42c0,0.31,0.21,0.62,0.61,0.62
			c0.19,0,0.34-0.07,0.45-0.2c0.1-0.11,0.15-0.26,0.15-0.42C277.53,126.36,277.32,126.04,276.93,126.04z"/>
		<path class="st2" d="M315.97,105.19c-0.19,0-0.34,0.07-0.46,0.2c-0.1,0.11-0.15,0.26-0.15,0.42c0,0.31,0.21,0.62,0.6,0.62
			c0.19,0,0.34-0.07,0.46-0.2c0.1-0.11,0.15-0.26,0.15-0.42C316.58,105.51,316.37,105.19,315.97,105.19z"/>
		<path class="st2" d="M185.59,99.57c-0.19,0-0.34,0.07-0.46,0.2c-0.1,0.11-0.15,0.26-0.15,0.42c0,0.31,0.21,0.62,0.6,0.62
			c0.19,0,0.34-0.07,0.46-0.2c0.1-0.11,0.15-0.26,0.15-0.42C186.2,99.88,185.99,99.57,185.59,99.57z"/>
		<path class="st2" d="M29.06,101.55c-0.19,0-0.34,0.07-0.46,0.2c-0.1,0.11-0.15,0.26-0.15,0.42c0,0.31,0.21,0.62,0.61,0.62
			c0.19,0,0.34-0.07,0.46-0.2c0.1-0.11,0.15-0.26,0.15-0.42C29.67,101.87,29.46,101.55,29.06,101.55z"/>
		<path class="st2" d="M56.29,71.07c0-0.56-0.37-1.12-1.08-1.12c-0.33,0-0.62,0.12-0.82,0.35c-0.17,0.2-0.27,0.47-0.27,0.76
			c0,0.56,0.37,1.12,1.09,1.12c0.33,0,0.62-0.12,0.81-0.35C56.19,71.63,56.29,71.36,56.29,71.07z"/>
		<path class="st2" d="M105.84,31.23c-0.33,0-0.62,0.12-0.81,0.35c-0.17,0.2-0.27,0.47-0.27,0.76c0,0.56,0.37,1.12,1.08,1.12
			c0.33,0,0.62-0.12,0.82-0.35c0.17-0.2,0.27-0.47,0.27-0.76C106.92,31.8,106.55,31.23,105.84,31.23z"/>
		<path class="st2" d="M181.95,64.66c-0.33,0-0.62,0.12-0.82,0.35c-0.17,0.2-0.27,0.47-0.27,0.76c0,0.56,0.37,1.12,1.08,1.12
			c0.33,0,0.62-0.12,0.81-0.35c0.17-0.2,0.27-0.47,0.27-0.76C183.04,65.22,182.66,64.66,181.95,64.66z"/>
		<path class="st2" d="M142.33,13.82c0-0.56-0.37-1.12-1.08-1.12c-0.33,0-0.62,0.12-0.82,0.35c-0.17,0.2-0.27,0.47-0.27,0.76
			c0,0.56,0.37,1.12,1.08,1.12c0.33,0,0.62-0.12,0.81-0.35C142.24,14.38,142.33,14.11,142.33,13.82z"/>
		<path class="st2" d="M233.91,57.38c-0.33,0-0.62,0.12-0.81,0.35c-0.17,0.2-0.27,0.47-0.27,0.76c0,0.56,0.37,1.12,1.08,1.12
			c0.33,0,0.62-0.12,0.81-0.35c0.17-0.2,0.27-0.47,0.27-0.76C234.99,57.94,234.62,57.38,233.91,57.38z"/>
		<path class="st2" d="M255.42,35.87c-0.33,0-0.62,0.12-0.82,0.35c-0.17,0.2-0.27,0.47-0.27,0.76c0,0.56,0.37,1.12,1.09,1.12
			c0.33,0,0.62-0.12,0.81-0.35c0.17-0.2,0.27-0.47,0.27-0.76C256.5,36.43,256.13,35.87,255.42,35.87z"/>
		<path class="st2" d="M286.85,89.81c-0.33,0-0.62,0.12-0.82,0.35c-0.17,0.2-0.27,0.47-0.27,0.76c0,0.55,0.37,1.12,1.08,1.12
			c0.33,0,0.62-0.12,0.81-0.35c0.17-0.2,0.27-0.47,0.27-0.76C287.94,90.37,287.57,89.81,286.85,89.81z"/>
		<path class="st2" d="M349.73,82.86c-0.33,0-0.62,0.12-0.82,0.35c-0.17,0.2-0.27,0.47-0.27,0.76c0,0.55,0.37,1.12,1.08,1.12
			c0.33,0,0.62-0.12,0.81-0.35c0.17-0.2,0.27-0.47,0.27-0.76C350.81,83.42,350.44,82.86,349.73,82.86z"/>
		<path class="st2" d="M396.15,41.29c0-0.56-0.37-1.12-1.08-1.12c-0.33,0-0.62,0.12-0.82,0.35c-0.17,0.2-0.27,0.47-0.27,0.76
			c0,0.56,0.37,1.12,1.08,1.12c0.33,0,0.62-0.12,0.81-0.35C396.06,41.85,396.15,41.58,396.15,41.29z"/>
		<path class="st2" d="M346.75,43.81c-0.33,0-0.62,0.12-0.81,0.35c-0.17,0.2-0.27,0.47-0.27,0.76c0,0.56,0.37,1.12,1.09,1.12
			c0.33,0,0.62-0.12,0.82-0.35c0.17-0.2,0.27-0.47,0.27-0.76C347.84,44.37,347.46,43.81,346.75,43.81z"/>
		<path class="st2" d="M337.15,14.69c-0.33,0-0.62,0.12-0.82,0.35c-0.17,0.2-0.27,0.47-0.27,0.76c0,0.56,0.37,1.12,1.08,1.12
			c0.33,0,0.62-0.12,0.81-0.35c0.17-0.2,0.27-0.47,0.27-0.76C338.24,15.25,337.87,14.69,337.15,14.69z"/>
		<path class="st2" d="M199.82,13.03c-0.33,0-0.62,0.12-0.81,0.35c-0.17,0.2-0.27,0.47-0.27,0.76c0,0.56,0.37,1.12,1.08,1.12
			c0.33,0,0.62-0.12,0.82-0.35c0.17-0.2,0.27-0.47,0.27-0.76C200.9,13.59,200.53,13.03,199.82,13.03z"/>
		<path class="st2" d="M296.78,64.66c-0.33,0-0.62,0.12-0.81,0.35c-0.17,0.2-0.27,0.47-0.27,0.76c0,0.56,0.37,1.12,1.08,1.12
			c0.33,0,0.62-0.12,0.81-0.35c0.17-0.2,0.27-0.47,0.27-0.76C297.87,65.22,297.49,64.66,296.78,64.66z"/>
		<path class="st2" d="M213.72,54.73c-0.33,0-0.62,0.12-0.81,0.35c-0.17,0.2-0.27,0.47-0.27,0.76c0,0.56,0.37,1.12,1.08,1.12
			c0.33,0,0.62-0.12,0.82-0.35c0.17-0.2,0.27-0.47,0.27-0.76C214.8,55.29,214.43,54.73,213.72,54.73z"/>
		<path class="st2" d="M66.13,31.56c-0.33,0-0.62,0.12-0.81,0.35c-0.17,0.2-0.27,0.47-0.27,0.76c0,0.56,0.37,1.12,1.08,1.12
			c0.33,0,0.62-0.12,0.82-0.35c0.17-0.2,0.27-0.47,0.27-0.76C67.21,32.13,66.84,31.56,66.13,31.56z"/>
		<path class="st2" d="M16.16,63c-0.33,0-0.62,0.12-0.81,0.35c-0.17,0.2-0.27,0.47-0.27,0.76c0,0.56,0.37,1.12,1.08,1.12
			c0.33,0,0.62-0.12,0.81-0.35c0.17-0.2,0.27-0.47,0.27-0.76C17.24,63.56,16.87,63,16.16,63z"/>
		<path class="st2" d="M372.89,59.53c-0.33,0-0.62,0.12-0.81,0.35c-0.17,0.2-0.27,0.47-0.27,0.76c0,0.56,0.37,1.12,1.08,1.12
			c0.33,0,0.62-0.12,0.82-0.35c0.17-0.2,0.27-0.47,0.27-0.76C373.98,60.09,373.61,59.53,372.89,59.53z"/>
		<path class="st2" d="M228.94,37.69c-0.33,0-0.62,0.12-0.82,0.35c-0.17,0.2-0.27,0.47-0.27,0.76c0,0.56,0.37,1.12,1.09,1.12
			c0.33,0,0.62-0.12,0.81-0.35c0.17-0.2,0.27-0.47,0.27-0.76C230.03,38.25,229.65,37.69,228.94,37.69z"/>
		<path class="st2" d="M254.75,90.8c-0.19,0-0.34,0.07-0.46,0.2c-0.1,0.11-0.15,0.26-0.15,0.42c0,0.31,0.21,0.62,0.61,0.62
			c0.19,0,0.34-0.07,0.46-0.2c0.1-0.11,0.15-0.26,0.15-0.42C255.36,91.11,255.15,90.8,254.75,90.8z"/>
		<path class="st2" d="M142.07,157.32c-0.19,0-0.34,0.07-0.46,0.2c-0.1,0.11-0.15,0.26-0.15,0.42c0,0.31,0.21,0.62,0.61,0.62
			c0.19,0,0.34-0.07,0.46-0.2c0.1-0.11,0.15-0.26,0.15-0.42C142.68,157.63,142.47,157.32,142.07,157.32z"/>
		<path class="st2" d="M56.2,115.12c-0.19,0-0.34,0.07-0.46,0.2c-0.1,0.11-0.15,0.26-0.15,0.42c0,0.31,0.21,0.62,0.61,0.62
			c0.19,0,0.34-0.07,0.46-0.2c0.1-0.11,0.15-0.26,0.15-0.42C56.8,115.43,56.6,115.12,56.2,115.12z"/>
		<path class="st2" d="M344.1,172.7c-0.19,0-0.34,0.07-0.46,0.2c-0.1,0.11-0.15,0.26-0.15,0.42c0,0.31,0.21,0.62,0.61,0.62
			c0.19,0,0.34-0.07,0.46-0.2c0.1-0.11,0.15-0.26,0.15-0.42C344.71,173.02,344.5,172.7,344.1,172.7z"/>
		<path class="st2" d="M396.22,105.69c-0.19,0-0.34,0.07-0.46,0.2c-0.1,0.11-0.15,0.26-0.15,0.42c0,0.31,0.21,0.62,0.6,0.62
			c0.19,0,0.34-0.07,0.46-0.2c0.1-0.11,0.15-0.26,0.15-0.42C396.83,106,396.62,105.69,396.22,105.69z"/>
		<path class="st2" d="M302.41,172.21c-0.19,0-0.34,0.07-0.46,0.2c-0.1,0.11-0.15,0.26-0.15,0.42c0,0.31,0.21,0.62,0.61,0.62
			c0.19,0,0.34-0.07,0.46-0.2c0.1-0.11,0.15-0.26,0.15-0.42C303.01,172.52,302.8,172.21,302.41,172.21z"/>
		<path class="st2" d="M28.9,164.76c-0.19,0-0.34,0.07-0.45,0.2c-0.1,0.11-0.15,0.26-0.15,0.42c0,0.31,0.21,0.62,0.61,0.62
			c0.19,0,0.34-0.07,0.46-0.2c0.1-0.11,0.15-0.26,0.15-0.42C29.5,165.07,29.29,164.76,28.9,164.76z"/>
		<path class="st2" d="M127.68,180.15c-0.19,0-0.34,0.07-0.46,0.2c-0.1,0.11-0.15,0.26-0.15,0.42c0,0.31,0.21,0.62,0.6,0.62
			c0.19,0,0.34-0.07,0.46-0.2c0.1-0.11,0.15-0.26,0.15-0.42C128.28,180.46,128.08,180.15,127.68,180.15z"/>
		<path class="st2" d="M296.95,148.38c-0.19,0-0.34,0.07-0.46,0.2c-0.1,0.11-0.15,0.26-0.15,0.42c0,0.31,0.21,0.62,0.61,0.62
			c0.19,0,0.34-0.07,0.46-0.2c0.1-0.11,0.15-0.26,0.15-0.42C297.55,148.69,297.34,148.38,296.95,148.38z"/>
		<path class="st2" d="M166.89,133.49c-0.19,0-0.34,0.07-0.46,0.2c-0.1,0.11-0.15,0.26-0.15,0.42c0,0.31,0.21,0.62,0.6,0.62
			c0.19,0,0.34-0.07,0.46-0.2c0.1-0.11,0.15-0.26,0.15-0.42C167.5,133.8,167.29,133.49,166.89,133.49z"/>
		<path class="st2" d="M415.09,145.4c-0.19,0-0.34,0.07-0.46,0.2c-0.1,0.11-0.15,0.26-0.15,0.42c0,0.31,0.21,0.62,0.61,0.62
			c0.19,0,0.34-0.07,0.46-0.2c0.1-0.11,0.15-0.26,0.15-0.42C415.69,145.71,415.48,145.4,415.09,145.4z"/>
		<path class="st2" d="M198.16,122.9c-0.15,0-0.29,0.03-0.42,0.08l0.08-0.11l-0.55,0.25l-0.02,0.04c-0.12,0.22-0.23,0.44-0.35,0.67
			l0.19,0.11c0,0.03-0.02,0.06-0.02,0.09c0,0.56,0.37,1.12,1.08,1.12c0.33,0,0.62-0.12,0.82-0.35c0.17-0.2,0.27-0.47,0.27-0.76
			C199.25,123.46,198.88,122.9,198.16,122.9z"/>
		<path class="st2" d="M222.8,186.04c-0.19,0-0.34,0.07-0.46,0.2c-0.1,0.11-0.15,0.26-0.15,0.42c0,0.31,0.21,0.62,0.6,0.62
			c0.19,0,0.34-0.07,0.46-0.2c0.1-0.11,0.15-0.26,0.15-0.42C223.4,186.35,223.2,186.04,222.8,186.04z"/>
		<path class="st2" d="M161.58,199.94c-0.19,0-0.34,0.07-0.46,0.2c-0.1,0.11-0.15,0.26-0.15,0.42c0,0.31,0.21,0.62,0.61,0.62
			c0.19,0,0.34-0.07,0.46-0.2c0.1-0.11,0.15-0.26,0.15-0.42C162.18,200.25,161.98,199.94,161.58,199.94z"/>
		<path class="st2" d="M243.65,206.72c-0.33,0-0.62,0.12-0.82,0.35c-0.17,0.2-0.27,0.47-0.27,0.76c0,0.56,0.37,1.12,1.08,1.12
			c0.33,0,0.62-0.12,0.81-0.35c0.17-0.2,0.27-0.47,0.27-0.76C244.73,207.28,244.36,206.72,243.65,206.72z"/>
		<path class="st2" d="M253.58,181.57c-0.33,0-0.62,0.12-0.81,0.35c-0.17,0.2-0.27,0.47-0.27,0.76c0,0.56,0.37,1.12,1.08,1.12
			c0.33,0,0.62-0.12,0.81-0.35c0.17-0.2,0.27-0.47,0.27-0.76C254.66,182.13,254.29,181.57,253.58,181.57z"/>
		<path class="st2" d="M211.55,207.71c-0.19,0-0.34,0.07-0.46,0.2c-0.1,0.11-0.15,0.26-0.15,0.42c0,0.31,0.21,0.62,0.61,0.62
			c0.19,0,0.34-0.07,0.46-0.2c0.1-0.11,0.15-0.26,0.15-0.42C212.15,208.03,211.95,207.71,211.55,207.71z"/>
		<path class="st2" d="M154.96,239.81c-0.15,0-0.29,0.03-0.42,0.08l0.08-0.12l-0.55,0.25l-0.02,0.04c-0.12,0.22-0.23,0.44-0.35,0.67
			l0.19,0.11c0,0.03-0.02,0.06-0.02,0.09c0,0.55,0.37,1.12,1.09,1.12c0.33,0,0.62-0.12,0.82-0.35c0.17-0.2,0.27-0.47,0.27-0.76
			C156.04,240.38,155.67,239.81,154.96,239.81z"/>
		<path class="st2" d="M90.28,124.22c-0.33,0-0.62,0.12-0.82,0.35c-0.17,0.2-0.27,0.47-0.27,0.76c0,0.55,0.37,1.12,1.08,1.12
			c0.33,0,0.62-0.12,0.81-0.35c0.17-0.2,0.27-0.47,0.27-0.76C91.37,124.79,91,124.22,90.28,124.22z"/>
		<path class="st2" d="M24.43,124.22c-0.33,0-0.62,0.12-0.82,0.35c-0.17,0.2-0.27,0.47-0.27,0.76c0,0.55,0.37,1.12,1.09,1.12
			c0.33,0,0.62-0.12,0.81-0.35c0.17-0.2,0.27-0.47,0.27-0.76C25.51,124.79,25.14,124.22,24.43,124.22z"/>
		<path class="st2" d="M328.22,124.88c-0.33,0-0.62,0.12-0.81,0.35c-0.17,0.2-0.27,0.47-0.27,0.76c0,0.55,0.37,1.12,1.08,1.12
			c0.33,0,0.62-0.12,0.82-0.35c0.17-0.2,0.27-0.47,0.27-0.76C329.3,125.45,328.93,124.88,328.22,124.88z"/>
		<path class="st2" d="M360.98,99.4c-0.33,0-0.62,0.12-0.81,0.35c-0.17,0.2-0.27,0.47-0.27,0.76c0,0.56,0.37,1.12,1.08,1.12
			c0.33,0,0.62-0.12,0.82-0.35c0.17-0.2,0.27-0.47,0.27-0.76C362.07,99.97,361.69,99.4,360.98,99.4z"/>
		<path class="st2" d="M410.29,123.23c-0.33,0-0.62,0.12-0.81,0.35c-0.17,0.2-0.27,0.47-0.27,0.76c0,0.56,0.37,1.12,1.08,1.12
			c0.33,0,0.62-0.12,0.82-0.35c0.17-0.2,0.27-0.47,0.27-0.76C411.37,123.79,411,123.23,410.29,123.23z"/>
		<path class="st2" d="M415.34,91.92c0-0.55-0.37-1.12-1.08-1.12c-0.33,0-0.62,0.12-0.82,0.35c-0.17,0.2-0.27,0.47-0.27,0.76
			c0,0.56,0.37,1.12,1.08,1.12c0.33,0,0.62-0.12,0.81-0.35C415.25,92.48,415.34,92.21,415.34,91.92z"/>
		<path class="st2" d="M170.86,168.73c-0.33,0-0.62,0.12-0.82,0.35c-0.17,0.2-0.27,0.47-0.27,0.76c0,0.55,0.37,1.12,1.08,1.12
			c0.33,0,0.62-0.12,0.81-0.35c0.17-0.2,0.27-0.47,0.27-0.76C171.95,169.29,171.58,168.73,170.86,168.73z"/>
		<path class="st2" d="M86.48,149.37c-0.33,0-0.62,0.12-0.81,0.35c-0.17,0.2-0.27,0.47-0.27,0.76c0,0.56,0.37,1.12,1.08,1.12
			c0.33,0,0.62-0.12,0.82-0.35c0.17-0.2,0.27-0.47,0.27-0.76C87.56,149.94,87.19,149.37,86.48,149.37z"/>
		<path class="st2" d="M324.25,146.89c-0.33,0-0.62,0.12-0.82,0.35c-0.17,0.2-0.27,0.47-0.27,0.76c0,0.56,0.37,1.12,1.08,1.12
			c0.33,0,0.62-0.12,0.81-0.35c0.17-0.2,0.27-0.47,0.27-0.76C325.33,147.45,324.96,146.89,324.25,146.89z"/>
		<path class="st2" d="M21.61,231.41c-0.19,0-0.34,0.07-0.46,0.2c-0.1,0.11-0.15,0.26-0.15,0.42c0,0.31,0.21,0.62,0.61,0.62
			c0.19,0,0.34-0.07,0.46-0.2c0.1-0.11,0.15-0.26,0.15-0.42C22.22,231.73,22.01,231.41,21.61,231.41z"/>
		<path class="st2" d="M60.66,210.57c-0.19,0-0.34,0.07-0.45,0.2c-0.1,0.11-0.15,0.26-0.15,0.42c0,0.31,0.21,0.62,0.6,0.62
			c0.19,0,0.34-0.07,0.46-0.2c0.1-0.11,0.15-0.26,0.15-0.42C61.27,210.88,61.06,210.57,60.66,210.57z"/>
		<path class="st2" d="M88.79,278.08c-0.19,0-0.34,0.07-0.46,0.2c-0.1,0.11-0.15,0.26-0.15,0.42c0,0.31,0.21,0.62,0.61,0.62
			c0.19,0,0.34-0.07,0.46-0.2c0.1-0.11,0.15-0.26,0.15-0.42C89.39,278.39,89.19,278.08,88.79,278.08z"/>
		<path class="st2" d="M47.09,277.58c-0.19,0-0.34,0.07-0.46,0.2c-0.1,0.11-0.15,0.26-0.15,0.42c0,0.31,0.21,0.62,0.61,0.62
			c0.19,0,0.34-0.07,0.46-0.2c0.1-0.11,0.15-0.26,0.15-0.42C47.7,277.89,47.49,277.58,47.09,277.58z"/>
		<path class="st2" d="M41.63,253.75c-0.19,0-0.34,0.07-0.46,0.2c-0.1,0.11-0.15,0.26-0.15,0.42c0,0.31,0.21,0.62,0.61,0.62
			c0.19,0,0.34-0.07,0.46-0.2c0.1-0.11,0.15-0.26,0.15-0.42C42.24,254.06,42.03,253.75,41.63,253.75z"/>
		<path class="st2" d="M72.9,230.26c-0.33,0-0.62,0.12-0.81,0.35c-0.17,0.2-0.27,0.47-0.27,0.76c0,0.55,0.37,1.12,1.08,1.12
			c0.33,0,0.62-0.12,0.82-0.35c0.17-0.2,0.27-0.47,0.27-0.76C73.99,230.82,73.62,230.26,72.9,230.26z"/>
		<path class="st2" d="M105.67,204.78c-0.33,0-0.62,0.12-0.81,0.35c-0.17,0.2-0.27,0.47-0.27,0.76c0,0.56,0.37,1.12,1.08,1.12
			c0.33,0,0.62-0.12,0.82-0.35c0.17-0.2,0.27-0.47,0.27-0.76C106.75,205.34,106.38,204.78,105.67,204.78z"/>
		<path class="st2" d="M68.93,252.26c-0.33,0-0.62,0.12-0.82,0.35c-0.17,0.2-0.27,0.47-0.27,0.76c0,0.56,0.37,1.12,1.08,1.12
			c0.33,0,0.62-0.12,0.81-0.35c0.17-0.2,0.27-0.47,0.27-0.76C70.02,252.83,69.65,252.26,68.93,252.26z"/>
	</g>
	<g>
		<path class="st2" d="M565.36,112.53c-0.12,0.22-0.23,0.44-0.35,0.67l0.22,0.12c0.14-0.23,0.3-0.47,0.46-0.72l0.24-0.36l-0.55,0.25
			L565.36,112.53z"/>
		<path class="st2" d="M504.06,101.92c-0.12,0.22-0.23,0.44-0.35,0.67l0.22,0.12c0.14-0.23,0.3-0.47,0.46-0.72l0.23-0.36l-0.55,0.25
			L504.06,101.92z"/>
		<path class="st2" d="M481.54,94.5c-0.12,0.22-0.23,0.44-0.35,0.67l0.22,0.12c0.14-0.23,0.3-0.47,0.46-0.72l0.24-0.36l-0.55,0.25
			L481.54,94.5z"/>
		<path class="st2" d="M681.73,18.25c-0.43,0-0.79,0.35-0.79,0.79c0,0.43,0.35,0.79,0.79,0.79c0.43,0,0.79-0.35,0.79-0.79
			C682.52,18.61,682.17,18.25,681.73,18.25z"/>
		<path class="st2" d="M659.73,25.87c-0.53,0-0.95,0.43-0.95,0.95c0,0.53,0.43,0.95,0.95,0.95c0.52,0,0.95-0.43,0.95-0.95
			C660.68,26.29,660.25,25.87,659.73,25.87z"/>
		<path class="st2" d="M643.68,36.46c-0.62,0-1.12,0.5-1.12,1.12c0,0.62,0.5,1.12,1.12,1.12c0.62,0,1.12-0.5,1.12-1.12
			C644.79,36.96,644.29,36.46,643.68,36.46z"/>
		<path class="st2" d="M693.31,35.13c-0.43,0-0.79,0.35-0.79,0.79c0,0.43,0.35,0.79,0.79,0.79c0.44,0,0.79-0.35,0.79-0.79
			C694.1,35.49,693.75,35.13,693.31,35.13z"/>
		<circle class="st2" cx="579.81" cy="24.67" r="1.45"/>
		<path class="st2" d="M583.45,40.76c-0.43,0-0.79,0.35-0.79,0.79c0,0.43,0.35,0.79,0.79,0.79c0.43,0,0.79-0.35,0.79-0.79
			C584.23,41.11,583.88,40.76,583.45,40.76z"/>
		<path class="st2" d="M469.22,5.75c-0.71,0-1.28,0.58-1.28,1.28c0,0.71,0.58,1.28,1.28,1.28c0.71,0,1.28-0.58,1.28-1.28
			C470.51,6.33,469.93,5.75,469.22,5.75z"/>
		<path class="st2" d="M465.42,20.31c-0.43,0-0.79,0.35-0.79,0.79c0,0.43,0.35,0.79,0.79,0.79c0.43,0,0.79-0.35,0.79-0.79
			C466.21,20.67,465.85,20.31,465.42,20.31z"/>
		<path class="st2" d="M533.59,12.54c-0.19,0-0.34,0.07-0.46,0.2c-0.1,0.11-0.15,0.26-0.15,0.42c0,0.31,0.21,0.62,0.61,0.62
			c0.19,0,0.34-0.07,0.46-0.2c0.1-0.11,0.15-0.26,0.15-0.42C534.19,12.85,533.99,12.54,533.59,12.54z"/>
		<path class="st2" d="M555.43,29.08c-0.19,0-0.34,0.07-0.46,0.2c-0.1,0.11-0.15,0.26-0.15,0.42c0,0.31,0.21,0.62,0.6,0.62
			c0.19,0,0.34-0.07,0.46-0.2c0.1-0.11,0.15-0.26,0.15-0.42C556.04,29.39,555.83,29.08,555.43,29.08z"/>
		<path class="st2" d="M599.72,23.75c0-0.31-0.21-0.62-0.61-0.62c-0.19,0-0.34,0.07-0.46,0.2c-0.1,0.11-0.15,0.26-0.15,0.42
			c0,0.31,0.21,0.62,0.61,0.62c0.19,0,0.34-0.07,0.46-0.2C599.66,24.06,599.72,23.91,599.72,23.75z"/>
		<path class="st2" d="M620.62,41c-0.19,0-0.34,0.07-0.46,0.2c-0.1,0.11-0.15,0.26-0.15,0.42c0,0.31,0.21,0.62,0.61,0.62
			c0.19,0,0.34-0.07,0.46-0.2c0.1-0.11,0.15-0.26,0.15-0.42C621.23,41.31,621.02,41,620.62,41z"/>
		<path class="st2" d="M520.24,31c-0.19,0-0.34,0.07-0.46,0.2c-0.1,0.11-0.15,0.26-0.15,0.42c0,0.31,0.21,0.62,0.61,0.62
			c0.19,0,0.34-0.07,0.46-0.2c0.1-0.11,0.15-0.26,0.15-0.42C520.85,31.31,520.64,31,520.24,31z"/>
		<path class="st2" d="M551.68,80.63c-0.19,0-0.34,0.07-0.46,0.2c-0.1,0.11-0.15,0.26-0.15,0.42c0,0.31,0.21,0.62,0.6,0.62
			c0.19,0,0.34-0.07,0.46-0.2c0.1-0.11,0.15-0.26,0.15-0.42C552.28,80.95,552.08,80.63,551.68,80.63z"/>
		<path class="st2" d="M609.71,65.13c0.1-0.11,0.15-0.26,0.15-0.42c0-0.31-0.21-0.62-0.61-0.62c-0.19,0-0.34,0.07-0.46,0.2
			c-0.1,0.11-0.15,0.26-0.15,0.42c0,0.31,0.21,0.62,0.61,0.62C609.45,65.33,609.6,65.26,609.71,65.13z"/>
		<path class="st2" d="M613.36,35.02c0.1-0.11,0.15-0.26,0.15-0.42c0-0.31-0.21-0.62-0.6-0.62c-0.19,0-0.34,0.07-0.46,0.2
			c-0.1,0.11-0.15,0.26-0.15,0.42c0,0.31,0.21,0.62,0.61,0.62C613.09,35.22,613.24,35.15,613.36,35.02z"/>
		<path class="st2" d="M708.21,80.3c-0.19,0-0.34,0.07-0.46,0.2c-0.1,0.11-0.15,0.26-0.15,0.42c0,0.31,0.21,0.62,0.61,0.62
			c0.19,0,0.34-0.07,0.46-0.2c0.1-0.11,0.15-0.26,0.15-0.42C708.81,80.62,708.6,80.3,708.21,80.3z"/>
		<path class="st2" d="M667.17,51.18c-0.19,0-0.34,0.07-0.46,0.2c-0.1,0.11-0.15,0.26-0.15,0.42c0,0.31,0.21,0.62,0.61,0.62
			c0.19,0,0.34-0.07,0.46-0.2c0.1-0.11,0.15-0.26,0.15-0.42C667.78,51.49,667.57,51.18,667.17,51.18z"/>
		<path class="st2" d="M454.83,76.74c-0.19,0-0.34,0.07-0.46,0.2c-0.1,0.11-0.15,0.26-0.15,0.42c0,0.31,0.21,0.62,0.6,0.62
			c0.19,0,0.34-0.07,0.46-0.2c0.1-0.11,0.15-0.26,0.15-0.42C455.43,77.05,455.23,76.74,454.83,76.74z"/>
		<path class="st2" d="M449.53,45.3c-0.19,0-0.34,0.07-0.46,0.2c-0.1,0.11-0.15,0.26-0.15,0.42c0,0.31,0.21,0.62,0.61,0.62
			c0.19,0,0.34-0.07,0.45-0.2c0.1-0.11,0.15-0.26,0.15-0.42C450.14,45.61,449.93,45.3,449.53,45.3z"/>
		<path class="st2" d="M509.43,58.53c-0.19,0-0.34,0.07-0.46,0.2c-0.1,0.11-0.15,0.26-0.15,0.42c0,0.31,0.21,0.62,0.61,0.62
			c0.19,0,0.34-0.07,0.46-0.2c0.1-0.11,0.15-0.26,0.15-0.42C510.04,58.85,509.83,58.53,509.43,58.53z"/>
		<path class="st2" d="M504.8,19.48c-0.19,0-0.34,0.07-0.46,0.2c-0.1,0.11-0.15,0.26-0.15,0.42c0,0.31,0.21,0.62,0.61,0.62
			c0.19,0,0.34-0.07,0.46-0.2c0.1-0.11,0.15-0.26,0.15-0.42C505.4,19.8,505.2,19.48,504.8,19.48z"/>
		<path class="st2" d="M476.34,49.6c-0.19,0-0.34,0.07-0.46,0.2c-0.1,0.11-0.15,0.26-0.15,0.42c0,0.31,0.21,0.62,0.61,0.62
			c0.19,0,0.34-0.07,0.46-0.2c0.1-0.11,0.15-0.26,0.15-0.42C476.94,49.91,476.74,49.6,476.34,49.6z"/>
		<path class="st2" d="M617.31,18.16c-0.19,0-0.34,0.07-0.46,0.2c-0.1,0.11-0.15,0.26-0.15,0.42c0,0.31,0.21,0.62,0.61,0.62
			c0.19,0,0.34-0.07,0.46-0.2c0.1-0.11,0.15-0.26,0.15-0.42C617.92,18.47,617.71,18.16,617.31,18.16z"/>
		<path class="st2" d="M490.46,94.53c-0.19,0-0.34,0.07-0.46,0.2c-0.1,0.11-0.15,0.26-0.15,0.42c0,0.31,0.21,0.62,0.61,0.62
			c0.19,0,0.34-0.07,0.46-0.2c0.1-0.11,0.15-0.26,0.15-0.42C491.06,94.84,490.86,94.53,490.46,94.53z"/>
		<path class="st2" d="M562.6,137.55c-0.19,0-0.34,0.07-0.46,0.2c-0.1,0.11-0.15,0.26-0.15,0.42c0,0.31,0.21,0.62,0.61,0.62
			c0.19,0,0.34-0.07,0.46-0.2c0.1-0.11,0.15-0.26,0.15-0.42C563.21,137.87,563,137.55,562.6,137.55z"/>
		<path class="st2" d="M601.65,116.7c-0.19,0-0.34,0.07-0.46,0.2c-0.1,0.11-0.15,0.26-0.15,0.42c0,0.31,0.21,0.62,0.6,0.62
			c0.19,0,0.34-0.07,0.46-0.2c0.1-0.11,0.15-0.26,0.15-0.42C602.25,117.02,602.05,116.7,601.65,116.7z"/>
		<path class="st2" d="M615,99.57c-0.19,0-0.34,0.07-0.46,0.2c-0.1,0.11-0.15,0.26-0.15,0.42c0,0.31,0.21,0.62,0.6,0.62
			c0.19,0,0.34-0.07,0.46-0.2c0.1-0.11,0.15-0.26,0.15-0.42C615.6,99.88,615.39,99.57,615,99.57z"/>
		<path class="st2" d="M458.47,101.55c-0.19,0-0.34,0.07-0.46,0.2c-0.1,0.11-0.15,0.26-0.15,0.42c0,0.31,0.21,0.62,0.61,0.62
			c0.19,0,0.34-0.07,0.46-0.2c0.1-0.11,0.15-0.26,0.15-0.42C459.07,101.87,458.87,101.55,458.47,101.55z"/>
		<path class="st2" d="M485.7,71.07c0-0.56-0.37-1.12-1.08-1.12c-0.33,0-0.62,0.12-0.82,0.35c-0.17,0.2-0.27,0.47-0.27,0.76
			c0,0.56,0.37,1.12,1.09,1.12c0.33,0,0.62-0.12,0.81-0.35C485.6,71.63,485.7,71.36,485.7,71.07z"/>
		<path class="st2" d="M535.24,31.23c-0.33,0-0.62,0.12-0.81,0.35c-0.17,0.2-0.27,0.47-0.27,0.76c0,0.56,0.37,1.12,1.08,1.12
			c0.33,0,0.62-0.12,0.82-0.35c0.17-0.2,0.27-0.47,0.27-0.76C536.33,31.8,535.96,31.23,535.24,31.23z"/>
		<path class="st2" d="M611.36,64.66c-0.33,0-0.62,0.12-0.82,0.35c-0.17,0.2-0.27,0.47-0.27,0.76c0,0.56,0.37,1.12,1.08,1.12
			c0.33,0,0.62-0.12,0.81-0.35c0.17-0.2,0.27-0.47,0.27-0.76C612.44,65.22,612.07,64.66,611.36,64.66z"/>
		<path class="st2" d="M571.74,13.82c0-0.56-0.37-1.12-1.09-1.12c-0.33,0-0.62,0.12-0.82,0.35c-0.17,0.2-0.27,0.47-0.27,0.76
			c0,0.56,0.37,1.12,1.08,1.12c0.33,0,0.62-0.12,0.81-0.35C571.64,14.38,571.74,14.11,571.74,13.82z"/>
		<path class="st2" d="M519.58,68.89c-0.33,0-0.62,0.12-0.81,0.35c-0.17,0.2-0.27,0.47-0.27,0.76c0,0.56,0.37,1.12,1.09,1.12
			c0.33,0,0.62-0.12,0.81-0.35c0.17-0.2,0.27-0.47,0.27-0.76C520.66,69.45,520.29,68.89,519.58,68.89z"/>
		<path class="st2" d="M541.09,47.38c-0.33,0-0.62,0.12-0.82,0.35c-0.17,0.2-0.27,0.47-0.27,0.76c0,0.56,0.37,1.12,1.08,1.12
			c0.33,0,0.62-0.12,0.81-0.35c0.17-0.2,0.27-0.47,0.27-0.76C542.17,47.94,541.8,47.38,541.09,47.38z"/>
		<path class="st2" d="M572.53,101.32c-0.33,0-0.62,0.12-0.82,0.35c-0.17,0.2-0.27,0.47-0.27,0.76c0,0.55,0.37,1.12,1.08,1.12
			c0.33,0,0.62-0.12,0.81-0.35c0.17-0.2,0.27-0.47,0.27-0.76C573.61,101.88,573.24,101.32,572.53,101.32z"/>
		<path class="st2" d="M635.4,94.37c-0.33,0-0.62,0.12-0.82,0.35c-0.17,0.2-0.27,0.47-0.27,0.76c0,0.55,0.37,1.12,1.09,1.12
			c0.33,0,0.62-0.12,0.81-0.35c0.17-0.2,0.27-0.47,0.27-0.76C636.49,94.93,636.12,94.37,635.4,94.37z"/>
		<path class="st2" d="M681.83,52.8c0-0.56-0.37-1.12-1.09-1.12c-0.33,0-0.62,0.12-0.81,0.35c-0.17,0.2-0.27,0.47-0.27,0.76
			c0,0.56,0.37,1.12,1.08,1.12c0.33,0,0.62-0.12,0.81-0.35C681.73,53.36,681.83,53.09,681.83,52.8z"/>
		<path class="st2" d="M632.42,55.32c-0.33,0-0.62,0.12-0.81,0.35c-0.17,0.2-0.27,0.47-0.27,0.76c0,0.56,0.37,1.12,1.09,1.12
			c0.33,0,0.62-0.12,0.82-0.35c0.17-0.2,0.27-0.47,0.27-0.76C633.51,55.88,633.14,55.32,632.42,55.32z"/>
		<path class="st2" d="M622.83,26.2c-0.33,0-0.62,0.12-0.82,0.35c-0.17,0.2-0.27,0.47-0.27,0.76c0,0.56,0.37,1.12,1.09,1.12
			c0.33,0,0.62-0.12,0.81-0.35c0.17-0.2,0.27-0.47,0.27-0.76C623.91,26.76,623.54,26.2,622.83,26.2z"/>
		<path class="st2" d="M485.49,24.54c-0.33,0-0.62,0.12-0.81,0.35c-0.17,0.2-0.27,0.47-0.27,0.76c0,0.56,0.37,1.12,1.08,1.12
			c0.33,0,0.62-0.12,0.82-0.35c0.17-0.2,0.27-0.47,0.27-0.76C486.58,25.1,486.21,24.54,485.49,24.54z"/>
		<path class="st2" d="M582.46,76.17c-0.33,0-0.62,0.12-0.81,0.35c-0.17,0.2-0.27,0.47-0.27,0.76c0,0.56,0.37,1.12,1.08,1.12
			c0.33,0,0.62-0.12,0.81-0.35c0.17-0.2,0.27-0.47,0.27-0.76C583.54,76.73,583.17,76.17,582.46,76.17z"/>
		<path class="st2" d="M499.39,66.24c-0.33,0-0.62,0.12-0.81,0.35c-0.17,0.2-0.27,0.47-0.27,0.76c0,0.56,0.37,1.12,1.09,1.12
			c0.33,0,0.62-0.12,0.82-0.35c0.17-0.2,0.27-0.47,0.27-0.76C500.48,66.8,500.11,66.24,499.39,66.24z"/>
		<path class="st2" d="M495.53,31.56c-0.33,0-0.62,0.12-0.81,0.35c-0.17,0.2-0.27,0.47-0.27,0.76c0,0.56,0.37,1.12,1.08,1.12
			c0.33,0,0.62-0.12,0.82-0.35c0.17-0.2,0.27-0.47,0.27-0.76C496.62,32.13,496.25,31.56,495.53,31.56z"/>
		<path class="st2" d="M445.56,63c-0.33,0-0.62,0.12-0.81,0.35c-0.17,0.2-0.27,0.47-0.27,0.76c0,0.56,0.37,1.12,1.08,1.12
			c0.33,0,0.62-0.12,0.81-0.35c0.17-0.2,0.27-0.47,0.27-0.76C446.65,63.56,446.27,63,445.56,63z"/>
		<path class="st2" d="M658.57,71.04c-0.33,0-0.62,0.12-0.81,0.35c-0.17,0.2-0.27,0.47-0.27,0.76c0,0.56,0.37,1.12,1.08,1.12
			c0.33,0,0.62-0.12,0.82-0.35c0.17-0.2,0.27-0.47,0.27-0.76C659.65,71.6,659.28,71.04,658.57,71.04z"/>
		<path class="st2" d="M514.62,49.2c-0.33,0-0.62,0.12-0.82,0.35c-0.17,0.2-0.27,0.47-0.27,0.76c0,0.56,0.37,1.12,1.08,1.12
			c0.33,0,0.62-0.12,0.81-0.35c0.17-0.2,0.27-0.47,0.27-0.76C515.7,49.76,515.33,49.2,514.62,49.2z"/>
		<path class="st2" d="M540.43,102.31c-0.19,0-0.34,0.07-0.46,0.2c-0.1,0.11-0.15,0.26-0.15,0.42c0,0.31,0.21,0.62,0.61,0.62
			c0.19,0,0.34-0.07,0.46-0.2c0.1-0.11,0.15-0.26,0.15-0.42C541.03,102.62,540.83,102.31,540.43,102.31z"/>
		<path class="st2" d="M571.48,157.32c-0.19,0-0.34,0.07-0.46,0.2c-0.1,0.11-0.15,0.26-0.15,0.42c0,0.31,0.21,0.62,0.61,0.62
			c0.19,0,0.34-0.07,0.46-0.2c0.1-0.11,0.15-0.26,0.15-0.42C572.08,157.63,571.88,157.32,571.48,157.32z"/>
		<path class="st2" d="M485.6,115.12c-0.19,0-0.34,0.07-0.46,0.2c-0.1,0.11-0.15,0.26-0.15,0.42c0,0.31,0.21,0.62,0.61,0.62
			c0.19,0,0.34-0.07,0.46-0.2c0.1-0.11,0.15-0.26,0.15-0.42C486.21,115.43,486,115.12,485.6,115.12z"/>
		<path class="st2" d="M629.78,184.21c-0.19,0-0.34,0.07-0.46,0.2c-0.1,0.11-0.15,0.26-0.15,0.42c0,0.31,0.21,0.62,0.61,0.62
			c0.19,0,0.34-0.07,0.46-0.2c0.1-0.11,0.15-0.26,0.15-0.42C630.38,184.53,630.17,184.21,629.78,184.21z"/>
		<path class="st2" d="M681.9,117.2c-0.19,0-0.34,0.07-0.46,0.2c-0.1,0.11-0.15,0.26-0.15,0.42c0,0.31,0.21,0.62,0.61,0.62
			c0.19,0,0.34-0.07,0.46-0.2c0.1-0.11,0.15-0.26,0.15-0.42C682.5,117.51,682.29,117.2,681.9,117.2z"/>
		<path class="st2" d="M588.08,183.72c-0.19,0-0.34,0.07-0.46,0.2c-0.1,0.11-0.15,0.26-0.15,0.42c0,0.31,0.21,0.62,0.61,0.62
			c0.19,0,0.34-0.07,0.46-0.2c0.1-0.11,0.15-0.26,0.15-0.42C588.69,184.03,588.48,183.72,588.08,183.72z"/>
		<path class="st2" d="M458.3,164.76c-0.19,0-0.34,0.07-0.46,0.2c-0.1,0.11-0.15,0.26-0.15,0.42c0,0.31,0.21,0.62,0.61,0.62
			c0.19,0,0.34-0.07,0.46-0.2c0.1-0.11,0.15-0.26,0.15-0.42C458.91,165.07,458.7,164.76,458.3,164.76z"/>
		<path class="st2" d="M557.08,180.15c-0.19,0-0.34,0.07-0.46,0.2c-0.1,0.11-0.15,0.26-0.15,0.42c0,0.31,0.21,0.62,0.6,0.62
			c0.19,0,0.34-0.07,0.46-0.2c0.1-0.11,0.15-0.26,0.15-0.42C557.69,180.46,557.48,180.15,557.08,180.15z"/>
		<path class="st2" d="M582.62,159.89c-0.19,0-0.34,0.07-0.46,0.2c-0.1,0.11-0.15,0.26-0.15,0.42c0,0.31,0.21,0.62,0.61,0.62
			c0.19,0,0.34-0.07,0.46-0.2c0.1-0.11,0.15-0.26,0.15-0.42C583.23,160.2,583.02,159.89,582.62,159.89z"/>
		<path class="st2" d="M596.3,133.49c-0.19,0-0.34,0.07-0.46,0.2c-0.1,0.11-0.15,0.26-0.15,0.42c0,0.31,0.21,0.62,0.6,0.62
			c0.19,0,0.34-0.07,0.46-0.2c0.1-0.11,0.15-0.26,0.15-0.42C596.9,133.8,596.7,133.49,596.3,133.49z"/>
		<path class="st2" d="M700.76,156.91c-0.19,0-0.34,0.07-0.46,0.2c-0.1,0.11-0.15,0.26-0.15,0.42c0,0.31,0.21,0.62,0.61,0.62
			c0.19,0,0.34-0.07,0.46-0.2c0.1-0.11,0.15-0.26,0.15-0.42C701.37,157.23,701.16,156.91,700.76,156.91z"/>
		<path class="st2" d="M483.84,134.41c-0.15,0-0.29,0.03-0.42,0.08l0.08-0.12l-0.55,0.25l-0.02,0.04c-0.12,0.22-0.23,0.44-0.35,0.67
			l0.19,0.11c0,0.03-0.02,0.06-0.02,0.09c0,0.56,0.37,1.12,1.08,1.12c0.33,0,0.62-0.12,0.82-0.35c0.17-0.2,0.27-0.47,0.27-0.77
			C484.92,134.97,484.55,134.41,483.84,134.41z"/>
		<path class="st2" d="M508.47,197.55c-0.19,0-0.34,0.07-0.45,0.2c-0.1,0.11-0.15,0.26-0.15,0.42c0,0.31,0.21,0.62,0.6,0.62
			c0.19,0,0.34-0.07,0.46-0.2c0.1-0.11,0.15-0.26,0.15-0.42C509.08,197.86,508.87,197.55,508.47,197.55z"/>
		<path class="st2" d="M590.98,199.94c-0.19,0-0.34,0.07-0.46,0.2c-0.1,0.11-0.15,0.26-0.15,0.42c0,0.31,0.21,0.62,0.61,0.62
			c0.19,0,0.34-0.07,0.46-0.2c0.1-0.11,0.15-0.26,0.15-0.42C591.59,200.25,591.38,199.94,590.98,199.94z"/>
		<path class="st2" d="M529.32,218.23c-0.33,0-0.62,0.12-0.82,0.35c-0.17,0.2-0.27,0.47-0.27,0.76c0,0.56,0.37,1.12,1.08,1.12
			c0.33,0,0.62-0.12,0.81-0.36c0.17-0.2,0.27-0.47,0.27-0.76C530.41,218.79,530.03,218.23,529.32,218.23z"/>
		<path class="st2" d="M539.25,193.08c-0.33,0-0.62,0.12-0.81,0.35c-0.17,0.2-0.27,0.47-0.27,0.76c0,0.56,0.37,1.12,1.09,1.12
			c0.33,0,0.62-0.12,0.81-0.35c0.17-0.2,0.27-0.47,0.27-0.76C540.33,193.64,539.96,193.08,539.25,193.08z"/>
		<path class="st2" d="M497.22,219.22c-0.19,0-0.34,0.07-0.46,0.2c-0.1,0.11-0.15,0.26-0.15,0.42c0,0.31,0.21,0.62,0.61,0.62
			c0.19,0,0.34-0.07,0.45-0.2c0.1-0.11,0.15-0.26,0.15-0.42C497.83,219.54,497.62,219.22,497.22,219.22z"/>
		<path class="st2" d="M584.37,239.81c-0.15,0-0.29,0.03-0.42,0.08l0.08-0.12l-0.55,0.25l-0.02,0.04c-0.12,0.22-0.23,0.44-0.35,0.67
			l0.19,0.11c0,0.03-0.02,0.06-0.02,0.09c0,0.55,0.37,1.12,1.08,1.12c0.33,0,0.62-0.12,0.82-0.35c0.17-0.2,0.27-0.47,0.27-0.76
			C585.45,240.38,585.08,239.81,584.37,239.81z"/>
		<path class="st2" d="M519.69,124.22c-0.33,0-0.62,0.12-0.82,0.35c-0.17,0.2-0.27,0.47-0.27,0.76c0,0.55,0.37,1.12,1.09,1.12
			c0.33,0,0.62-0.12,0.81-0.35c0.17-0.2,0.27-0.47,0.27-0.76C520.78,124.79,520.4,124.22,519.69,124.22z"/>
		<path class="st2" d="M453.84,124.22c-0.33,0-0.62,0.12-0.82,0.35c-0.17,0.2-0.27,0.47-0.27,0.76c0,0.55,0.37,1.12,1.08,1.12
			c0.33,0,0.62-0.12,0.81-0.35c0.17-0.2,0.27-0.47,0.27-0.76C454.92,124.79,454.55,124.22,453.84,124.22z"/>
		<path class="st2" d="M613.89,136.4c-0.33,0-0.62,0.12-0.81,0.35c-0.17,0.2-0.27,0.47-0.27,0.76c0,0.55,0.37,1.12,1.08,1.12
			c0.33,0,0.62-0.12,0.82-0.35c0.17-0.2,0.27-0.47,0.27-0.76C614.98,136.96,614.61,136.4,613.89,136.4z"/>
		<path class="st2" d="M646.65,110.91c-0.33,0-0.62,0.12-0.81,0.35c-0.17,0.2-0.27,0.47-0.27,0.77c0,0.55,0.37,1.12,1.09,1.12
			c0.33,0,0.62-0.12,0.82-0.35c0.17-0.2,0.27-0.47,0.27-0.76C647.74,111.48,647.37,110.91,646.65,110.91z"/>
		<path class="st2" d="M695.96,134.74c-0.33,0-0.62,0.12-0.81,0.36c-0.18,0.2-0.27,0.47-0.27,0.76c0,0.55,0.37,1.12,1.09,1.12
			c0.33,0,0.62-0.12,0.81-0.35c0.17-0.2,0.27-0.47,0.27-0.76C697.05,135.3,696.68,134.74,695.96,134.74z"/>
		<path class="st2" d="M701.02,103.43c0-0.55-0.37-1.12-1.09-1.12c-0.33,0-0.62,0.12-0.81,0.35c-0.17,0.2-0.27,0.47-0.27,0.76
			c0,0.56,0.37,1.12,1.08,1.12c0.33,0,0.62-0.12,0.81-0.36C700.92,103.99,701.02,103.72,701.02,103.43z"/>
		<path class="st2" d="M600.27,168.73c-0.33,0-0.62,0.12-0.82,0.35c-0.17,0.2-0.27,0.47-0.27,0.76c0,0.55,0.37,1.12,1.09,1.12
			c0.33,0,0.62-0.12,0.81-0.35c0.17-0.2,0.27-0.47,0.27-0.76C601.36,169.29,600.98,168.73,600.27,168.73z"/>
		<path class="st2" d="M515.88,149.37c-0.33,0-0.62,0.12-0.81,0.35c-0.17,0.2-0.27,0.47-0.27,0.76c0,0.56,0.37,1.12,1.08,1.12
			c0.33,0,0.62-0.12,0.82-0.35c0.17-0.2,0.27-0.47,0.27-0.76C516.97,149.94,516.6,149.37,515.88,149.37z"/>
		<path class="st2" d="M609.92,158.4c-0.33,0-0.62,0.12-0.82,0.35c-0.17,0.2-0.27,0.47-0.27,0.76c0,0.56,0.37,1.12,1.08,1.12
			c0.33,0,0.62-0.12,0.81-0.35c0.17-0.2,0.27-0.47,0.27-0.77C611.01,158.96,610.63,158.4,609.92,158.4z"/>
		<path class="st2" d="M451.02,231.41c-0.19,0-0.34,0.07-0.46,0.2c-0.1,0.11-0.15,0.26-0.15,0.42c0,0.31,0.21,0.62,0.61,0.62
			c0.19,0,0.34-0.07,0.45-0.2c0.1-0.11,0.15-0.26,0.15-0.42C451.62,231.73,451.42,231.41,451.02,231.41z"/>
		<path class="st2" d="M490.07,210.57c-0.19,0-0.34,0.07-0.46,0.2c-0.1,0.11-0.15,0.26-0.15,0.42c0,0.31,0.21,0.62,0.6,0.62
			c0.19,0,0.34-0.07,0.46-0.2c0.1-0.11,0.15-0.26,0.15-0.42C490.67,210.88,490.46,210.57,490.07,210.57z"/>
		<path class="st2" d="M518.2,278.08c-0.19,0-0.34,0.07-0.46,0.2c-0.1,0.11-0.15,0.26-0.15,0.42c0,0.31,0.21,0.62,0.61,0.62
			c0.19,0,0.34-0.07,0.46-0.2c0.1-0.11,0.15-0.26,0.15-0.42C518.8,278.39,518.59,278.08,518.2,278.08z"/>
		<path class="st2" d="M476.5,277.58c-0.19,0-0.34,0.07-0.46,0.2c-0.1,0.11-0.15,0.26-0.15,0.42c0,0.31,0.21,0.62,0.61,0.62
			c0.19,0,0.34-0.07,0.46-0.2c0.1-0.11,0.15-0.26,0.15-0.42C477.1,277.89,476.9,277.58,476.5,277.58z"/>
		<path class="st2" d="M471.04,253.75c-0.19,0-0.34,0.07-0.46,0.2c-0.1,0.11-0.15,0.26-0.15,0.42c0,0.31,0.21,0.62,0.61,0.62
			c0.19,0,0.34-0.07,0.46-0.2c0.1-0.11,0.15-0.26,0.15-0.42C471.64,254.06,471.44,253.75,471.04,253.75z"/>
		<path class="st2" d="M502.31,230.26c-0.33,0-0.62,0.12-0.81,0.35c-0.17,0.2-0.27,0.47-0.27,0.76c0,0.55,0.37,1.12,1.08,1.12
			c0.33,0,0.62-0.12,0.82-0.35c0.17-0.2,0.27-0.47,0.27-0.76C503.4,230.82,503.02,230.26,502.31,230.26z"/>
		<path class="st2" d="M535.07,204.78c-0.33,0-0.62,0.12-0.81,0.35c-0.17,0.2-0.27,0.47-0.27,0.76c0,0.56,0.37,1.12,1.08,1.12
			c0.33,0,0.62-0.12,0.82-0.35c0.17-0.2,0.27-0.47,0.27-0.76C536.16,205.34,535.79,204.78,535.07,204.78z"/>
		<path class="st2" d="M498.34,252.26c-0.33,0-0.62,0.12-0.82,0.35c-0.17,0.2-0.27,0.47-0.27,0.76c0,0.56,0.37,1.12,1.08,1.12
			c0.33,0,0.62-0.12,0.81-0.35c0.17-0.2,0.27-0.47,0.27-0.76C499.42,252.83,499.05,252.26,498.34,252.26z"/>
	</g>
</g>
<path class="st3" d="M698.6,138.7c-2.91-8.06-4.98-23.43-16.74-18.32c-11.77,5.11-27.85,60.66-43.86,74.65
	c-9.24,8.08-14.18,20.23-18.85,29.59c-0.68-1.34-1.37-2.69-2.07-4.08c-18.6-36.67-34.62-67.72-46.24-82.41
	c-8.57-10.83-15.73-18.06-23.18-18.06c-12.82,0-50.66,86.42-63.4,72.73c-5.1-5.49-20.07,15.11-37.78,40.93
	c-2.08-1.84-4.07-3.49-5.93-4.88c-24.47-18.29-34.78-59.93-52.26-84.9c-11.22-16.03-21.45-4.05-30.18,12.29
	c-4.68-8.56-8.16-15.25-8.98-17.53c-2.91-8.06-4.98-23.43-16.74-18.32c-11.76,5.11-27.85,60.66-43.86,74.65
	c-9.24,8.08-14.18,20.23-18.85,29.59c-0.68-1.34-1.37-2.69-2.07-4.08c-18.6-36.67-34.62-67.72-46.24-82.41
	c-8.57-10.83-15.73-18.06-23.18-18.06c-12.81,0-50.66,86.42-63.4,72.73c-5.1-5.49-20.07,15.11-37.78,40.93
	c-2.08-1.84-4.07-3.49-5.93-4.88c-24.47-18.29-34.78-59.93-52.26-84.9C23.64,122.25,10.28,151.8,0,174.1v164.23h349.47h9.73h349.47
	V158.2C703.44,148.7,699.48,141.14,698.6,138.7z"/>
<g class="st0">
	<path class="st4" d="M667.8,275.51c-1.97,0.68-19.33,3.36-25.93,4.97c-6.6,1.61-26.44,2.68-29.65,3.75
		c-3.22,1.07-12.47,2.68-15.35,4.29c-2.88,1.61-17.89,6.97-17.89,6.97l-4.05,2.14c0,0-11.5,10.19-13.1,11.79
		s-38.75,17.25-38.76,17.26c-3.17,0.16-5.78,0.02-7.3-0.6c-6.93-2.84-33.28-1.02-45.21-2.68c-11.93-1.66-23.46-0.55-26.06,0
		c-2.61,0.55-14.01,6.63-18.15,6.08c-4.13-0.55-11.95,0.55-15.57,0c-3.62-0.55-12.01-3.04-12.01-3.04l-18.48-3.04l-14.13,6.08
		l-14.95,3.19l-8.66-3.19l-14.13-6.08l-18.48,3.04c0,0-8.39,2.49-12.01,3.04c-3.62,0.55-11.44-0.55-15.57,0
		c-4.13,0.55-15.54-5.53-18.15-6.08c-2.61-0.55-14.14-1.66-26.06,0c-11.93,1.66-38.28-0.16-45.21,2.68c-1.52,0.62-4.13,0.76-7.3,0.6
		c-0.01-0.01-37.15-15.65-38.76-17.26s-13.1-11.79-13.1-11.79l-4.05-2.14c0,0-15.01-5.36-17.89-6.97
		c-2.88-1.61-12.13-3.22-15.35-4.29c-3.22-1.07-23.05-2.14-29.65-3.75c-6.6-1.61-23.96-4.29-25.93-4.97
		C38.89,274.83,0,264.4,0,264.4v73.93h324.73h41.78h342.15V264.4C708.66,264.4,669.78,274.83,667.8,275.51z"/>
	<g class="st5">
		<path class="st6" d="M416.37,244.87c-0.25-0.08-0.56-0.31-0.56-0.31l-0.08-0.68l0.31-0.4l0.25-0.99l-0.74-0.88l0.43-1.19
			l-0.11-0.79l-0.59-1.69l-0.62,0.34l-0.2-2.09l-0.28-0.2l-0.93,0.17L412.9,236l-0.2-2.06l-0.73-0.42l-1.33,1.07l-0.08-0.68
			l-0.42-0.68h-0.62c0,0-0.51-0.08-0.59,0c-0.08,0.09-0.56,0.12-0.56-0.04c0-0.16-0.34-1.32-0.34-1.32l-0.28-0.17l-1.19,0.88
			l-0.9-0.4l0.03-0.9l-0.31-0.39l-1.92,0.54l0.65-0.99l0.06-0.79l-0.54-0.4l-0.31-0.17l-0.48-0.23l-0.17-0.51l0.23-0.71l-0.54-1.36
			l-0.65-1.05l-0.49,0.8l-0.87-1.17l-0.11-1.58l-0.62-0.57l-0.62-0.4c0,0-1.3-0.9-1.3-1.07c0-0.17-0.56-1.36-0.56-1.36l-0.23-1.3
			c0,0-0.34,0.17-0.62,0c-0.28-0.17-1.7-0.62-1.7-0.62l-1.24-0.79l-0.34-1.92c0,0-0.62,0.17-0.79,0c-0.17-0.17-1.47,0-1.47,0
			l-1.19-1.64l-0.45-0.34l-1.24,0.34c0,0-0.45-0.11-0.73-0.34c-0.28-0.23-0.4-0.23-0.57-0.62c-0.17-0.4-0.96-1.24-0.96-1.24
			l-1.24-0.4c0,0-0.51,0.06-0.79,0c-0.28-0.06-1.02,0-1.02,0l-0.79-1.69l-0.9-0.28l-2.11,0.85l-0.88-0.85l-0.34-1.02
			c0,0-2.2,0.06-2.37,0c-0.17-0.06-1.36,0.34-1.53,0c-0.17-0.34-0.56-1.36-1.24-1.41c-0.68-0.06-1.13,0.17-1.3,0
			c-0.17-0.17-0.62-0.08-0.79-0.01c-0.17,0.07-0.79-0.09-0.79-0.09l-1.07-1.77l-1.52,0.71l-1.02,0.48h-1.02l-0.45-1.19h-1.58h-0.4
			l-0.51,0.71h-1.75l-1.36-0.71l-0.9-0.85h-1.75l-1.4,0.96l-2.89-0.06c-0.02-0.01-0.09-0.06-0.29-0.17c-0.4-0.23-1.3-1.3-1.3-1.3
			h-0.51l-0.68,0.4l-0.34,0.51l-1.02,0.51l-1.47,0.28h-1.98l-1.47-0.34c0,0-0.51,0-0.68,0c-0.17,0-1.13,0.4-1.13,0.4
			s0.4,0.68,0,0.73c-0.4,0.06-0.85,0.17-1.64,0.23c-0.79,0.06-4.12-0.17-4.12-0.17l-1.24,0.73v0.73l-1.58,0.39l-2.2-0.51
			c0,0-0.4-0.11-0.62,0c-0.23,0.11-0.85,0.96-0.85,0.96v0.45l-1.41,0.79l-1.24-0.34l-1.13-0.34l-1.3,0.68l-0.96,1.92
			c0,0-1.13,0.23-1.19,0.4c-0.06,0.17-1.24,0.28-1.24,0.28l-1.24,0.23l-1.19,1.47c0,0-1.3,0.34-1.58,0.34
			c-0.28,0-0.85,0.11-1.02,0.17c-0.17,0.06-1.07,0.85-1.07,0.85l-0.28,0.96c0,0-0.85,1.07-1.02,1.13c-0.17,0.06-1.02,0.62-1.02,0.62
			l-1.92-0.28l-0.73,0.9l-1.24,3.05l-0.9,0.68l-1.07,0.9l-0.45,0.96v0.62c0,0,0.17,0.62,0,0.68c-0.17,0.06-0.9,1.41-1.24,1.47
			c-0.34,0.06-0.9,0.56-0.9,0.56l-0.79,1.81v1.75c0,0-0.96,1.19-1.13,1.24c-0.17,0.06,0,2.15,0,2.15l-0.34,1.24l-0.4,0.96l0.34,0.73
			c0,0,0.11,0.51-0.34,0.51c-0.45,0-1.13,0-1.36,0.06c-0.23,0.06-1.81,0.56-1.81,0.56s-0.62,1.02-0.79,1.13
			c-0.17,0.11-2.43,1.92-2.43,1.92l1.3,0.9l-0.79,1.3l-1.41,1.13l-0.34,0.96l0.23,0.6l0.06,0.3l0.34,0.68l-0.96,1.02l-0.56,0.96
			c0,0,0.62,0.56,0.79,0.62c0.17,0.06,0,1.07,0.11,1.3c0.11,0.23,0.23,0.79,0.4,0.85c0.17,0.06,0.34,0.28,0.85,0.4
			c0.51,0.11,1.02,0.17,0.28,0.62c-0.73,0.45-0.51-0.17-0.73,0.45c-0.23,0.62,1.53,1.58,1.75,1.53c0.23-0.06,1.3,0.06,1.3,0.23
			c0,0.17,0.68,1.36,0.68,1.36s0.06,0.73-0.4,0.9c-0.45,0.17-0.73,0.62-0.96,0.73c-0.23,0.11-0.62,1.3-0.62,1.3l0.79,2.32
			c0,0-0.9,1.47-1.07,1.58c-0.17,0.11-0.45,1.47-0.45,1.47l0.56,0.85c0,0,0.51,0,0.9,0c0.4,0,1.02,0.23,1.02,0.23
			s0.57,0.96,0.73,1.24c0.17,0.28,0.11,1.75,0.11,1.92c0,0.17,1.02,0.85,1.02,0.85s0.45,1.07,0.17,1.19
			c-0.28,0.11-0.96,1.13-0.96,1.13s-1.41,1.52-1.41,1.69c0,0.17,0.23,2.6,0.57,2.71c0.34,0.11,0.68,0.54,0.73,0.61
			c0.06,0.07-0.34,1.65-0.34,1.65l0.57,2.94c0,0,0.45,0.79,1.19,0.79c0.73,0,0.73,0,0.73,0l1.13,0.9c0,0,3.05,2.2,3.05,2.54
			s1.69,0.62,1.69,0.62s0.51-0.17,1.52,0c1.02,0.17,0.96-0.28,1.3,0c0.34,0.28,0.51,0.34,0.85,0.96c0.34,0.62,2.6,1.57,3.16,1.58
			c0.56,0.01,0.79,0.45,1.53,0c0.73-0.45,2.65-1.75,2.65-1.75l1.69,0.73l3.5,0.62l1.86-1.19l0.4-0.28c0,0,0.62-0.56,1.3-0.85
			c0.68-0.28,0.96-0.62,1.36-0.62c0.4,0,0.4-0.28,0.68-0.06c0.28,0.23,0.68,0.45,0.96,0.34c0.21-0.08,0.29-0.31,0.32-0.43l3.45,2.48
			l0.09,0.06l4.53,2.7l0.16,0.1l0.26,0.04l8.37,1.22c0.05,0.05,0.1,0.1,0.15,0.15c0.74,0.78,1.46,1.57,2.12,2.38
			c0.41,0.8,0.82,1.59,1.2,2.38c1.28,2.71,2.32,5.42,2.2,7.98h0v27.86h4.34l0-27.91l-0.04-0.61c-0.02-0.25-0.05-0.51-0.08-0.73
			c-0.06-0.46-0.15-0.9-0.26-1.34c-0.08-0.32-0.17-0.63-0.27-0.94c1-0.87,2.02-1.73,3.05-2.57c1.42-1.16,2.86-2.32,4.31-3.43
			l0.22-0.15l0.12-0.2l5.9-9.98l5.96-1.49l3.95-0.01l0.58,0l0.23-0.45l3.8-7.39l1.22-0.15l0.98,0.75c0,0,0.08,0.15,0.53,0
			c0.45-0.15,0.83-0.31,1.13-0.34c0.3-0.03,0.6-0.12,0.98,0c0.38,0.12,1.36,1.1,1.36,1.1s0.38,0,0.9,0c0.53,0,0.53,0,0.53,0
			c0.24,0.08,0.92-1.05,0.92-1.05s0.34-0.17,0.51,0c0.17,0.17,0.11,0.21,0.34,0.3c0.23,0.09,0.4,0.23,0.57,0.19
			c0.17-0.04,0.4,0.04,0.9,0c0.51-0.04,0.79-0.17,0.96-0.19c0.17-0.02,0.45-0.38,0.45-0.38l0.51-0.38h0.28c0,0,0.11,0.77,0.73,0.75
			c0.62-0.02,0.85-0.03,1.19,0c0.34,0.04-0.11,0.09,0.34,0.04c0.45-0.06,1.07-1.52,1.07-1.52s0.45,0.78,0.57,0.72
			c0.11-0.06,0.39-0.23,0.62,0c0.23,0.23,1.24,0.33,1.41,0.39c0.17,0.06,0.85-0.54,0.9-1.12c0.06-0.58,0-0.8,0-0.8
			s0.57-0.85,1.13-0.9c0.56-0.06,0.56-0.51,0.96-0.51c0.4,0,1.75-0.4,1.75-0.4h0.56v-1.19l1.41-0.51h0.28c0,0,0.73-0.73,0.73-0.9
			c0-0.17,0-0.9,0-0.9s-0.06-0.51,0.68-0.51c0.73,0,0.79,0,1.07,0c0.28,0,0.96-0.34,0.96-0.34s0.23-0.51,0-0.68
			c-0.23-0.17-0.73-1.64-0.73-1.64l0.51-0.73l0.33-0.39c0,0,0.69-0.23,0.86-0.51c0.17-0.28,0.28-0.73,0-0.79
			c-0.28-0.06-0.4-0.17-0.51-0.34c-0.11-0.17-0.28-0.68-0.28-0.68l0.96-1.21v-0.51l0.45-0.39l-0.57-0.9h-0.14c0,0-0.45-0.03-0.56,0
			c-0.11,0.03-0.25-0.06-0.4-0.14c-0.14-0.08,0.14-1.24,0.14-1.24v-0.51c0,0-0.25-0.25-0.34-0.25c-0.08,0-0.2-0.14-0.34-0.14
			c-0.14,0-0.28-0.37-0.28-0.37l0.31-1.24v-0.23c0,0-0.28,0.23-0.48,0.25c-0.2,0.03-0.42,0.06-0.51,0.06
			c-0.08,0-0.42-0.59-0.42-0.59l-0.03-0.85h-0.54h-0.37l-0.4-0.73l0.17-0.79c0,0-0.2-0.09-0.4,0c-0.2,0.08-0.88,0.11-0.88,0.11
			l-0.14-0.39l1.1-0.9c0,0,0.51-0.06,0.59,0c0.08,0.06,1.1-0.45,1.1-0.45l1.04-0.34l0.59-1.13l0.37-0.62c0,0,0.54-0.03,0.62,0
			c0.09,0.03,0.73,0.2,0.73,0.2l0.34-0.51l0.2-0.48v-0.93l-0.45-0.56l1.21-1.21C416.15,245.35,416.63,244.95,416.37,244.87z
			 M362.42,278.64c-1.87,0.9-3.59,2.1-5.17,3.42c-0.35,0.3-0.69,0.61-1.03,0.92l1.91-3.61l0.23,0.23l3.11-0.96H362.42z
			 M356.96,278.8l-3.53,6.18c0.14-1.03,0.3-2.05,0.5-3.07c0.16-0.83,0.36-1.65,0.57-2.47c0.46-0.04,0.81-0.07,0.81-0.07
			L356.96,278.8z M339.66,277.8c0.54-0.03,1.29-0.35,1.82-0.46c-0.02,0.45-0.02,0.9-0.01,1.35c0.01,0.47,0.04,0.94,0.08,1.41
			c-0.77-0.77-1.54-1.53-2.32-2.28C339.32,277.82,339.45,277.81,339.66,277.8z M339.21,277.8
			C339.21,277.8,339.21,277.8,339.21,277.8L339.21,277.8L339.21,277.8z M338.53,288.52l-4.59-1.96l0.08,0.04l-4.26-2.27l0.35-0.55
			l0.23-0.23c0,0,0.23-0.23,0.62,0c0.4,0.23,0.68,0,0.68,0s0.34,0,0.4-0.34c0.06-0.34,0.56-1.36,0.73-1.53
			c0.11-0.11,0.42-0.29,0.66-0.41c3.02,2.3,5.97,4.71,8.8,7.22c0.24,0.21,0.47,0.44,0.71,0.65L338.53,288.52z M343.59,286.9
			c-2.98-2.38-6.04-4.62-9.19-6.76c0.02-0.07,0.04-0.12,0.05-0.2c0.29-1.19,0.23-1.3,0.23-1.3l-0.23-1.47c0,0,0.89-0.14,1.58-0.08
			c1.44,1.52,2.85,3.07,4.2,4.65c1,1.17,1.98,2.36,2.88,3.57c0.45,0.61,0.87,1.22,1.24,1.84c0.12,0.21,0.26,0.46,0.4,0.72
			C344.37,287.55,343.99,287.22,343.59,286.9z M350.97,289.3l-0.97,1.71c-0.72-1.09-1.45-2.18-2.17-3.27l-1.31-1.98
			c-0.48-0.69-0.99-1.32-1.51-1.94c-0.48-0.57-0.98-1.12-1.48-1.66c-0.1-0.39-0.19-0.79-0.28-1.18c-0.16-0.75-0.29-1.51-0.39-2.27
			c0.13,0.09,0.25,0.17,0.36,0.21c0.4,0.17,3.9,0.34,5.14,0.34c1.24,0,1.41-0.23,1.58,0.34c0.17,0.56,1.73,0.34,2.08,0.17
			c0.12-0.06,0.53-0.12,1.02-0.18c-0.21,0.65-0.41,1.31-0.59,1.97c-0.67,2.45-1.15,4.96-1.45,7.49L350.97,289.3z M370.16,280.29
			l-0.22,0.25l-0.12,0.14l-0.07,0.08l-0.04,0.06l-0.03,0.04c-0.01,0.01-0.03,0.04-0.04,0.07l0.01-0.01l-8.09,12.94
			c-1.53,0.95-3.02,1.92-4.52,2.92c-0.86,0.58-1.72,1.16-2.57,1.75c-0.47-0.99-0.98-1.93-1.52-2.84c-0.6-1.02-1.22-2.01-1.85-2.99
			l1.14-2.17l0.64-0.82c0.74-1.14,1.62-2.29,2.53-3.36c0.91-1.08,1.89-2.11,2.92-3.07c1.99-1.84,4.23-3.44,6.73-4.4l2.11,0.33
			l1.24-1.3l1.36,0.28l1.81,0.06l0.92-0.54l-1.02,1.11l-0.88,0.97L370.16,280.29z M371.28,281.94L371.28,281.94
			C371.26,281.96,371.27,281.94,371.28,281.94L371.28,281.94z M378.79,282.03l-3.62-0.49l-0.15-0.02l-0.21,0.05l-3.9,0.98l0.37-0.62
			l0.03-0.03l0.09-0.11l0.2-0.24l0.42-0.49l0.85-0.98l1.72-1.96l0.95-1.08c0.37-0.06,0.75-0.08,1.01-0.14
			c0.51-0.11,1.98-1.07,1.98-1.07h0.45c0,0,0.56-0.06,0.79,0.45c0.23,0.51,2.09-0.17,2.09-0.17h0.24L378.79,282.03z"/>
		<polygon class="st6" points="332.94,288.33 332.93,288.32 332.93,288.32 		"/>
	</g>
	<g class="st5">
		<path class="st6" d="M643.27,240.11c-0.15-0.05-0.33-0.18-0.33-0.18l-0.05-0.4l0.18-0.23l0.15-0.58l-0.43-0.51l0.25-0.69
			l-0.07-0.46l-0.35-0.99l-0.36,0.2l-0.12-1.22l-0.17-0.12l-0.54,0.1l-0.2-0.1l-0.12-1.2l-0.43-0.25l-0.77,0.62l-0.05-0.4l-0.25-0.4
			h-0.36c0,0-0.3-0.05-0.35,0c-0.05,0.05-0.33,0.07-0.33-0.02c0-0.09-0.2-0.77-0.2-0.77l-0.16-0.1l-0.69,0.51l-0.53-0.23l0.02-0.53
			l-0.18-0.23l-1.12,0.31l0.38-0.58l0.03-0.46l-0.31-0.23l-0.18-0.1l-0.28-0.13l-0.1-0.3l0.13-0.41l-0.31-0.79l-0.38-0.61
			l-0.29,0.47l-0.5-0.68l-0.07-0.92l-0.36-0.33l-0.36-0.23c0,0-0.76-0.53-0.76-0.62s-0.33-0.79-0.33-0.79l-0.13-0.76
			c0,0-0.2,0.1-0.36,0c-0.17-0.1-0.99-0.36-0.99-0.36l-0.72-0.46l-0.2-1.12c0,0-0.36,0.1-0.46,0c-0.1-0.1-0.86,0-0.86,0l-0.69-0.96
			l-0.26-0.2l-0.72,0.2c0,0-0.26-0.07-0.43-0.2c-0.17-0.13-0.23-0.13-0.33-0.36c-0.1-0.23-0.56-0.73-0.56-0.73l-0.72-0.23
			c0,0-0.3,0.03-0.46,0c-0.16-0.03-0.59,0-0.59,0l-0.46-0.99l-0.53-0.17l-1.23,0.49l-0.51-0.49l-0.2-0.59c0,0-1.28,0.03-1.38,0
			c-0.1-0.03-0.79,0.2-0.89,0c-0.1-0.2-0.33-0.79-0.72-0.82c-0.4-0.03-0.66,0.1-0.76,0c-0.1-0.1-0.36-0.04-0.46-0.01
			c-0.1,0.04-0.46-0.05-0.46-0.05l-0.62-1.03l-0.89,0.41l-0.59,0.28h-0.59l-0.26-0.69h-0.92h-0.23l-0.3,0.41h-1.02l-0.79-0.41
			l-0.53-0.49h-1.02l-0.81,0.56l-1.68-0.03c-0.01-0.01-0.05-0.03-0.17-0.1c-0.23-0.13-0.76-0.76-0.76-0.76h-0.3l-0.39,0.23l-0.2,0.3
			l-0.59,0.3l-0.86,0.17h-1.15l-0.86-0.2c0,0-0.3,0-0.4,0c-0.1,0-0.66,0.23-0.66,0.23s0.23,0.4,0,0.43
			c-0.23,0.03-0.49,0.1-0.96,0.13c-0.46,0.03-2.4-0.1-2.4-0.1l-0.72,0.43v0.43l-0.92,0.23l-1.29-0.3c0,0-0.23-0.07-0.36,0
			c-0.13,0.07-0.49,0.56-0.49,0.56V219l-0.82,0.46l-0.72-0.2l-0.66-0.2l-0.76,0.39l-0.56,1.12c0,0-0.66,0.13-0.69,0.23
			c-0.03,0.1-0.73,0.16-0.73,0.16l-0.72,0.13l-0.69,0.86c0,0-0.76,0.2-0.92,0.2c-0.17,0-0.49,0.07-0.59,0.1
			c-0.1,0.03-0.63,0.5-0.63,0.5l-0.16,0.56c0,0-0.49,0.63-0.59,0.66c-0.1,0.03-0.59,0.36-0.59,0.36l-1.12-0.16l-0.43,0.53
			l-0.73,1.78l-0.53,0.4l-0.63,0.53l-0.26,0.56v0.36c0,0,0.1,0.36,0,0.4c-0.1,0.03-0.53,0.82-0.72,0.86
			c-0.2,0.03-0.53,0.33-0.53,0.33l-0.46,1.05v1.02c0,0-0.56,0.69-0.66,0.72c-0.1,0.03,0,1.25,0,1.25l-0.2,0.73l-0.23,0.56l0.2,0.43
			c0,0,0.07,0.3-0.2,0.3c-0.26,0-0.66,0-0.79,0.03c-0.13,0.03-1.05,0.33-1.05,0.33s-0.36,0.59-0.46,0.66
			c-0.1,0.07-1.42,1.12-1.42,1.12l0.76,0.53l-0.46,0.76l-0.82,0.66l-0.2,0.56l0.13,0.35l0.03,0.18l0.2,0.4l-0.56,0.59l-0.33,0.56
			c0,0,0.36,0.33,0.46,0.36c0.1,0.03,0,0.62,0.07,0.76c0.07,0.13,0.13,0.46,0.23,0.5c0.1,0.03,0.2,0.16,0.49,0.23
			c0.3,0.07,0.59,0.1,0.16,0.36c-0.43,0.26-0.3-0.1-0.43,0.26c-0.13,0.36,0.89,0.92,1.02,0.89c0.13-0.03,0.76,0.03,0.76,0.13
			c0,0.1,0.4,0.79,0.4,0.79s0.03,0.43-0.23,0.53c-0.26,0.1-0.43,0.36-0.56,0.43c-0.13,0.07-0.36,0.76-0.36,0.76l0.46,1.35
			c0,0-0.53,0.86-0.63,0.92c-0.1,0.07-0.26,0.86-0.26,0.86l0.33,0.49c0,0,0.3,0,0.53,0c0.23,0,0.59,0.13,0.59,0.13
			s0.33,0.56,0.43,0.72c0.1,0.17,0.07,1.02,0.07,1.12c0,0.1,0.59,0.49,0.59,0.49s0.26,0.63,0.1,0.69c-0.16,0.07-0.56,0.66-0.56,0.66
			s-0.82,0.89-0.82,0.99c0,0.1,0.13,1.51,0.33,1.58c0.2,0.07,0.4,0.31,0.43,0.35c0.03,0.04-0.2,0.96-0.2,0.96l0.33,1.71
			c0,0,0.26,0.46,0.69,0.46c0.43,0,0.43,0,0.43,0l0.66,0.53c0,0,1.78,1.28,1.78,1.48c0,0.2,0.99,0.36,0.99,0.36s0.3-0.1,0.89,0
			c0.59,0.1,0.56-0.16,0.76,0c0.2,0.17,0.3,0.2,0.49,0.56c0.2,0.36,1.52,0.91,1.84,0.92c0.33,0,0.46,0.26,0.89,0
			c0.43-0.26,1.55-1.02,1.55-1.02l0.99,0.43l2.04,0.36l1.09-0.69l0.23-0.16c0,0,0.36-0.33,0.76-0.49c0.4-0.16,0.56-0.36,0.79-0.36
			c0.23,0,0.23-0.16,0.4-0.03c0.16,0.13,0.39,0.26,0.56,0.2c0.12-0.05,0.17-0.18,0.19-0.25l2.01,1.45l0.06,0.03l2.64,1.57l0.09,0.06
			l0.15,0.02l4.88,0.71c0.03,0.03,0.06,0.06,0.09,0.08c0.43,0.45,0.85,0.91,1.24,1.39c0.24,0.46,0.48,0.93,0.7,1.39
			c0.75,1.58,1.35,3.16,1.28,4.65h0v16.25h2.53v-16.27l-0.03-0.36c-0.01-0.15-0.03-0.3-0.05-0.42c-0.04-0.27-0.09-0.53-0.15-0.78
			c-0.04-0.19-0.1-0.37-0.16-0.55c0.58-0.51,1.18-1.01,1.78-1.5c0.83-0.68,1.67-1.35,2.51-2l0.13-0.09l0.07-0.12l3.44-5.82
			l3.48-0.87l2.3,0l0.34,0l0.14-0.26l2.22-4.31l0.71-0.09l0.57,0.44c0,0,0.04,0.09,0.31,0c0.26-0.09,0.48-0.18,0.66-0.2
			c0.18-0.02,0.35-0.07,0.57,0c0.22,0.07,0.79,0.64,0.79,0.64s0.22,0,0.53,0s0.31,0,0.31,0c0.14,0.04,0.54-0.61,0.54-0.61
			s0.2-0.1,0.3,0c0.1,0.1,0.07,0.12,0.2,0.17c0.13,0.06,0.23,0.13,0.33,0.11c0.1-0.02,0.23,0.02,0.53,0c0.3-0.02,0.46-0.1,0.56-0.11
			c0.1-0.01,0.26-0.22,0.26-0.22l0.3-0.22h0.16c0,0,0.07,0.45,0.43,0.44c0.36-0.01,0.49-0.02,0.69,0c0.2,0.02-0.07,0.05,0.2,0.02
			c0.26-0.03,0.63-0.88,0.63-0.88s0.26,0.46,0.33,0.42c0.07-0.03,0.23-0.13,0.36,0c0.13,0.13,0.72,0.2,0.82,0.23
			c0.1,0.04,0.49-0.32,0.53-0.65c0.03-0.34,0-0.47,0-0.47s0.33-0.49,0.66-0.53c0.33-0.03,0.33-0.3,0.56-0.3
			c0.23,0,1.02-0.23,1.02-0.23h0.33v-0.69l0.82-0.3h0.16c0,0,0.43-0.43,0.43-0.53c0-0.1,0-0.53,0-0.53s-0.03-0.3,0.4-0.3
			c0.43,0,0.46,0,0.62,0c0.17,0,0.56-0.2,0.56-0.2s0.13-0.3,0-0.4c-0.13-0.1-0.43-0.96-0.43-0.96l0.3-0.43l0.19-0.23
			c0,0,0.4-0.13,0.5-0.3c0.1-0.17,0.17-0.43,0-0.46c-0.17-0.03-0.23-0.1-0.3-0.2c-0.07-0.1-0.17-0.4-0.17-0.4l0.56-0.71v-0.3
			l0.26-0.23l-0.33-0.53h-0.08c0,0-0.26-0.02-0.33,0s-0.15-0.03-0.23-0.08c-0.08-0.05,0.08-0.72,0.08-0.72v-0.3
			c0,0-0.15-0.15-0.2-0.15c-0.05,0-0.12-0.08-0.2-0.08c-0.08,0-0.16-0.21-0.16-0.21l0.18-0.72v-0.13c0,0-0.16,0.13-0.28,0.15
			c-0.12,0.02-0.25,0.03-0.3,0.03c-0.05,0-0.25-0.35-0.25-0.35l-0.02-0.49h-0.31h-0.21l-0.23-0.43l0.1-0.46c0,0-0.12-0.05-0.23,0
			c-0.12,0.05-0.51,0.07-0.51,0.07l-0.08-0.23l0.64-0.53c0,0,0.3-0.03,0.35,0c0.05,0.03,0.64-0.26,0.64-0.26l0.61-0.2l0.35-0.66
			l0.21-0.36c0,0,0.31-0.02,0.36,0c0.05,0.02,0.43,0.12,0.43,0.12l0.2-0.3l0.11-0.28v-0.54l-0.26-0.33l0.71-0.71
			C643.13,240.39,643.41,240.16,643.27,240.11z M611.81,259.8c-1.09,0.53-2.09,1.22-3.01,1.99c-0.21,0.17-0.4,0.36-0.6,0.54
			l1.11-2.1l0.14,0.13l1.81-0.56H611.81z M608.62,259.89l-2.06,3.61c0.08-0.6,0.17-1.2,0.29-1.79c0.1-0.48,0.21-0.96,0.33-1.44
			c0.27-0.02,0.47-0.04,0.47-0.04L608.62,259.89z M598.54,259.31c0.31-0.02,0.75-0.2,1.06-0.27c-0.01,0.26-0.01,0.53,0,0.79
			c0.01,0.27,0.03,0.55,0.05,0.82c-0.45-0.45-0.9-0.89-1.36-1.33C598.34,259.32,598.42,259.32,598.54,259.31z M598.28,259.31
			C598.28,259.31,598.28,259.31,598.28,259.31L598.28,259.31L598.28,259.31z M597.88,265.56l-2.68-1.14l0.04,0.02l-2.48-1.32
			l0.21-0.32l0.13-0.13c0,0,0.13-0.13,0.36,0c0.23,0.13,0.4,0,0.4,0s0.2,0,0.23-0.2c0.03-0.2,0.33-0.79,0.43-0.89
			c0.06-0.07,0.24-0.17,0.39-0.24c1.76,1.34,3.48,2.75,5.13,4.21c0.14,0.12,0.27,0.25,0.41,0.38L597.88,265.56z M600.83,264.62
			c-1.74-1.39-3.52-2.69-5.36-3.94c0.01-0.04,0.02-0.07,0.03-0.11c0.17-0.69,0.14-0.76,0.14-0.76l-0.14-0.85
			c0,0,0.52-0.08,0.92-0.05c0.84,0.89,1.66,1.79,2.45,2.71c0.58,0.68,1.15,1.37,1.68,2.08c0.26,0.35,0.51,0.71,0.72,1.07
			c0.07,0.12,0.15,0.27,0.23,0.42C601.29,265,601.06,264.8,600.83,264.62z M605.13,266.02l-0.57,0.99c-0.42-0.64-0.85-1.27-1.26-1.9
			l-0.77-1.15c-0.28-0.4-0.58-0.77-0.88-1.13c-0.28-0.33-0.57-0.65-0.86-0.97c-0.06-0.23-0.11-0.46-0.16-0.69
			c-0.09-0.44-0.17-0.88-0.23-1.32c0.07,0.05,0.15,0.1,0.21,0.12c0.23,0.1,2.27,0.2,3,0.2c0.73,0,0.82-0.13,0.92,0.2
			c0.1,0.33,1.01,0.2,1.21,0.1c0.07-0.03,0.31-0.07,0.59-0.11c-0.12,0.38-0.24,0.76-0.34,1.15c-0.39,1.43-0.67,2.89-0.85,4.37
			L605.13,266.02z M616.32,260.76l-0.13,0.15l-0.07,0.08l-0.04,0.05l-0.03,0.03l-0.02,0.03c-0.01,0.01-0.02,0.02-0.02,0.04l0-0.01
			l-4.72,7.54c-0.89,0.56-1.76,1.12-2.63,1.7c-0.5,0.34-1,0.68-1.5,1.02c-0.27-0.58-0.57-1.13-0.88-1.66
			c-0.35-0.6-0.71-1.17-1.08-1.74l0.67-1.26l0.38-0.48c0.43-0.66,0.95-1.33,1.47-1.96c0.53-0.63,1.1-1.23,1.7-1.79
			c1.16-1.07,2.46-2.01,3.92-2.56l1.23,0.19l0.72-0.76l0.79,0.16l1.05,0.03l0.54-0.31l-0.59,0.65l-0.51,0.56L616.32,260.76z
			 M616.97,261.73L616.97,261.73C616.96,261.74,616.97,261.73,616.97,261.73L616.97,261.73z M621.35,261.78l-2.11-0.28l-0.09-0.01
			l-0.12,0.03l-2.27,0.57l0.21-0.36l0.01-0.02l0.05-0.07l0.12-0.14l0.24-0.29l0.5-0.57l1-1.14l0.55-0.63
			c0.21-0.03,0.43-0.05,0.59-0.08c0.3-0.07,1.15-0.63,1.15-0.63h0.26c0,0,0.33-0.03,0.46,0.26c0.13,0.3,1.22-0.1,1.22-0.1h0.14
			L621.35,261.78z"/>
		<polygon class="st6" points="594.62,265.45 594.61,265.45 594.61,265.44 		"/>
	</g>
	<g class="st5">
		<path class="st6" d="M686.19,247.42c-0.09-0.03-0.21-0.11-0.21-0.11l-0.03-0.25l0.12-0.15l0.09-0.37l-0.27-0.32l0.16-0.44
			l-0.04-0.29l-0.22-0.62l-0.23,0.13l-0.07-0.77l-0.1-0.07l-0.34,0.06l-0.12-0.06l-0.08-0.76l-0.27-0.16l-0.49,0.4l-0.03-0.25
			l-0.16-0.25h-0.23c0,0-0.19-0.03-0.22,0c-0.03,0.03-0.21,0.04-0.21-0.01c0-0.06-0.13-0.49-0.13-0.49l-0.1-0.06l-0.44,0.32
			l-0.33-0.15l0.01-0.33l-0.12-0.15l-0.71,0.2l0.24-0.37l0.02-0.29l-0.2-0.15l-0.12-0.06l-0.17-0.08l-0.06-0.19l0.08-0.26l-0.2-0.5
			l-0.24-0.39l-0.18,0.29l-0.32-0.43l-0.04-0.58l-0.23-0.21l-0.23-0.15c0,0-0.48-0.33-0.48-0.4c0-0.06-0.21-0.5-0.21-0.5l-0.08-0.48
			c0,0-0.12,0.06-0.23,0c-0.1-0.06-0.62-0.23-0.62-0.23l-0.46-0.29l-0.12-0.71c0,0-0.23,0.06-0.29,0c-0.06-0.06-0.54,0-0.54,0
			l-0.44-0.6l-0.17-0.13l-0.46,0.13c0,0-0.17-0.04-0.27-0.13c-0.1-0.08-0.15-0.08-0.21-0.23c-0.06-0.15-0.35-0.46-0.35-0.46
			l-0.46-0.15c0,0-0.19,0.02-0.29,0c-0.1-0.02-0.37,0-0.37,0l-0.29-0.62l-0.33-0.1l-0.78,0.31l-0.32-0.31l-0.12-0.38
			c0,0-0.81,0.02-0.88,0c-0.06-0.02-0.5,0.12-0.56,0c-0.06-0.12-0.21-0.5-0.46-0.52c-0.25-0.02-0.41,0.06-0.48,0
			c-0.06-0.06-0.23-0.03-0.29,0c-0.06,0.02-0.29-0.03-0.29-0.03l-0.39-0.65l-0.56,0.26l-0.37,0.18h-0.38l-0.17-0.44h-0.58h-0.15
			l-0.19,0.26h-0.65l-0.5-0.26l-0.33-0.31h-0.65l-0.51,0.35l-1.06-0.02c-0.01-0.01-0.03-0.02-0.11-0.06
			c-0.15-0.08-0.48-0.48-0.48-0.48h-0.19l-0.25,0.14l-0.13,0.19l-0.37,0.19l-0.54,0.1h-0.73l-0.54-0.12c0,0-0.19,0-0.25,0
			s-0.42,0.14-0.42,0.14s0.15,0.25,0,0.27c-0.15,0.02-0.31,0.06-0.6,0.08c-0.29,0.02-1.52-0.06-1.52-0.06l-0.46,0.27v0.27
			l-0.58,0.15l-0.81-0.19c0,0-0.15-0.04-0.23,0c-0.08,0.04-0.31,0.35-0.31,0.35v0.17l-0.52,0.29l-0.46-0.12l-0.42-0.13l-0.48,0.25
			l-0.35,0.71c0,0-0.42,0.08-0.44,0.15c-0.02,0.06-0.46,0.1-0.46,0.1l-0.46,0.08l-0.44,0.54c0,0-0.48,0.12-0.58,0.12
			s-0.31,0.04-0.38,0.06c-0.06,0.02-0.4,0.31-0.4,0.31l-0.1,0.35c0,0-0.31,0.4-0.37,0.42c-0.06,0.02-0.38,0.23-0.38,0.23l-0.71-0.1
			l-0.27,0.33l-0.46,1.12l-0.33,0.25l-0.4,0.33l-0.17,0.35v0.23c0,0,0.06,0.23,0,0.25c-0.06,0.02-0.33,0.52-0.46,0.54
			c-0.12,0.02-0.33,0.21-0.33,0.21l-0.29,0.67v0.65c0,0-0.35,0.44-0.42,0.46c-0.06,0.02,0,0.79,0,0.79l-0.13,0.46l-0.15,0.35
			l0.12,0.27c0,0,0.04,0.19-0.12,0.19c-0.17,0-0.42,0-0.5,0.02c-0.08,0.02-0.67,0.21-0.67,0.21s-0.23,0.37-0.29,0.42
			c-0.06,0.04-0.9,0.71-0.9,0.71l0.48,0.33l-0.29,0.48l-0.52,0.42l-0.12,0.36l0.08,0.22l0.02,0.11l0.13,0.25l-0.35,0.38l-0.21,0.35
			c0,0,0.23,0.21,0.29,0.23c0.06,0.02,0,0.4,0.04,0.48c0.04,0.08,0.08,0.29,0.15,0.31c0.06,0.02,0.12,0.1,0.31,0.15
			c0.19,0.04,0.38,0.06,0.1,0.23c-0.27,0.17-0.19-0.06-0.27,0.17c-0.08,0.23,0.56,0.58,0.65,0.56c0.08-0.02,0.48,0.02,0.48,0.08
			c0,0.06,0.25,0.5,0.25,0.5s0.02,0.27-0.15,0.33c-0.17,0.06-0.27,0.23-0.35,0.27c-0.08,0.04-0.23,0.48-0.23,0.48l0.29,0.85
			c0,0-0.33,0.54-0.4,0.58c-0.06,0.04-0.17,0.54-0.17,0.54l0.21,0.31c0,0,0.19,0,0.33,0c0.15,0,0.38,0.08,0.38,0.08
			s0.21,0.35,0.27,0.46c0.06,0.11,0.04,0.65,0.04,0.71c0,0.06,0.37,0.31,0.37,0.31s0.17,0.4,0.06,0.44
			c-0.1,0.04-0.35,0.42-0.35,0.42s-0.52,0.56-0.52,0.62c0,0.06,0.08,0.96,0.21,1c0.12,0.04,0.25,0.2,0.27,0.22
			c0.02,0.03-0.12,0.61-0.12,0.61l0.21,1.08c0,0,0.17,0.29,0.44,0.29c0.27,0,0.27,0,0.27,0l0.42,0.33c0,0,1.12,0.81,1.12,0.94
			c0,0.13,0.62,0.23,0.62,0.23s0.19-0.06,0.56,0s0.35-0.1,0.48,0c0.13,0.1,0.19,0.13,0.31,0.35c0.12,0.23,0.96,0.58,1.17,0.58
			c0.21,0,0.29,0.16,0.56,0c0.27-0.16,0.98-0.64,0.98-0.64l0.62,0.27l1.29,0.23l0.69-0.44l0.15-0.1c0,0,0.23-0.21,0.48-0.31
			c0.25-0.1,0.35-0.23,0.5-0.23s0.15-0.1,0.25-0.02c0.11,0.08,0.25,0.17,0.35,0.12c0.08-0.03,0.11-0.12,0.12-0.16l1.27,0.91
			l0.04,0.02l1.67,1l0.06,0.04l0.1,0.01l3.08,0.45c0.02,0.02,0.04,0.04,0.05,0.05c0.27,0.29,0.54,0.58,0.78,0.88
			c0.15,0.29,0.3,0.59,0.44,0.88c0.47,1,0.86,2,0.81,2.94h0v10.27h1.6v-10.29l-0.02-0.23c-0.01-0.09-0.02-0.19-0.03-0.27
			c-0.02-0.17-0.06-0.33-0.09-0.49c-0.03-0.12-0.06-0.23-0.1-0.35c0.37-0.32,0.74-0.64,1.12-0.95c0.52-0.43,1.06-0.85,1.59-1.26
			l0.08-0.06l0.04-0.08l2.17-3.68l2.2-0.55l1.46,0h0.21l0.09-0.16l1.4-2.72l0.45-0.05l0.36,0.28c0,0,0.03,0.05,0.19,0
			c0.17-0.06,0.31-0.11,0.42-0.13c0.11-0.01,0.22-0.04,0.36,0c0.14,0.05,0.5,0.41,0.5,0.41s0.14,0,0.33,0c0.19,0,0.19,0,0.19,0
			c0.09,0.03,0.34-0.39,0.34-0.39s0.12-0.06,0.19,0c0.06,0.06,0.04,0.08,0.12,0.11c0.08,0.04,0.15,0.08,0.21,0.07
			c0.06-0.02,0.15,0.01,0.33,0c0.19-0.02,0.29-0.06,0.35-0.07c0.06-0.01,0.17-0.14,0.17-0.14l0.19-0.14h0.1c0,0,0.04,0.28,0.27,0.28
			c0.23-0.01,0.31-0.01,0.44,0c0.12,0.01-0.04,0.03,0.12,0.01c0.17-0.02,0.39-0.56,0.39-0.56s0.17,0.29,0.21,0.27
			c0.04-0.02,0.15-0.08,0.23,0c0.08,0.08,0.46,0.12,0.52,0.14c0.06,0.02,0.31-0.2,0.33-0.41c0.02-0.21,0-0.3,0-0.3
			s0.21-0.31,0.42-0.33c0.21-0.02,0.21-0.19,0.36-0.19c0.14,0,0.64-0.15,0.64-0.15h0.21v-0.44l0.52-0.19h0.1
			c0,0,0.27-0.27,0.27-0.33s0-0.33,0-0.33s-0.02-0.19,0.25-0.19c0.27,0,0.29,0,0.4,0c0.1,0,0.35-0.12,0.35-0.12s0.08-0.19,0-0.25
			c-0.08-0.06-0.27-0.6-0.27-0.6l0.19-0.27l0.12-0.15c0,0,0.25-0.08,0.32-0.19c0.06-0.1,0.1-0.27,0-0.29
			c-0.11-0.02-0.15-0.06-0.19-0.12c-0.04-0.06-0.1-0.25-0.1-0.25l0.36-0.45v-0.19l0.17-0.15l-0.21-0.33h-0.05c0,0-0.17-0.01-0.21,0
			c-0.04,0.01-0.09-0.02-0.15-0.05c-0.05-0.03,0.05-0.46,0.05-0.46v-0.19c0,0-0.09-0.09-0.13-0.09c-0.03,0-0.07-0.05-0.12-0.05
			c-0.05,0-0.1-0.13-0.1-0.13l0.11-0.46v-0.09c0,0-0.1,0.09-0.18,0.09c-0.07,0.01-0.16,0.02-0.19,0.02c-0.03,0-0.16-0.22-0.16-0.22
			l-0.01-0.31h-0.2h-0.14l-0.14-0.27l0.06-0.29c0,0-0.07-0.03-0.14,0c-0.07,0.03-0.32,0.04-0.32,0.04l-0.05-0.15l0.41-0.33
			c0,0,0.19-0.02,0.22,0c0.03,0.02,0.4-0.17,0.4-0.17l0.39-0.12l0.22-0.42l0.14-0.23c0,0,0.2-0.01,0.23,0
			c0.03,0.01,0.27,0.07,0.27,0.07l0.12-0.19l0.07-0.18v-0.34l-0.17-0.21l0.45-0.45C686.11,247.6,686.28,247.45,686.19,247.42z
			 M666.3,259.87c-0.69,0.33-1.32,0.77-1.91,1.26c-0.13,0.11-0.25,0.23-0.38,0.34l0.7-1.33l0.09,0.09l1.15-0.36H666.3z
			 M664.29,259.93l-1.3,2.28c0.05-0.38,0.11-0.76,0.18-1.13c0.06-0.3,0.13-0.61,0.21-0.91c0.17-0.02,0.3-0.03,0.3-0.03
			L664.29,259.93z M657.91,259.56c0.2-0.01,0.48-0.13,0.67-0.17c-0.01,0.17-0.01,0.33,0,0.5c0.01,0.17,0.02,0.35,0.03,0.52
			c-0.28-0.28-0.57-0.56-0.86-0.84C657.79,259.57,657.83,259.57,657.91,259.56z M657.75,259.56L657.75,259.56L657.75,259.56
			L657.75,259.56z M657.5,263.51l-1.69-0.72l0.03,0.01l-1.57-0.84l0.13-0.2l0.08-0.08c0,0,0.08-0.08,0.23,0c0.15,0.08,0.25,0,0.25,0
			s0.12,0,0.15-0.12c0.02-0.13,0.21-0.5,0.27-0.56c0.04-0.04,0.15-0.11,0.24-0.15c1.11,0.85,2.2,1.74,3.24,2.66
			c0.09,0.08,0.17,0.16,0.26,0.24L657.5,263.51z M659.36,262.92c-1.1-0.88-2.23-1.7-3.39-2.49c0.01-0.02,0.01-0.04,0.02-0.07
			c0.11-0.44,0.08-0.48,0.08-0.48l-0.08-0.54c0,0,0.33-0.05,0.58-0.03c0.53,0.56,1.05,1.13,1.55,1.71c0.37,0.43,0.73,0.87,1.06,1.32
			c0.16,0.22,0.32,0.45,0.46,0.68c0.05,0.08,0.1,0.17,0.15,0.26C659.65,263.15,659.51,263.03,659.36,262.92z M662.08,263.8
			l-0.36,0.63c-0.27-0.4-0.53-0.8-0.8-1.21l-0.48-0.73c-0.18-0.26-0.36-0.49-0.56-0.72c-0.18-0.21-0.36-0.41-0.55-0.61
			c-0.04-0.14-0.07-0.29-0.1-0.43c-0.06-0.28-0.11-0.56-0.14-0.84c0.05,0.03,0.09,0.06,0.13,0.08c0.15,0.06,1.44,0.12,1.9,0.12
			c0.46,0,0.52-0.08,0.58,0.12c0.06,0.21,0.64,0.13,0.77,0.06c0.04-0.02,0.2-0.04,0.38-0.07c-0.08,0.24-0.15,0.48-0.22,0.73
			c-0.25,0.9-0.42,1.83-0.54,2.76L662.08,263.8z M669.15,260.48l-0.08,0.09l-0.04,0.05l-0.02,0.03l-0.02,0.02l-0.01,0.02
			c0,0-0.01,0.01-0.02,0.02l0,0l-2.98,4.77c-0.56,0.35-1.11,0.71-1.67,1.08c-0.32,0.21-0.63,0.43-0.95,0.65
			c-0.17-0.36-0.36-0.71-0.56-1.05c-0.22-0.38-0.45-0.74-0.68-1.1l0.42-0.8l0.24-0.3c0.27-0.42,0.6-0.84,0.93-1.24
			c0.34-0.4,0.7-0.78,1.08-1.13c0.73-0.68,1.56-1.27,2.48-1.62l0.78,0.12l0.46-0.48l0.5,0.1l0.67,0.02l0.34-0.2l-0.38,0.41
			l-0.32,0.36L669.15,260.48z M669.56,261.09L669.56,261.09C669.56,261.1,669.56,261.09,669.56,261.09L669.56,261.09z
			 M672.34,261.12l-1.33-0.18l-0.05-0.01l-0.08,0.02l-1.44,0.36l0.13-0.23l0.01-0.01l0.04-0.04l0.07-0.09l0.15-0.18l0.32-0.36
			l0.63-0.72l0.35-0.4c0.14-0.02,0.27-0.03,0.37-0.05c0.19-0.04,0.73-0.4,0.73-0.4h0.17c0,0,0.21-0.02,0.29,0.17
			c0.08,0.19,0.77-0.06,0.77-0.06h0.09L672.34,261.12z"/>
		<polygon class="st6" points="655.44,263.44 655.43,263.44 655.43,263.44 		"/>
	</g>
	<g class="st5">
		<path class="st6" d="M202.71,299.67c-0.09-0.03-0.21-0.11-0.21-0.11l-0.03-0.25l0.12-0.15l0.09-0.37l-0.27-0.32l0.16-0.44
			l-0.04-0.29l-0.22-0.62l-0.23,0.13l-0.07-0.77l-0.1-0.07l-0.34,0.06l-0.12-0.06l-0.08-0.76l-0.27-0.16l-0.49,0.4l-0.03-0.25
			l-0.16-0.25h-0.23c0,0-0.19-0.03-0.22,0c-0.03,0.03-0.21,0.04-0.21-0.01s-0.13-0.49-0.13-0.49l-0.1-0.06l-0.44,0.32l-0.33-0.15
			l0.01-0.33l-0.12-0.15l-0.71,0.2l0.24-0.37l0.02-0.29l-0.2-0.15l-0.12-0.06l-0.17-0.08l-0.06-0.19l0.08-0.26l-0.2-0.5l-0.24-0.39
			l-0.18,0.29l-0.32-0.43l-0.04-0.58l-0.23-0.21l-0.23-0.15c0,0-0.48-0.33-0.48-0.4c0-0.06-0.21-0.5-0.21-0.5l-0.08-0.48
			c0,0-0.12,0.06-0.23,0c-0.1-0.06-0.62-0.23-0.62-0.23l-0.46-0.29l-0.12-0.71c0,0-0.23,0.06-0.29,0c-0.06-0.06-0.54,0-0.54,0
			l-0.44-0.6l-0.17-0.13l-0.46,0.13c0,0-0.17-0.04-0.27-0.13c-0.1-0.08-0.15-0.08-0.21-0.23c-0.06-0.15-0.35-0.46-0.35-0.46
			l-0.46-0.15c0,0-0.19,0.02-0.29,0c-0.1-0.02-0.37,0-0.37,0l-0.29-0.62l-0.33-0.1l-0.78,0.31l-0.32-0.31l-0.12-0.38
			c0,0-0.81,0.02-0.88,0c-0.06-0.02-0.5,0.12-0.56,0c-0.06-0.12-0.21-0.5-0.46-0.52c-0.25-0.02-0.42,0.06-0.48,0
			c-0.06-0.06-0.23-0.03-0.29,0c-0.06,0.02-0.29-0.03-0.29-0.03l-0.4-0.65l-0.56,0.26l-0.37,0.18h-0.38l-0.17-0.44h-0.58h-0.15
			l-0.19,0.26H182l-0.5-0.26l-0.33-0.31h-0.65l-0.51,0.35l-1.06-0.02c-0.01-0.01-0.03-0.02-0.11-0.06
			c-0.15-0.08-0.48-0.48-0.48-0.48h-0.19l-0.25,0.14l-0.13,0.19l-0.37,0.19l-0.54,0.1h-0.73l-0.54-0.12c0,0-0.19,0-0.25,0
			s-0.42,0.14-0.42,0.14s0.15,0.25,0,0.27c-0.15,0.02-0.31,0.06-0.6,0.08c-0.29,0.02-1.52-0.06-1.52-0.06l-0.46,0.27v0.27
			l-0.58,0.15l-0.81-0.19c0,0-0.15-0.04-0.23,0c-0.08,0.04-0.31,0.35-0.31,0.35v0.17l-0.52,0.29l-0.46-0.12l-0.42-0.13l-0.48,0.25
			l-0.35,0.71c0,0-0.42,0.08-0.44,0.15c-0.02,0.06-0.46,0.1-0.46,0.1l-0.46,0.08l-0.44,0.54c0,0-0.48,0.12-0.58,0.12
			s-0.31,0.04-0.38,0.06c-0.06,0.02-0.4,0.31-0.4,0.31l-0.1,0.35c0,0-0.31,0.4-0.37,0.42c-0.06,0.02-0.38,0.23-0.38,0.23l-0.71-0.1
			l-0.27,0.33l-0.46,1.12l-0.33,0.25l-0.4,0.33l-0.17,0.35v0.23c0,0,0.06,0.23,0,0.25c-0.06,0.02-0.33,0.52-0.46,0.54
			c-0.12,0.02-0.33,0.21-0.33,0.21l-0.29,0.67v0.65c0,0-0.35,0.44-0.42,0.46c-0.06,0.02,0,0.79,0,0.79l-0.13,0.46l-0.15,0.35
			l0.12,0.27c0,0,0.04,0.19-0.12,0.19s-0.42,0-0.5,0.02c-0.08,0.02-0.67,0.21-0.67,0.21s-0.23,0.37-0.29,0.42
			c-0.06,0.04-0.9,0.71-0.9,0.71l0.48,0.33l-0.29,0.48l-0.52,0.42l-0.12,0.36l0.08,0.22l0.02,0.11l0.13,0.25l-0.35,0.38l-0.21,0.35
			c0,0,0.23,0.21,0.29,0.23c0.06,0.02,0,0.4,0.04,0.48c0.04,0.08,0.08,0.29,0.15,0.31c0.06,0.02,0.12,0.1,0.31,0.15
			c0.19,0.04,0.38,0.06,0.1,0.23c-0.27,0.17-0.19-0.06-0.27,0.17c-0.08,0.23,0.56,0.58,0.65,0.56c0.08-0.02,0.48,0.02,0.48,0.08
			c0,0.06,0.25,0.5,0.25,0.5s0.02,0.27-0.15,0.33c-0.17,0.06-0.27,0.23-0.35,0.27c-0.08,0.04-0.23,0.48-0.23,0.48l0.29,0.85
			c0,0-0.33,0.54-0.4,0.58c-0.06,0.04-0.17,0.54-0.17,0.54l0.21,0.31c0,0,0.19,0,0.33,0c0.15,0,0.38,0.08,0.38,0.08
			s0.21,0.35,0.27,0.46c0.06,0.11,0.04,0.65,0.04,0.71c0,0.06,0.37,0.31,0.37,0.31s0.17,0.4,0.06,0.44
			c-0.1,0.04-0.35,0.42-0.35,0.42s-0.52,0.56-0.52,0.62c0,0.06,0.08,0.96,0.21,1c0.12,0.04,0.25,0.2,0.27,0.22
			c0.02,0.03-0.12,0.61-0.12,0.61l0.21,1.08c0,0,0.17,0.29,0.44,0.29c0.27,0,0.27,0,0.27,0l0.42,0.33c0,0,1.12,0.81,1.12,0.94
			c0,0.13,0.62,0.23,0.62,0.23s0.19-0.06,0.56,0s0.35-0.1,0.48,0c0.13,0.1,0.19,0.13,0.31,0.35c0.12,0.23,0.96,0.58,1.17,0.58
			c0.21,0,0.29,0.16,0.56,0c0.27-0.16,0.98-0.64,0.98-0.64l0.62,0.27l1.29,0.23l0.69-0.44l0.15-0.1c0,0,0.23-0.21,0.48-0.31
			c0.25-0.1,0.35-0.23,0.5-0.23s0.15-0.1,0.25-0.02c0.1,0.08,0.25,0.17,0.35,0.12c0.08-0.03,0.11-0.12,0.12-0.16l1.27,0.91
			l0.04,0.02l1.67,1l0.06,0.04l0.1,0.01l3.08,0.45c0.02,0.02,0.04,0.04,0.05,0.05c0.27,0.29,0.54,0.58,0.78,0.88
			c0.15,0.29,0.3,0.59,0.44,0.88c0.47,1,0.86,2,0.81,2.94h0v10.27h1.6v-10.29l-0.02-0.23c-0.01-0.09-0.02-0.19-0.03-0.27
			c-0.02-0.17-0.06-0.33-0.09-0.49c-0.03-0.12-0.06-0.23-0.1-0.35c0.37-0.32,0.74-0.64,1.12-0.95c0.52-0.43,1.06-0.85,1.59-1.26
			l0.08-0.06l0.04-0.08l2.17-3.68l2.2-0.55l1.46,0h0.21l0.09-0.16l1.4-2.72l0.45-0.05l0.36,0.28c0,0,0.03,0.05,0.19,0
			c0.17-0.06,0.31-0.11,0.42-0.13c0.11-0.01,0.22-0.04,0.36,0c0.14,0.05,0.5,0.41,0.5,0.41s0.14,0,0.33,0c0.19,0,0.19,0,0.19,0
			c0.09,0.03,0.34-0.39,0.34-0.39s0.12-0.06,0.19,0c0.06,0.06,0.04,0.08,0.12,0.11c0.08,0.04,0.15,0.08,0.21,0.07
			c0.06-0.02,0.15,0.01,0.33,0c0.19-0.02,0.29-0.06,0.35-0.07c0.06-0.01,0.17-0.14,0.17-0.14l0.19-0.14h0.1c0,0,0.04,0.28,0.27,0.28
			c0.23-0.01,0.31-0.01,0.44,0c0.12,0.01-0.04,0.03,0.12,0.01c0.17-0.02,0.39-0.56,0.39-0.56s0.17,0.29,0.21,0.27
			c0.04-0.02,0.15-0.08,0.23,0c0.08,0.08,0.46,0.12,0.52,0.14c0.06,0.02,0.31-0.2,0.33-0.41c0.02-0.21,0-0.3,0-0.3
			s0.21-0.31,0.41-0.33c0.21-0.02,0.21-0.19,0.36-0.19c0.14,0,0.64-0.15,0.64-0.15h0.21v-0.44l0.52-0.19h0.1
			c0,0,0.27-0.27,0.27-0.33s0-0.33,0-0.33s-0.02-0.19,0.25-0.19c0.27,0,0.29,0,0.4,0c0.1,0,0.35-0.12,0.35-0.12s0.08-0.19,0-0.25
			c-0.08-0.06-0.27-0.6-0.27-0.6l0.19-0.27l0.12-0.15c0,0,0.25-0.08,0.32-0.19c0.06-0.1,0.1-0.27,0-0.29
			c-0.11-0.02-0.15-0.06-0.19-0.12c-0.04-0.06-0.1-0.25-0.1-0.25l0.36-0.45v-0.19l0.17-0.15l-0.21-0.33h-0.05c0,0-0.17-0.01-0.21,0
			c-0.04,0.01-0.09-0.02-0.15-0.05c-0.05-0.03,0.05-0.46,0.05-0.46v-0.19c0,0-0.09-0.09-0.13-0.09c-0.03,0-0.07-0.05-0.12-0.05
			c-0.05,0-0.1-0.13-0.1-0.13l0.11-0.46v-0.08c0,0-0.1,0.08-0.18,0.09c-0.07,0.01-0.16,0.02-0.19,0.02c-0.03,0-0.16-0.22-0.16-0.22
			l-0.01-0.31h-0.2h-0.14l-0.14-0.27l0.06-0.29c0,0-0.07-0.03-0.14,0c-0.07,0.03-0.32,0.04-0.32,0.04l-0.05-0.15l0.41-0.33
			c0,0,0.19-0.02,0.22,0c0.03,0.02,0.4-0.17,0.4-0.17l0.39-0.12l0.22-0.42l0.14-0.23c0,0,0.2-0.01,0.23,0
			c0.03,0.01,0.27,0.07,0.27,0.07l0.12-0.19l0.07-0.18v-0.34l-0.17-0.21l0.45-0.45C202.63,299.85,202.81,299.7,202.71,299.67z
			 M182.83,312.12c-0.69,0.33-1.32,0.77-1.91,1.26c-0.13,0.11-0.25,0.23-0.38,0.34l0.7-1.33l0.09,0.09l1.15-0.36H182.83z
			 M180.81,312.18l-1.3,2.28c0.05-0.38,0.11-0.76,0.18-1.13c0.06-0.3,0.13-0.61,0.21-0.91c0.17-0.02,0.3-0.03,0.3-0.03
			L180.81,312.18z M174.44,311.81c0.2-0.01,0.48-0.13,0.67-0.17c-0.01,0.17-0.01,0.33,0,0.5c0.01,0.17,0.02,0.35,0.03,0.52
			c-0.28-0.28-0.57-0.56-0.86-0.84C174.31,311.82,174.36,311.82,174.44,311.81z M174.27,311.81L174.27,311.81L174.27,311.81
			L174.27,311.81z M174.02,315.76l-1.69-0.72l0.03,0.01l-1.57-0.84l0.13-0.2l0.08-0.08c0,0,0.08-0.08,0.23,0
			c0.15,0.08,0.25,0,0.25,0s0.12,0,0.15-0.12c0.02-0.13,0.21-0.5,0.27-0.56c0.04-0.04,0.15-0.11,0.24-0.15
			c1.11,0.85,2.2,1.74,3.24,2.66c0.09,0.08,0.17,0.16,0.26,0.24L174.02,315.76z M175.88,315.17c-1.1-0.88-2.23-1.7-3.39-2.49
			c0.01-0.02,0.01-0.04,0.02-0.07c0.11-0.44,0.08-0.48,0.08-0.48l-0.08-0.54c0,0,0.33-0.05,0.58-0.03c0.53,0.56,1.05,1.13,1.55,1.71
			c0.37,0.43,0.73,0.87,1.06,1.32c0.16,0.22,0.32,0.45,0.46,0.68c0.05,0.08,0.1,0.17,0.15,0.26
			C176.17,315.4,176.03,315.28,175.88,315.17z M178.6,316.05l-0.36,0.63c-0.27-0.4-0.53-0.8-0.8-1.21l-0.48-0.73
			c-0.18-0.26-0.36-0.49-0.56-0.72c-0.18-0.21-0.36-0.41-0.55-0.61c-0.04-0.14-0.07-0.29-0.1-0.43c-0.06-0.28-0.11-0.56-0.14-0.84
			c0.05,0.03,0.09,0.06,0.13,0.08c0.15,0.06,1.44,0.12,1.9,0.12c0.46,0,0.52-0.08,0.58,0.12c0.06,0.21,0.64,0.13,0.77,0.06
			c0.04-0.02,0.2-0.04,0.38-0.07c-0.08,0.24-0.15,0.48-0.22,0.73c-0.25,0.9-0.42,1.83-0.54,2.76L178.6,316.05z M185.68,312.73
			l-0.08,0.09l-0.04,0.05l-0.02,0.03l-0.02,0.02l-0.01,0.02c0,0-0.01,0.01-0.02,0.02l0,0l-2.98,4.77c-0.56,0.35-1.11,0.71-1.67,1.08
			c-0.32,0.21-0.63,0.43-0.95,0.65c-0.17-0.36-0.36-0.71-0.56-1.05c-0.22-0.38-0.45-0.74-0.68-1.1l0.42-0.8l0.24-0.3
			c0.27-0.42,0.6-0.84,0.93-1.24c0.34-0.4,0.7-0.78,1.08-1.13c0.73-0.68,1.56-1.27,2.48-1.62l0.78,0.12l0.46-0.48l0.5,0.1l0.67,0.02
			l0.34-0.2l-0.38,0.41l-0.32,0.36L185.68,312.73z M186.09,313.34L186.09,313.34C186.08,313.35,186.09,313.34,186.09,313.34
			L186.09,313.34z M188.86,313.37l-1.33-0.18l-0.05-0.01l-0.08,0.02l-1.44,0.36l0.13-0.23l0.01-0.01l0.04-0.04l0.07-0.09l0.15-0.18
			l0.32-0.36l0.63-0.72l0.35-0.4c0.14-0.02,0.27-0.03,0.37-0.05c0.19-0.04,0.73-0.4,0.73-0.4h0.17c0,0,0.21-0.02,0.29,0.17
			c0.08,0.19,0.77-0.06,0.77-0.06h0.09L188.86,313.37z"/>
		<polygon class="st6" points="171.96,315.69 171.95,315.69 171.95,315.69 		"/>
	</g>
	<g class="st5">
		<path class="st6" d="M105.53,123.72c-0.42-0.14-0.93-0.51-0.93-0.51l-0.14-1.13l0.52-0.66l0.42-1.65l-1.22-1.45l0.71-1.97
			l-0.19-1.32l-0.99-2.82l-1.04,0.57l-0.33-3.48l-0.47-0.33l-1.55,0.28l-0.56-0.28l-0.34-3.43l-1.22-0.71l-2.2,1.79l-0.15-1.13
			l-0.7-1.13h-1.04c0,0-0.85-0.14-0.99,0c-0.14,0.14-0.93,0.2-0.93-0.06c0-0.26-0.57-2.2-0.57-2.2l-0.47-0.28l-1.97,1.46l-1.5-0.66
			l0.05-1.51l-0.52-0.66l-3.2,0.89l1.08-1.65l0.09-1.31l-0.89-0.66l-0.52-0.28l-0.79-0.38l-0.29-0.85l0.38-1.17l-0.9-2.25
			l-1.08-1.74l-0.81,1.33l-1.45-1.94l-0.19-2.64l-1.03-0.94l-1.04-0.66c0,0-2.15-1.51-2.15-1.79c0-0.28-0.94-2.26-0.94-2.26
			l-0.38-2.16c0,0-0.56,0.29-1.03,0c-0.47-0.28-2.82-1.04-2.82-1.04l-2.07-1.31l-0.56-3.19c0,0-1.03,0.28-1.32,0
			c-0.28-0.28-2.44,0-2.44,0l-1.98-2.73l-0.75-0.57l-2.07,0.57c0,0-0.75-0.18-1.22-0.57c-0.47-0.37-0.66-0.37-0.94-1.03
			c-0.28-0.66-1.6-2.07-1.6-2.07l-2.07-0.66c0,0-0.85,0.09-1.32,0c-0.47-0.1-1.69,0-1.69,0l-1.32-2.82l-1.51-0.47l-3.51,1.41
			l-1.47-1.41l-0.56-1.69c0,0-3.67,0.09-3.95,0c-0.28-0.1-2.25,0.56-2.54,0c-0.28-0.56-0.93-2.26-2.07-2.34
			c-1.12-0.1-1.87,0.28-2.16,0c-0.28-0.29-1.03-0.13-1.32-0.02c-0.28,0.11-1.32-0.14-1.32-0.14L25.75,57l-2.54,1.18l-1.69,0.8h-1.69
			L19.07,57h-3.29l-0.85,1.18h-2.91L9.77,57l-1.51-1.41H5.35l-2.32,1.6L0,57.13v124.4c0.06-0.01,0.11-0.01,0.17-0.02
			c-0.06,0.18-0.11,0.37-0.17,0.56v16.12c1.21-1.84,2.63-3.71,4.1-5.45c1.52-1.79,3.14-3.51,4.86-5.11
			c3.31-3.06,7.03-5.73,11.2-7.32l3.52,0.55l2.07-2.16l2.25,0.47l3.01,0.09l1.53-0.89l-1.7,1.85l-1.46,1.61l-0.74,0.81l-0.37,0.43
			l-0.2,0.22l-0.11,0.13l-0.07,0.1l-0.05,0.07c-0.01,0.02-0.04,0.07-0.07,0.11l0.01-0.02l-13.46,21.52
			c-2.54,1.59-5.03,3.2-7.52,4.86c-1.44,0.95-2.86,1.93-4.29,2.92c-0.78-1.64-1.64-3.21-2.52-4.73c0,0,0,0,0,0v62.4h5.66v-46.44
			l-0.07-1.02c-0.04-0.42-0.08-0.85-0.14-1.21c-0.1-0.76-0.26-1.5-0.43-2.23c-0.13-0.54-0.29-1.05-0.45-1.57
			c1.67-1.45,3.35-2.88,5.07-4.28c2.36-1.93,4.77-3.85,7.18-5.71l0.36-0.25l0.2-0.34l9.81-16.6l9.92-2.48l6.57-0.02h0.97l0.39-0.74
			l6.32-12.29l2.04-0.25l1.63,1.25c0,0,0.13,0.25,0.88,0c0.75-0.25,1.38-0.52,1.88-0.57c0.5-0.06,1-0.2,1.63,0
			c0.63,0.2,2.26,1.83,2.26,1.83s0.62,0,1.51,0c0.87,0,0.87,0,0.87,0c0.41,0.12,1.54-1.75,1.54-1.75s0.56-0.28,0.84,0
			c0.29,0.28,0.19,0.34,0.56,0.5c0.38,0.16,0.66,0.38,0.94,0.32c0.28-0.07,0.66,0.06,1.5,0c0.85-0.07,1.32-0.29,1.6-0.32
			c0.28-0.03,0.75-0.63,0.75-0.63l0.85-0.62h0.47c0,0,0.19,1.28,1.23,1.25c1.03-0.03,1.41-0.06,1.97,0
			c0.56,0.06-0.19,0.15,0.56,0.06c0.75-0.09,1.78-2.52,1.78-2.52s0.75,1.3,0.94,1.21c0.18-0.1,0.66-0.38,1.03,0
			c0.38,0.37,2.07,0.55,2.35,0.65c0.28,0.11,1.4-0.9,1.5-1.85c0.1-0.96,0-1.33,0-1.33s0.94-1.41,1.87-1.5
			c0.95-0.1,0.95-0.85,1.6-0.85c0.65,0,2.91-0.66,2.91-0.66h0.94v-1.98l2.35-0.85h0.47c0,0,1.22-1.22,1.22-1.5c0-0.28,0-1.51,0-1.51
			s-0.1-0.84,1.13-0.84h1.79c0.46,0,1.6-0.56,1.6-0.56s0.38-0.85,0-1.13c-0.38-0.28-1.22-2.73-1.22-2.73l0.84-1.22l0.55-0.66
			c0,0,1.14-0.37,1.43-0.85c0.28-0.47,0.47-1.22,0-1.31c-0.48-0.1-0.66-0.28-0.84-0.56c-0.19-0.29-0.47-1.13-0.47-1.13l1.61-2.02
			V150l0.75-0.66l-0.95-1.5h-0.23c0,0-0.76-0.05-0.95,0c-0.18,0.05-0.42-0.09-0.66-0.24c-0.23-0.13,0.24-2.07,0.24-2.07v-0.84
			c0,0-0.42-0.42-0.57-0.42c-0.13,0-0.32-0.24-0.56-0.24c-0.23,0-0.46-0.61-0.46-0.61l0.52-2.06v-0.38c0,0-0.47,0.38-0.8,0.43
			c-0.34,0.05-0.71,0.09-0.85,0.09c-0.14,0-0.71-0.99-0.71-0.99l-0.04-1.41h-1.51l-0.65-1.23l0.27-1.32c0,0-0.32-0.14-0.65,0
			c-0.33,0.14-1.46,0.19-1.46,0.19l-0.24-0.66l1.84-1.5c0,0,0.84-0.09,0.99,0c0.14,0.09,1.83-0.75,1.83-0.75l1.75-0.56l0.98-1.88
			l0.61-1.03c0,0,0.89-0.05,1.03,0c0.15,0.04,1.23,0.33,1.23,0.33l0.55-0.85l0.34-0.8v-1.55l-0.76-0.94l2.03-2.02
			C105.16,124.52,105.96,123.86,105.53,123.72z M0.81,190.47c0.22-1.71,0.49-3.42,0.83-5.1c0.27-1.38,0.6-2.75,0.95-4.1
			c0.77-0.07,1.35-0.11,1.35-0.11l2.73-0.97L0.81,190.47z M7.18,185.61c-0.59,0.49-1.15,1.02-1.71,1.53l3.17-6l0.39,0.39l5.17-1.6
			h1.59C12.66,181.43,9.8,183.41,7.18,185.61z M43.01,185.55l-6.02-0.81l-0.24-0.03l-0.34,0.08l-6.49,1.63l0.61-1.03l0.04-0.05
			l0.16-0.19l0.33-0.4l0.7-0.82l1.42-1.63l2.85-3.25l1.58-1.79c0.61-0.09,1.24-0.14,1.68-0.23c0.84-0.2,3.28-1.79,3.28-1.79h0.76
			c0,0,0.94-0.1,1.31,0.75c0.38,0.84,3.48-0.28,3.48-0.28h0.41L43.01,185.55z"/>
		<path class="st6" d="M30.5,185.41l-0.01,0.01C30.48,185.45,30.5,185.41,30.5,185.41L30.5,185.41z"/>
	</g>
</g>
</svg>
