<svg version="1.1" id="Layer_1" xmlns="http://www.w3.org/2000/svg" xmlns:xlink="http://www.w3.org/1999/xlink" x="0" y="0" viewBox="0 0 4000 1500" style="enable-background:new 0 0 4000 1500" xml:space="preserve"><style>.st7{fill:#11181c}</style><defs><path id="SVGID_1_" d="M0 0h4000v1500H0z"/></defs><clipPath id="SVGID_00000149343754310327380580000009351963053422395545_"><use xlink:href="#SVGID_1_" style="overflow:visible"/></clipPath><linearGradient id="SVGID_00000043441846655688243520000006746525139439240071_" gradientUnits="userSpaceOnUse" x1="2000" y1="1500" x2="2000" y2="0"><stop offset="0" style="stop-color:#ffde6a"/><stop offset=".182" style="stop-color:#fadb6e"/><stop offset=".404" style="stop-color:#ebd47b"/><stop offset=".646" style="stop-color:#d2c890"/><stop offset=".901" style="stop-color:#b0b7ad"/><stop offset="1" style="stop-color:#a1afba"/></linearGradient><path style="clip-path:url(#SVGID_00000149343754310327380580000009351963053422395545_);fill:#28404b" d="M-93.5 690.5s107-38 165-74 147-202 147-202 65 65 135 83 153-89 193-37 45 71 73 71 24-83 89 21 301 322 322 334 282-128 386-153 200-105 218-83 63 22 85 22 126 34 218 61 161 38 269 16 138-40 175-25 242 10 337-21 444-160 444-160 67 21 95 21 141-30 141-30l117-6 64 15 126-74h39l89-70 62 110s61-36 64-27 178 267 178 267v1108h-4231v-1167z"/><path style="clip-path:url(#SVGID_00000149343754310327380580000009351963053422395545_);fill:#1d282f" d="m-81.5 840.5 159-13s187-23 213-31 122-55 122-55 3 30 74 63 131 21 149 27 152-19 171-23 34-1 60 15 84-4 93-4 47 29 92 45 161-17 188-25 229-98 229-98 23 11 41 20 81-12 114-12 7-20 74 27 107 39 133 39 50 46 134 83 232-11 309-24 134-24 178-15 63 8 155-12 73-72 124-37 89-55 164-61 99-20 169-8 158-11 219-25 48-28 120 25 80 57 166 57 90-18 147 39 27 56 94 75 91 25 220 119v753h-4111v-944z"/></svg>