<svg version="1.1" id="Layer_1" xmlns="http://www.w3.org/2000/svg" xmlns:xlink="http://www.w3.org/1999/xlink" x="0" y="0" viewBox="0 0 4000 1500" style="enable-background:new 0 0 4000 1500" xml:space="preserve"><style>.st7{fill:#11181c}</style><defs><path id="SVGID_1_" d="M0 0h4000v1500H0z"/></defs><clipPath id="SVGID_00000129185628635976137010000010250268900632911519_"><use xlink:href="#SVGID_1_" style="overflow:visible"/></clipPath><linearGradient id="SVGID_00000068638230588778150060000008816720371047578754_" gradientUnits="userSpaceOnUse" x1="2000" y1="1500" x2="2000" y2="0"><stop offset="0" style="stop-color:#ffde6a"/><stop offset=".182" style="stop-color:#fadb6e"/><stop offset=".404" style="stop-color:#ebd47b"/><stop offset=".646" style="stop-color:#d2c890"/><stop offset=".901" style="stop-color:#b0b7ad"/><stop offset="1" style="stop-color:#a1afba"/></linearGradient><path style="clip-path:url(#SVGID_00000129185628635976137010000010250268900632911519_);fill:url(#SVGID_00000068638230588778150060000008816720371047578754_)" d="M0 0h4000v1500H0z"/><path style="clip-path:url(#SVGID_00000129185628635976137010000010250268900632911519_);fill:#6b8693" d="m-93 458 142-82 53-21 51-34 33 45 37-21 51 23 96-33 196 65s54-11 77 0 215 90 215 90l159 59h86l133 58 367-45 86 36 135-46 33 14 55-35h98l163-88 15 37 12 4 71 31 109-66 69 25 135 41 150 16 365-6 174-74 55 13 178-64h86l174-79 22 29h24s10 17 19 23 35 20 35 20l37 19 23-12 26 7 93 34v2069H-93V458z"/><path style="clip-path:url(#SVGID_00000129185628635976137010000010250268900632911519_);fill:#2d4b5d" d="M-41.5 436.5s167-12 183 0 166 0 178 0 12-28 107 21 160 83 178 89 166 0 166 0l159 76h80s37 26 101 56 45 39 125 39 224-16 242-14 117-2 166 14 269-30 269-30l61 16 178-53 52 3s191-78 203-79 211-141 220-146 156-124 156-124 153 37 181 40 169-83 169-83h104l141-83s126 80 135 83 76 12 76 12 55 56 83 77 45 15 67 49 65 266 65 266l407 579v748h-4252v-1556z"/></svg>