<?xml version="1.0" encoding="utf-8"?>
<!-- Generator: Adobe Illustrator 26.4.1, SVG Export Plug-In . SVG Version: 6.00 Build 0)  -->
<svg version="1.1" xmlns="http://www.w3.org/2000/svg" xmlns:xlink="http://www.w3.org/1999/xlink" x="0px" y="0px"
	 viewBox="0 0 3840 2160" style="enable-background:new 0 0 3840 2160;" xml:space="preserve">
<style type="text/css">
	.st0{display:none;}
	.st1{display:inline;fill:url(#SVGID_1_);}
	.st2{clip-path:url(#SVGID_00000095304257377830193250000017201957178347959187_);}
	.st3{fill:url(#SVGID_00000016793565404988609510000011687857138015884937_);}
	.st4{fill:url(#SVGID_00000170262749468046473800000016527058002323027588_);}
	.st5{fill:url(#SVGID_00000144325746016805912090000017201875578322398114_);}
	.st6{fill:url(#SVGID_00000001639431158091411940000015608657521045460668_);}
	.st7{display:none;clip-path:url(#SVGID_00000095304257377830193250000017201957178347959187_);}
	.st8{display:inline;fill:url(#SVGID_00000091000220731554024220000014542541610859988365_);}
	.st9{display:inline;fill:url(#SVGID_00000139284334652521968900000009126662528829600384_);}
	.st10{display:inline;fill:url(#SVGID_00000126301476848512227700000001833807383277076383_);}
	.st11{display:inline;fill:url(#SVGID_00000163764462296531251410000016545844680412833463_);}
	
		.st12{display:none;clip-path:url(#SVGID_00000095304257377830193250000017201957178347959187_);fill:url(#SVGID_00000171719663754454174490000013719700238640733098_);}
	.st13{display:inline;opacity:0.5;}
	.st14{fill:#FFFFFF;}
</style>
<g id="Base" class="st0">
	<radialGradient id="SVGID_1_" cx="1920" cy="1080" r="1557.6906" gradientUnits="userSpaceOnUse">
		<stop  offset="1.400000e-07" style="stop-color:#202020"/>
		<stop  offset="1" style="stop-color:#131313"/>
	</radialGradient>
	<rect class="st1" width="3840" height="2160"/>
</g>
<g id="Design">
	<g>
		<defs>
			<rect id="SVGID_00000081616871410560420470000013131057976677035186_" width="3840" height="2160"/>
		</defs>
		<clipPath id="SVGID_00000095304507561976283740000007164936343020335249_">
			<use xlink:href="#SVGID_00000081616871410560420470000013131057976677035186_"  style="overflow:visible;"/>
		</clipPath>
		<g style="clip-path:url(#SVGID_00000095304507561976283740000007164936343020335249_);">
			
				<radialGradient id="SVGID_00000010274921947804343130000002453982547416967861_" cx="25.3186" cy="3312.6604" r="1551.5336" gradientTransform="matrix(-1.499 0 0 -1 2505.3147 3421.7659)" gradientUnits="userSpaceOnUse">
				<stop  offset="0" style="stop-color:#363636"/>
				<stop  offset="0.2038" style="stop-color:#2E2E2E"/>
				<stop  offset="0.5" style="stop-color:#1A1A1A"/>
				<stop  offset="1" style="stop-color:#020202"/>
			</radialGradient>
			<polygon style="fill:url(#SVGID_00000010274921947804343130000002453982547416967861_);" points="-69.02,-827.2 3909.02,1826.6 
				-69.02,1826.6 			"/>
			
				<radialGradient id="SVGID_00000117660042767821182500000009503201148153504682_" cx="390.4702" cy="499.7027" r="1326.8993" gradientTransform="matrix(-1.499 0 0 1 2505.3147 0)" gradientUnits="userSpaceOnUse">
				<stop  offset="0" style="stop-color:#363636"/>
				<stop  offset="0.2204" style="stop-color:#2E2E2E"/>
				<stop  offset="0.5408" style="stop-color:#1A1A1A"/>
				<stop  offset="1" style="stop-color:#020202"/>
			</radialGradient>
			<path style="fill:url(#SVGID_00000117660042767821182500000009503201148153504682_);" d="M-63.81,1823.13V-818.82
				l3960.27,2641.95H-63.81 M-69.02,1826.6h3978.04L-69.02-827.2V1826.6L-69.02,1826.6z"/>
		</g>
		<g style="clip-path:url(#SVGID_00000095304507561976283740000007164936343020335249_);">
			
				<radialGradient id="SVGID_00000039109701796735143780000005137899885603033008_" cx="1768.9104" cy="2729.5115" r="1551.5336" gradientTransform="matrix(1.499 0 0 -1 -1185.6492 3421.7659)" gradientUnits="userSpaceOnUse">
				<stop  offset="0" style="stop-color:#363636"/>
				<stop  offset="0.2038" style="stop-color:#2E2E2E"/>
				<stop  offset="0.5" style="stop-color:#1A1A1A"/>
				<stop  offset="1" style="stop-color:#020202"/>
			</radialGradient>
			<polygon style="fill:url(#SVGID_00000039109701796735143780000005137899885603033008_);" points="4002.33,-244.05 24.29,2409.75 
				4002.33,2409.75 			"/>
			
				<radialGradient id="SVGID_00000142137966067643745800000003835451524856168111_" cx="2134.062" cy="1082.8517" r="1326.8993" gradientTransform="matrix(1.499 0 0 1 -1185.6492 0)" gradientUnits="userSpaceOnUse">
				<stop  offset="0" style="stop-color:#363636"/>
				<stop  offset="0.2204" style="stop-color:#2E2E2E"/>
				<stop  offset="0.5408" style="stop-color:#1A1A1A"/>
				<stop  offset="1" style="stop-color:#020202"/>
			</radialGradient>
			<path style="fill:url(#SVGID_00000142137966067643745800000003835451524856168111_);" d="M3997.12,2406.28H36.85L3997.12-235.67
				V2406.28 M4002.33,2409.75v-2653.8L24.29,2409.75H4002.33L4002.33,2409.75z"/>
		</g>
		<g style="display:none;clip-path:url(#SVGID_00000095304507561976283740000007164936343020335249_);">
			
				<radialGradient id="SVGID_00000151542173834057096810000008689580439604300203_" cx="2193.4575" cy="2093.1152" r="1551.5336" gradientTransform="matrix(1.499 0 0 -1 -1185.6492 3421.7659)" gradientUnits="userSpaceOnUse">
				<stop  offset="0" style="stop-color:#363636"/>
				<stop  offset="0.2038" style="stop-color:#2E2E2E"/>
				<stop  offset="0.5" style="stop-color:#1A1A1A"/>
				<stop  offset="1" style="stop-color:#020202"/>
			</radialGradient>
			<polygon style="display:inline;fill:url(#SVGID_00000151542173834057096810000008689580439604300203_);" points="4638.73,392.35 
				660.69,3046.15 4638.73,3046.15 			"/>
			
				<radialGradient id="SVGID_00000160912743651535736780000017187766529833078943_" cx="2558.6091" cy="1719.2478" r="1326.8993" gradientTransform="matrix(1.499 0 0 1 -1185.6492 0)" gradientUnits="userSpaceOnUse">
				<stop  offset="0" style="stop-color:#363636"/>
				<stop  offset="0.2204" style="stop-color:#2E2E2E"/>
				<stop  offset="0.5408" style="stop-color:#1A1A1A"/>
				<stop  offset="1" style="stop-color:#020202"/>
			</radialGradient>
			<path style="display:inline;fill:url(#SVGID_00000160912743651535736780000017187766529833078943_);" d="M4633.52,3042.68H673.25
				L4633.52,400.73V3042.68 M4638.73,3046.15V392.35L660.69,3046.15H4638.73L4638.73,3046.15z"/>
		</g>
		<g style="display:none;clip-path:url(#SVGID_00000095304507561976283740000007164936343020335249_);">
			
				<radialGradient id="SVGID_00000163773903579203601090000016904347325506244012_" cx="449.8657" cy="2676.2644" r="1551.5336" gradientTransform="matrix(-1.499 0 0 -1 2505.3147 3421.7659)" gradientUnits="userSpaceOnUse">
				<stop  offset="0" style="stop-color:#363636"/>
				<stop  offset="0.2038" style="stop-color:#2E2E2E"/>
				<stop  offset="0.5" style="stop-color:#1A1A1A"/>
				<stop  offset="1" style="stop-color:#020202"/>
			</radialGradient>
			<polygon style="display:inline;fill:url(#SVGID_00000163773903579203601090000016904347325506244012_);" points="-705.42,-190.8 
				3272.62,2463 -705.42,2463 			"/>
			
				<radialGradient id="SVGID_00000127739436897838041350000012640229059473215922_" cx="815.0173" cy="1136.0988" r="1326.8993" gradientTransform="matrix(-1.499 0 0 1 2505.3147 0)" gradientUnits="userSpaceOnUse">
				<stop  offset="0" style="stop-color:#363636"/>
				<stop  offset="0.2204" style="stop-color:#2E2E2E"/>
				<stop  offset="0.5408" style="stop-color:#1A1A1A"/>
				<stop  offset="1" style="stop-color:#020202"/>
			</radialGradient>
			<path style="display:inline;fill:url(#SVGID_00000127739436897838041350000012640229059473215922_);" d="M-700.21,2459.53
				V-182.42l3960.27,2641.95H-700.21 M-705.42,2463h3978.04L-705.42-190.8V2463L-705.42,2463z"/>
		</g>
		
			<radialGradient id="SVGID_00000116206362679981140950000013256761430584900241_" cx="1920" cy="1080" r="2688.9321" gradientUnits="userSpaceOnUse">
			<stop  offset="1.400000e-07" style="stop-color:#202020"/>
			<stop  offset="1" style="stop-color:#131313"/>
		</radialGradient>
		
			<rect style="display:none;clip-path:url(#SVGID_00000095304507561976283740000007164936343020335249_);fill:url(#SVGID_00000116206362679981140950000013256761430584900241_);" width="3840" height="2160"/>
	</g>
</g>
<g id="Text" class="st0">
	<g class="st13">
		<g>
			<path class="st14" d="M375.28,1791.41H358.8l-6.55-17.04h-29.99l-6.19,17.04H300l29.22-75.02h16.02L375.28,1791.41z
				 M347.39,1761.72l-10.34-27.84l-10.13,27.84H347.39z"/>
			<path class="st14" d="M414.81,1716.38h29.99c5.94,0,10.36,0.25,13.28,0.74c2.92,0.49,5.53,1.53,7.83,3.1
				c2.3,1.57,4.22,3.66,5.76,6.27c1.54,2.61,2.3,5.54,2.3,8.78c0,3.51-0.95,6.74-2.84,9.67c-1.89,2.93-4.46,5.13-7.7,6.6
				c4.57,1.33,8.09,3.6,10.54,6.81c2.46,3.21,3.68,6.98,3.68,11.31c0,3.41-0.79,6.73-2.38,9.95c-1.59,3.22-3.75,5.8-6.5,7.73
				c-2.75,1.93-6.13,3.11-10.16,3.56c-2.53,0.27-8.61,0.44-18.27,0.51h-25.54V1716.38z M429.95,1728.87v17.35h9.93
				c5.9,0,9.57-0.09,11-0.26c2.59-0.31,4.63-1.2,6.12-2.69c1.48-1.48,2.23-3.44,2.23-5.86c0-2.32-0.64-4.2-1.92-5.65
				c-1.28-1.45-3.18-2.33-5.71-2.64c-1.5-0.17-5.82-0.26-12.95-0.26H429.95z M429.95,1758.7v20.06h14.02
				c5.46,0,8.92-0.15,10.39-0.46c2.25-0.41,4.08-1.41,5.5-2.99c1.42-1.59,2.12-3.71,2.12-6.37c0-2.25-0.55-4.16-1.64-5.73
				c-1.09-1.57-2.67-2.71-4.73-3.43c-2.06-0.72-6.54-1.07-13.43-1.07H429.95z"/>
			<path class="st14" d="M518.05,1766.99l14.74-1.43c0.89,4.95,2.69,8.58,5.4,10.9c2.71,2.32,6.37,3.48,10.98,3.48
				c4.88,0,8.55-1.03,11.03-3.1c2.47-2.06,3.71-4.48,3.71-7.24c0-1.77-0.52-3.28-1.56-4.53c-1.04-1.24-2.86-2.33-5.45-3.25
				c-1.77-0.61-5.82-1.71-12.13-3.28c-8.12-2.01-13.82-4.49-17.09-7.42c-4.61-4.13-6.91-9.16-6.91-15.1c0-3.82,1.08-7.39,3.25-10.72
				c2.17-3.33,5.29-5.86,9.36-7.6c4.08-1.74,9-2.61,14.76-2.61c9.42,0,16.5,2.06,21.26,6.19c4.76,4.13,7.26,9.64,7.5,16.53
				l-15.15,0.67c-0.65-3.85-2.04-6.63-4.17-8.32c-2.13-1.69-5.33-2.53-9.6-2.53c-4.4,0-7.85,0.9-10.34,2.71
				c-1.6,1.16-2.41,2.71-2.41,4.66c0,1.77,0.75,3.29,2.25,4.55c1.91,1.6,6.55,3.28,13.92,5.02c7.37,1.74,12.82,3.54,16.35,5.4
				c3.53,1.86,6.29,4.4,8.29,7.63c2,3.22,2.99,7.21,2.99,11.95c0,4.3-1.19,8.32-3.58,12.08c-2.39,3.75-5.77,6.54-10.13,8.37
				c-4.37,1.82-9.81,2.74-16.33,2.74c-9.48,0-16.77-2.19-21.85-6.58C522.07,1781.78,519.04,1775.39,518.05,1766.99z"/>
			<path class="st14" d="M640.12,1791.41v-62.33h-22.26v-12.69h59.62v12.69h-22.21v62.33H640.12z"/>
			<path class="st14" d="M718.75,1791.41v-75.02h31.88c8.02,0,13.84,0.67,17.48,2.02c3.63,1.35,6.54,3.74,8.73,7.19
				c2.18,3.45,3.28,7.39,3.28,11.82c0,5.63-1.65,10.28-4.96,13.94c-3.31,3.67-8.26,5.98-14.84,6.93c3.28,1.91,5.98,4.01,8.11,6.29
				c2.13,2.29,5.01,6.35,8.62,12.18l9.16,14.64h-18.12l-10.95-16.32c-3.89-5.83-6.55-9.51-7.98-11.03
				c-1.43-1.52-2.95-2.56-4.55-3.12c-1.6-0.56-4.15-0.84-7.63-0.84h-3.07v31.32H718.75z M733.9,1748.11h11.21
				c7.27,0,11.8-0.31,13.61-0.92c1.81-0.61,3.22-1.67,4.25-3.17c1.02-1.5,1.54-3.38,1.54-5.63c0-2.52-0.67-4.56-2.02-6.12
				c-1.35-1.55-3.25-2.53-5.71-2.94c-1.23-0.17-4.91-0.26-11.05-0.26H733.9V1748.11z"/>
			<path class="st14" d="M893.48,1791.41H877l-6.55-17.04h-29.99l-6.19,17.04H818.2l29.22-75.02h16.02L893.48,1791.41z
				 M865.59,1761.72l-10.34-27.84l-10.13,27.84H865.59z"/>
			<path class="st14" d="M980.96,1763.82l14.69,4.66c-2.25,8.19-6,14.27-11.23,18.24c-5.24,3.97-11.88,5.96-19.93,5.96
				c-9.96,0-18.15-3.4-24.56-10.21c-6.41-6.81-9.62-16.11-9.62-27.92c0-12.49,3.22-22.18,9.67-29.09
				c6.45-6.91,14.93-10.36,25.43-10.36c9.18,0,16.63,2.71,22.36,8.14c3.41,3.21,5.97,7.81,7.68,13.82l-14.99,3.58
				c-0.89-3.89-2.74-6.96-5.55-9.21c-2.81-2.25-6.24-3.38-10.26-3.38c-5.56,0-10.07,2-13.54,5.99c-3.46,3.99-5.19,10.46-5.19,19.39
				c0,9.48,1.71,16.24,5.12,20.27c3.41,4.03,7.85,6.04,13.31,6.04c4.03,0,7.49-1.28,10.39-3.84
				C977.62,1773.34,979.7,1769.31,980.96,1763.82z"/>
			<path class="st14" d="M1056.97,1791.41v-62.33h-22.26v-12.69h59.62v12.69h-22.21v62.33H1056.97z"/>
		</g>
		<g>
			<path class="st14" d="M301.62,1832.53h10.8c2.14,0,3.73,0.09,4.78,0.27c1.05,0.18,1.99,0.55,2.82,1.11
				c0.83,0.57,1.52,1.32,2.07,2.26c0.55,0.94,0.83,1.99,0.83,3.16c0,1.27-0.34,2.43-1.02,3.48c-0.68,1.06-1.61,1.85-2.77,2.38
				c1.65,0.48,2.91,1.3,3.8,2.45c0.88,1.15,1.33,2.51,1.33,4.07c0,1.23-0.29,2.42-0.86,3.58c-0.57,1.16-1.35,2.09-2.34,2.78
				c-0.99,0.69-2.21,1.12-3.66,1.28c-0.91,0.1-3.1,0.16-6.58,0.18h-9.19V1832.53z M307.08,1837.03v6.25h3.57
				c2.12,0,3.45-0.03,3.96-0.09c0.93-0.11,1.67-0.43,2.2-0.97c0.53-0.53,0.8-1.24,0.8-2.11c0-0.84-0.23-1.51-0.69-2.04
				c-0.46-0.52-1.15-0.84-2.05-0.95c-0.54-0.06-2.09-0.09-4.66-0.09H307.08z M307.08,1847.77v7.22h5.05c1.97,0,3.21-0.06,3.74-0.17
				c0.81-0.15,1.47-0.51,1.98-1.08c0.51-0.57,0.76-1.34,0.76-2.29c0-0.81-0.2-1.5-0.59-2.06s-0.96-0.98-1.7-1.23
				c-0.74-0.26-2.36-0.39-4.84-0.39H307.08z"/>
			<path class="st14" d="M411.69,1859.54h-5.93l-2.36-6.14h-10.8l-2.23,6.14h-5.78l10.52-27.01h5.77L411.69,1859.54z
				 M401.65,1848.85l-3.72-10.02l-3.65,10.02H401.65z"/>
			<path class="st14" d="M490.35,1849.61l5.29,1.68c-0.81,2.95-2.16,5.14-4.04,6.57c-1.89,1.43-4.28,2.15-7.18,2.15
				c-3.59,0-6.53-1.23-8.84-3.68c-2.31-2.45-3.46-5.8-3.46-10.05c0-4.5,1.16-7.99,3.48-10.47c2.32-2.49,5.37-3.73,9.16-3.73
				c3.3,0,5.99,0.98,8.05,2.93c1.23,1.15,2.15,2.81,2.76,4.97l-5.4,1.29c-0.32-1.4-0.99-2.51-2-3.32c-1.01-0.81-2.24-1.22-3.69-1.22
				c-2,0-3.63,0.72-4.87,2.16c-1.25,1.44-1.87,3.76-1.87,6.98c0,3.41,0.61,5.85,1.84,7.3c1.23,1.45,2.82,2.17,4.79,2.17
				c1.45,0,2.7-0.46,3.74-1.38C489.14,1853.04,489.89,1851.59,490.35,1849.61z"/>
			<path class="st14" d="M558.87,1859.54v-27.01h5.45v11.99l11.02-11.99h7.33l-10.17,10.52l10.72,16.49h-7.06l-7.42-12.68
				l-4.42,4.51v8.16H558.87z"/>
			<path class="st14" d="M657.09,1849.61v-4.55h11.75v10.76c-1.14,1.11-2.8,2.08-4.96,2.92c-2.17,0.84-4.36,1.26-6.59,1.26
				c-2.82,0-5.29-0.59-7.39-1.78c-2.1-1.19-3.68-2.88-4.73-5.08c-1.06-2.2-1.58-4.6-1.58-7.19c0-2.81,0.59-5.31,1.77-7.5
				c1.18-2.19,2.9-3.86,5.18-5.03c1.73-0.9,3.89-1.34,6.47-1.34c3.35,0,5.97,0.7,7.86,2.11c1.89,1.41,3.1,3.35,3.64,5.83l-5.42,1.01
				c-0.38-1.33-1.1-2.37-2.15-3.14c-1.05-0.77-2.36-1.15-3.93-1.15c-2.38,0-4.28,0.76-5.68,2.27c-1.41,1.51-2.11,3.75-2.11,6.72
				c0,3.21,0.71,5.61,2.14,7.21c1.42,1.6,3.29,2.4,5.6,2.4c1.14,0,2.29-0.22,3.44-0.67c1.15-0.45,2.13-0.99,2.96-1.63v-3.43H657.09z
				"/>
			<path class="st14" d="M732.37,1859.54v-27.01h11.48c2.89,0,4.98,0.24,6.29,0.73c1.31,0.49,2.36,1.35,3.14,2.59
				c0.79,1.24,1.18,2.66,1.18,4.26c0,2.03-0.6,3.7-1.79,5.02c-1.19,1.32-2.97,2.15-5.34,2.5c1.18,0.69,2.15,1.44,2.92,2.27
				s1.8,2.28,3.1,4.38l3.3,5.27h-6.52l-3.94-5.88c-1.4-2.1-2.36-3.42-2.87-3.97c-0.52-0.55-1.06-0.92-1.64-1.12
				c-0.58-0.2-1.49-0.3-2.74-0.3h-1.11v11.28H732.37z M737.83,1843.95h4.03c2.62,0,4.25-0.11,4.9-0.33c0.65-0.22,1.16-0.6,1.53-1.14
				c0.37-0.54,0.55-1.22,0.55-2.03c0-0.91-0.24-1.64-0.73-2.2c-0.49-0.56-1.17-0.91-2.05-1.06c-0.44-0.06-1.77-0.09-3.98-0.09h-4.26
				V1843.95z"/>
			<path class="st14" d="M816.98,1846.2c0-2.75,0.41-5.06,1.23-6.93c0.61-1.38,1.45-2.61,2.51-3.7c1.06-1.09,2.23-1.9,3.49-2.43
				c1.68-0.71,3.62-1.07,5.82-1.07c3.98,0,7.16,1.23,9.55,3.7c2.39,2.47,3.58,5.9,3.58,10.3c0,4.36-1.19,7.77-3.56,10.23
				c-2.37,2.46-5.54,3.69-9.51,3.69c-4.02,0-7.21-1.23-9.58-3.68C818.17,1853.87,816.98,1850.5,816.98,1846.2z M822.6,1846.02
				c0,3.06,0.71,5.38,2.12,6.95c1.41,1.58,3.21,2.37,5.38,2.37c2.17,0,3.96-0.78,5.35-2.35c1.39-1.57,2.09-3.92,2.09-7.05
				c0-3.1-0.68-5.4-2.04-6.93c-1.36-1.52-3.16-2.28-5.41-2.28c-2.25,0-4.06,0.77-5.43,2.31S822.6,1842.91,822.6,1846.02z"/>
			<path class="st14" d="M905.88,1832.53h5.45v14.63c0,2.32,0.07,3.83,0.2,4.51c0.23,1.11,0.79,1.99,1.67,2.66
				c0.88,0.67,2.08,1,3.6,1c1.55,0,2.71-0.32,3.5-0.95c0.79-0.63,1.26-1.41,1.42-2.33c0.16-0.92,0.24-2.45,0.24-4.59v-14.94h5.45
				v14.19c0,3.24-0.15,5.53-0.44,6.87c-0.29,1.34-0.84,2.47-1.63,3.39c-0.79,0.92-1.85,1.65-3.18,2.2c-1.33,0.55-3.06,0.82-5.2,0.82
				c-2.58,0-4.54-0.3-5.87-0.89c-1.33-0.6-2.39-1.37-3.16-2.32s-1.28-1.95-1.53-2.99c-0.36-1.55-0.53-3.83-0.53-6.85V1832.53z"/>
			<path class="st14" d="M991.7,1859.54v-27.01h5.31l11.05,18.04v-18.04h5.07v27.01h-5.47l-10.89-17.61v17.61H991.7z"/>
			<path class="st14" d="M1077.36,1832.53h9.97c2.25,0,3.96,0.17,5.14,0.52c1.58,0.47,2.94,1.3,4.07,2.49
				c1.13,1.19,1.99,2.65,2.58,4.38c0.59,1.73,0.88,3.85,0.88,6.38c0,2.22-0.28,4.14-0.83,5.75c-0.68,1.97-1.64,3.56-2.89,4.77
				c-0.95,0.92-2.22,1.64-3.83,2.16c-1.2,0.38-2.81,0.57-4.83,0.57h-10.26V1832.53z M1082.81,1837.1v17.89h4.07
				c1.52,0,2.62-0.09,3.3-0.26c0.88-0.22,1.62-0.6,2.2-1.12c0.58-0.53,1.06-1.4,1.43-2.61c0.37-1.21,0.55-2.86,0.55-4.95
				c0-2.09-0.18-3.69-0.55-4.81c-0.37-1.12-0.88-1.99-1.55-2.62c-0.66-0.63-1.5-1.05-2.52-1.27c-0.76-0.17-2.25-0.26-4.48-0.26
				H1082.81z"/>
		</g>
	</g>
</g>
</svg>
