<svg width="18" height="18" fill="none" xmlns="http://www.w3.org/2000/svg"><path fill-rule="evenodd" clip-rule="evenodd" d="M2.803 1.405a1.01 1.01 0 0 0-1.42 0l-.089.089a.99.99 0 0 0 0 1.408L7.445 9l-6.15 6.1a.99.99 0 0 0 0 1.408l.088.088a1.01 1.01 0 0 0 1.42 0l6.151-6.098 6.013 5.962a1.01 1.01 0 0 0 1.42 0l.09-.089a.99.99 0 0 0 0-1.408L10.463 9l6.014-5.962a.99.99 0 0 0 0-1.408l-.089-.088a1.01 1.01 0 0 0-1.42 0L8.954 7.504l-6.15-6.099Z" fill="#5B1A0D"/><path d="m1.383 1.405.176.178-.176-.178Zm1.42 0 .177-.177-.177.177Zm-1.509.089.176.177-.176-.177Zm0 1.408-.176.177.176-.177ZM7.445 9l.176.178.18-.178-.18-.177L7.445 9Zm-6.15 6.1.175.177-.176-.177Zm0 1.408-.177.177.176-.177Zm.088.088.176-.178-.176.178Zm1.42 0 .176.177-.176-.177Zm6.151-6.098.176-.178-.176-.175-.176.175.176.177Zm6.013 5.962-.176.177.176-.177Zm1.42 0 .177.177-.176-.177Zm.09-.089-.176-.177.176.177Zm0-1.408.176-.177-.176.177ZM10.463 9l-.176-.178-.179.178.18.177.175-.177Zm6.014-5.962.176.177-.176-.177Zm0-1.408-.176.177.176-.177Zm-.089-.088.176-.178-.176.178Zm-1.42 0 .176.177-.176-.177ZM8.954 7.504l-.176.177.176.175.176-.175-.176-.177ZM1.56 1.583a.76.76 0 0 1 1.068 0l.353-.355a1.26 1.26 0 0 0-1.773 0l.352.355Zm-.089.088.09-.088-.353-.355-.089.088.352.355Zm0 1.053a.74.74 0 0 1 0-1.053l-.352-.355a1.24 1.24 0 0 0 0 1.763l.352-.355Zm6.151 6.099-6.15-6.099-.353.355L7.27 9.178l.352-.355Zm-6.15 6.453 6.15-6.098-.352-.355-6.15 6.098.351.355Zm0 1.053a.74.74 0 0 1 0-1.053l-.353-.355a1.24 1.24 0 0 0 0 1.763l.352-.355Zm.088.088-.089-.088-.352.355.09.088.351-.355Zm1.068 0a.76.76 0 0 1-1.068 0l-.352.355a1.26 1.26 0 0 0 1.772 0l-.352-.355Zm6.15-6.098-6.15 6.098.352.355 6.151-6.098-.352-.355Zm6.366 5.962L9.13 10.32l-.352.355 6.013 5.962.352-.355Zm1.069 0a.76.76 0 0 1-1.069 0l-.352.355a1.26 1.26 0 0 0 1.773 0l-.352-.355Zm.089-.088-.09.088.353.355.089-.088-.352-.355Zm0-1.053a.74.74 0 0 1 0 1.053l.352.355a1.24 1.24 0 0 0 0-1.763l-.352.355Zm-6.014-5.963 6.014 5.963.352-.355-6.014-5.963-.352.355Zm6.014-6.317-6.014 5.962.352.355 6.014-5.962-.352-.355Zm0-1.053a.74.74 0 0 1 0 1.053l.352.355a1.24 1.24 0 0 0 0-1.763l-.352.355Zm-.09-.088.09.088.352-.355-.089-.088-.352.355Zm-1.067 0a.76.76 0 0 1 1.068 0l.352-.355a1.26 1.26 0 0 0-1.772 0l.352.355ZM9.13 7.681l6.014-5.962-.352-.355-6.014 5.962.352.355ZM2.627 1.583 8.778 7.68l.352-.355-6.15-6.098-.353.355Z" fill="#5B1A0D"/></svg>