<svg width="70" height="45" fill="none" xmlns="http://www.w3.org/2000/svg"><path d="M65.333 0H3.97A3.96 3.96 0 0 0 0 3.97v13.236c0 .728.596 1.323 1.324 1.323 2.2 0 3.97 1.77 3.97 3.971 0 2.2-1.77 3.97-3.97 3.97-.728 0-1.324.596-1.324 1.324V41.03C0 43.23 1.77 45 3.97 45h61.363c2.2 0 3.97-1.77 3.97-3.97V27.793c0-.728-.595-1.323-1.323-1.323a3.96 3.96 0 0 1-3.97-3.971c0-2.2 1.77-3.97 3.97-3.97.728 0 1.323-.596 1.323-1.324V3.97c0-2.2-1.77-3.971-3.97-3.971Zm1.323 16.015a6.624 6.624 0 0 0-5.294 6.485 6.624 6.624 0 0 0 5.294 6.485V41.03c0 .728-.595 1.324-1.323 1.324H3.97a1.327 1.327 0 0 1-1.324-1.324V28.985A6.624 6.624 0 0 0 7.941 22.5a6.624 6.624 0 0 0-5.294-6.485V3.97c0-.728.596-1.324 1.324-1.324h61.362c.728 0 1.323.596 1.323 1.324v12.044Z" fill="#5B1A0D"/><path d="M27.381 18.916h-1.74a3.68 3.68 0 0 0 .171-1.132c0-2.087-1.664-3.784-3.711-3.784a3.67 3.67 0 0 0-2.41.917A3.67 3.67 0 0 0 17.28 14c-2.047 0-3.711 1.697-3.711 3.784 0 .39.057.78.172 1.132H12V33h15.381V18.916Zm-5.28-2.263c.612 0 1.11.507 1.11 1.131 0 .625-.498 1.132-1.11 1.132h-1.11v-1.132c0-.624.498-1.131 1.11-1.131Zm-5.93 1.131c0-.624.497-1.131 1.109-1.131s1.11.507 1.11 1.131v1.132h-1.11c-.612 0-1.11-.507-1.11-1.132Zm-1.588 3.765h3.787v8.779h-3.787v-8.779Zm10.196 8.798h-3.788v-8.778h3.788v8.778Z" fill="#E63000"/><path d="M45.984 32v-2.698H44v-2.445h1.984v-1.966H44v-3.126h1.984V14h5.654c2.282 0 3.944.47 4.985 1.412 1.059.94 1.588 2.235 1.588 3.882 0 .975-.215 1.89-.645 2.748-.43.857-1.15 1.546-2.158 2.067-.992.521-2.348.782-4.067.782h-1.612v1.966h3.82v2.445h-3.82V32h-3.745Zm3.745-10.235h1.24c1.058 0 1.893-.185 2.505-.555.628-.37.942-.966.942-1.79 0-1.53-.992-2.294-2.976-2.294h-1.71v4.639Z" fill="#fff"/></svg>