<svg width="43" height="45" fill="none" xmlns="http://www.w3.org/2000/svg"><path d="M39.322 27.656H28.811v-4.778a2.875 2.875 0 0 0-2.867-2.867h-9.556a2.875 2.875 0 0 0-2.867 2.867v.955H3.009A2.875 2.875 0 0 0 .142 26.7v17.201c0 .526.43.956.956.956h40.136c.525 0 .955-.43.955-.956V30.522a2.875 2.875 0 0 0-2.867-2.866ZM26.9 42.946H15.432v-2.39a.958.958 0 0 0-.956-.955.958.958 0 0 0-.955.955v2.39H2.053V26.7c0-.526.43-.956.956-.956H13.52v16.36c0 .526.43.258.955.258.526 0 .956-.43.956-.955v-18.53c0-.525.43-.955.956-.955h9.556c.525 0 .955.43.955.956v20.068Zm13.379 0H28.811v-13.38h10.511c.526 0 .956.43.956.957v12.423Z" fill="#5B1A0D"/><path d="M41.234 45H1.098a1.105 1.105 0 0 1-1.099-1.099V26.7a3.01 3.01 0 0 1 3.01-3.01h10.369v-.813a3.01 3.01 0 0 1 3.01-3.01h9.556a3.01 3.01 0 0 1 3.01 3.01v4.635h10.369a3.01 3.01 0 0 1 3.01 3.01v13.38c0 .601-.497 1.098-1.1 1.098ZM3.009 23.977A2.728 2.728 0 0 0 .286 26.7v17.201c0 .45.363.812.812.812h40.136a.811.811 0 0 0 .812-.812V30.522c0-1.5-1.223-2.723-2.723-2.723H28.668v-4.921a2.73 2.73 0 0 0-2.724-2.724h-9.556a2.728 2.728 0 0 0-2.724 2.724v1.099H3.01Zm37.413 19.112H28.668V29.424h10.655c.602 0 1.099.496 1.099 1.098V43.09Zm-11.468-.287h11.18v-12.28a.812.812 0 0 0-.811-.812H28.954v13.092Zm-1.911.287H15.289v-.946c-.2.22-.487.363-.812.363-.134 0-.277.019-.392.038-.153.029-.296.048-.42.02v.525H1.91V26.7c0-.602.497-1.099 1.1-1.099h10.654v14.22c.201-.22.488-.364.813-.364.325 0 .611.144.812.364V22.878c0-.602.497-1.1 1.099-1.1h9.556c.602 0 1.099.498 1.099 1.1v20.21Zm-11.467-.287h11.18V22.878a.812.812 0 0 0-.812-.813h-9.556a.812.812 0 0 0-.812.813v19.924Zm-13.38 0h11.182V25.888H3.009a.812.812 0 0 0-.812.812v16.102Zm11.468-2.246v1.549c0 .124.029.152.039.162.038.038.2.01.344-.01a3.02 3.02 0 0 1 .44-.038.811.811 0 0 0 .811-.812v-.85a.812.812 0 0 0-.812-.813.814.814 0 0 0-.822.812Z" fill="#5B1A0D"/><path d="M22.227 35.202h-.105v-6.689a.959.959 0 0 0-.478-.831.95.95 0 0 0-.956 0l-1.06.611a.966.966 0 0 0-.354 1.31.937.937 0 0 0 .927.468v5.131h-.105a.958.958 0 0 0-.956.956c0 .526.43.956.956.956h2.121c.526 0 .956-.43.956-.956a.944.944 0 0 0-.946-.956Z" fill="#E63000"/><path d="M24.606 6.317h.28C27.7 6.317 30 4.42 30 2.08V1.006C29.999.455 29.45 0 28.785 0H13.213c-.677 0-1.214.455-1.214 1.006V2.08c0 2.331 2.288 4.237 5.113 4.237h.28c.385.928 1.272 1.673 2.393 1.983v1.383h-1.377c-.678 0-1.214.455-1.214 1.006v4.305c0 .551.548 1.006 1.214 1.006h5.194c.665 0 1.214-.455 1.214-1.006v-4.305c0-.551-.549-1.006-1.214-1.006h-1.377V8.3c1.12-.32 2.008-1.055 2.381-1.983Zm-2.23 7.67H19.61v-2.292h2.767v2.293ZM27.572 2.08c0 1.228-1.202 2.225-2.685 2.225h-.081V2.012h2.766v.068Zm-13.144 0v-.068h2.767v2.283h-.082c-1.483 0-2.685-.996-2.685-2.215Zm5.195-.068h2.766v3.299c0 .629-.619 1.141-1.377 1.141-.76 0-1.378-.512-1.378-1.141V2.012h-.011Z" fill="#fff"/></svg>