<svg width="30" height="45" fill="none" xmlns="http://www.w3.org/2000/svg"><path d="M25.9 0H3.954A3.961 3.961 0 0 0 0 3.955v37.09A3.961 3.961 0 0 0 3.954 45H25.9a3.961 3.961 0 0 0 3.956-3.955V3.955A3.961 3.961 0 0 0 25.9 0ZM3.954 2.637H25.9c.73 0 1.319.589 1.319 1.318v27.861H2.636V3.956c0-.73.589-1.32 1.318-1.32ZM25.9 42.363H3.954c-.73 0-1.318-.589-1.318-1.318v-6.592h24.583v6.592c0 .73-.598 1.318-1.319 1.318Z" fill="#5A1404"/><path d="M13.604 37.09h2.637v2.637h-2.636V37.09Z" fill="#5A1404"/><path d="M22.727 12.665h-1.775a3.64 3.64 0 0 0 .176-1.125 3.766 3.766 0 0 0-3.762-3.762c-.931 0-1.784.343-2.443.906a3.754 3.754 0 0 0-2.444-.906 3.766 3.766 0 0 0-3.761 3.762c0 .387.061.765.176 1.125H7.118v14.01h15.61v-14.01Zm-5.36-2.25c.614 0 1.124.501 1.124 1.125s-.5 1.125-1.125 1.125h-1.125V11.54c0-.624.51-1.125 1.125-1.125Zm-6.004 1.125c0-.615.501-1.125 1.125-1.125s1.125.501 1.125 1.125v1.125h-1.125c-.624 0-1.125-.51-1.125-1.125Zm-1.608 3.762h3.85v8.736h-3.85v-8.736Zm10.336 8.736h-3.85v-8.736h3.85v8.736Z" fill="#E63000"/></svg>