<svg width="15" height="12" fill="none" xmlns="http://www.w3.org/2000/svg"><path d="M13.252 2.99a6.04 6.04 0 0 0 1.517-1.568 6.41 6.41 0 0 1-1.745.479A3.006 3.006 0 0 0 14.356.228a6.07 6.07 0 0 1-1.92.732 3.02 3.02 0 0 0-2.21-.96 3.027 3.027 0 0 0-3.025 3.028c0 .24.02.47.07.69A8.572 8.572 0 0 1 1.03.55a3.025 3.025 0 0 0 .929 4.046A2.978 2.978 0 0 1 .59 4.225v.035a3.04 3.04 0 0 0 2.426 2.973 3.08 3.08 0 0 1-.793.1c-.194 0-.39-.01-.574-.051a3.055 3.055 0 0 0 2.83 2.108 6.092 6.092 0 0 1-3.755 1.292c-.248 0-.488-.011-.724-.04A8.518 8.518 0 0 0 4.643 12c5.347-.003 8.828-4.459 8.609-9.01Z" fill="#fff"/></svg>