<svg width="177" height="27" fill="none" xmlns="http://www.w3.org/2000/svg"><path d="M141.203 26.194h-3.44c0 .201.066.403.066.605h4.036V2.015h-.595v24.179h-.067Zm7.874-16.119v16.119h-3.573v.605h4.169V10.947c-.199-.269-.398-.605-.596-.873Zm12.506 16.119h-3.441c0 .201.066.403.066.605h4.037V2.015h-.596v24.179h-.066ZM68.418 6.246h2.118c.397 0 .728 0 1.059.067-.397-.403-1.191-.671-2.647-.671h-1.191v5.507l.595-.201V6.246h.066Zm9.992 1.008c0 3.09-1.125 5.306-3.573 7.052l.33.672c2.25-1.545 3.772-3.627 3.772-6.515a6.923 6.923 0 0 0-.727-3.157c.132.672.198 1.276.198 1.948Zm-9.264 9.806c-.397.134-.86.335-1.39.47v8.664H63.92v.605h4.433v-8.732c.331-.134.728-.201 1.059-.336l-.265-.671ZM10.72 5.575c-.464-.269-.927-.336-1.39-.336-3.176 0-3.838 4.164-3.838 7.59 0 2.149.265 4.5 1.191 6.044-.397-1.343-.53-3.022-.53-4.701 0-4.5 1.06-8.463 4.567-8.597Zm23.622.268h-1.986v.605h1.986v-.605Zm10.983 0h-4.632v20.351h-3.771v.605h4.433V6.448h3.97v-.605Zm-25.673 6.985c0 8.53-3.97 13.836-10.322 13.836-.33 0-.728 0-1.059-.067.794.269 1.72.403 2.647.403 6.088 0 9.396-5.239 9.396-12.828 0-3.09-.53-5.776-1.588-7.859.596 1.881.926 4.03.926 6.515ZM33.15 26.194H22.828v.605h10.918v-4.433h-.596v3.828Zm69.94-4.097.53-2.015-.728-18.067h-.662l.86 20.082ZM27.262 2.015h-.596v17.798h.596V2.015Zm142.393 0v24.179h-3.771v.605h4.433V2.015h-.662ZM85.622 12.291l-.596 13.903H74.97l.264.605h10.455l.53-12.627a64 64 0 0 0-.596-1.881Zm10.984 0c-1.059 3.291-1.985 6.515-2.382 8.463l-.133.738h-3.639c.066.202.066.403.133.605h4.168c.397-1.746 1.125-4.5 2.051-7.388l-.198-2.418Zm16.542-1.746-.397-1.478-1.257 4.97h.728l.926-3.492Zm9.462 12.224v-2.15l-5.029-18.537h-.595l5.624 20.687Zm-7.146-2.821h-5.426l-1.588 6.246h-8.8v.605h9.329l1.588-6.247h5.095l-.198-.604Z" fill="#5A1404"/><path d="M128.697 10.075v16.119h-9.462l.133.605h9.925V10.947c-.199-.269-.397-.605-.596-.873Zm-76.953 9.738h.596v-3.425h7.543v-4.433h-.596v3.829h-7.543v4.03Zm8.933-17.731v3.761h-8.933v3.56h.596V6.448h8.932V2.082h-.595Zm0 24.112h-12.77v.605h13.365v-4.366h-.595v3.761Z" fill="#5A1404"/><path d="M136.042 12.425c-3.441-6.112-6.021-9.268-8.602-12.022h-3.904v24.784h4.169v-18c2.845 3.492 7.94 11.82 8.535 18.067h4.037V.47h-4.169v11.955h-.066Zm20.38 0C152.981 6.313 150.4 3.157 147.82.403h-3.904v24.784h4.169v-18c2.845 3.492 7.94 11.82 8.535 18.067h4.037V.47h-4.169v11.955h-.066ZM77.417 7.254c0-3.963-2.78-6.784-8.073-6.784h-6.947v24.784h4.433V16.79a45.771 45.771 0 0 0 2.845-1.007l3.904 9.403h5.161L73.579 13.97c2.58-1.612 3.838-3.56 3.838-6.716ZM66.83 4.634h2.117c2.647 0 4.036 1.008 4.036 2.821 0 3.09-3.507 4.232-6.153 5.037V4.635ZM9.33 0C3.308 0 0 5.306 0 12.828c0 7.59 3.308 12.829 9.33 12.829 6.087 0 9.396-5.24 9.396-12.829C18.726 5.306 15.417 0 9.33 0Zm0 21.425c-3.64 0-4.764-4.03-4.764-8.597 0-4.567 1.124-8.597 4.764-8.597 3.639 0 4.83 4.03 4.83 8.597 0 4.567-1.191 8.597-4.83 8.597ZM25.674.47H21.24v24.784h10.918V20.82h-6.485V.47Zm143.055 0h-4.433v24.784h4.433V.47ZM30.768.47v4.433h4.566v20.35h4.433V4.904h4.5V.47h-13.5Zm65.11 0c-1.654 4.097-3.11 7.724-4.83 14.306-1.72-6.65-3.11-10.209-4.83-14.306h-5.294l-1.059 24.784h4.169l.794-17.933c1.72 4.5 3.44 10.276 4.036 13.298h4.301c.596-2.955 2.316-8.73 4.036-13.298l.794 17.933h4.169L101.105.47h-5.227Zm13.366 18.538h6.947l1.588 6.246h4.434L115.596.47h-5.624l-6.683 24.784h4.433l1.522-6.247Zm3.507-13.836 2.514 9.873h-4.963l2.449-9.873ZM46.318.47v24.784h13.366V20.82H50.75v-6.045h7.543V10.41H50.75V4.903h8.933V.47H46.318Zm128.763 22.366c-1.059 0-1.919.873-1.919 1.88 0 1.075.86 1.881 1.919 1.881 1.059 0 1.853-.873 1.853-1.948.066-.94-.794-1.813-1.853-1.813Zm0 3.492c-.86 0-1.522-.671-1.522-1.612 0-.873.662-1.544 1.522-1.544s1.522.671 1.522 1.544c0 .94-.662 1.612-1.522 1.612Z" fill="#5A1404"/><path d="M176.008 24.246c0-.47-.265-.671-.794-.671h-.86v2.283h.397v-.94h.33l.596.94h.397l-.596-.94c.331-.067.53-.269.53-.672Zm-1.257-.268h.397c.33 0 .463.067.463.335 0 .336-.199.336-.53.336h-.33v-.671Z" fill="#5A1404"/></svg>