<svg width="13" height="13" fill="none" xmlns="http://www.w3.org/2000/svg"><path d="M6.501 3.161a3.335 3.335 0 0 0-3.336 3.337 3.335 3.335 0 0 0 3.336 3.336 3.335 3.335 0 1 0 0-6.673Zm0 5.503a2.166 2.166 0 1 1 .001-4.333 2.166 2.166 0 0 1 0 4.333Z" fill="#fff"/><path d="M9.18.04c-1.196-.055-4.159-.052-5.355 0-1.053.05-1.98.306-2.73 1.052C-.152 2.344.008 4.027.008 6.498c0 2.529-.14 4.174 1.089 5.405 1.254 1.255 2.963 1.09 5.406 1.09 2.503 0 3.369.002 4.255-.34 1.204-.468 2.113-1.544 2.201-3.477.056-1.195.054-4.158 0-5.354C12.852 1.539 11.625.152 9.18.04Zm1.892 11.036c-.82.82-1.958.746-4.588.746-2.71 0-3.794.04-4.588-.754-.912-.909-.747-2.366-.747-4.578 0-2.993-.307-5.149 2.697-5.301.69-.026.893-.033 2.63-.033l.026.015c2.886 0 5.151-.302 5.286 2.701.03.686.038.892.038 2.626 0 2.676.05 3.768-.754 4.578Z" fill="#fff"/><path d="M9.97 3.809a.78.78 0 1 0 0-1.56.78.78 0 0 0 0 1.56Z" fill="#fff"/></svg>