<svg width="11" height="14" fill="none" xmlns="http://www.w3.org/2000/svg"><path d="M5.459 0C1.894 0 0 2.283 0 4.773 0 5.93.645 7.368 1.678 7.825c.295.132.257-.03.51-.997a.228.228 0 0 0-.055-.226c-1.478-1.71-.29-5.22 3.115-5.22 4.926 0 4.004 6.814.856 6.814-.813 0-1.417-.637-1.224-1.424.231-.94.686-1.948.686-2.626 0-1.706-2.542-1.452-2.542.808 0 .698.246 1.17.246 1.17l-.97 3.918c-.256 1.043.036 2.735.061 2.882.016.081.107.107.155.04.081-.106 1.07-1.515 1.346-2.534l.513-1.876c.271.493 1.059.904 1.894.904 2.488 0 4.288-2.189 4.288-4.903C10.552 1.947 8.326 0 5.46 0Z" fill="#fff"/></svg>