<svg width="74" height="45" fill="none" xmlns="http://www.w3.org/2000/svg"><path d="M67.294.028H10.406c-1.153 0-2.178.897-2.178 2.178v39.463h61.244V2.078c0-1.153-1.025-2.05-2.178-2.05Z" fill="#571D00"/><path d="M72.572 41.54H5a1 1 0 0 0-1 1V44a1 1 0 0 0 1 1h67.572a1 1 0 0 0 1-1v-1.46a1 1 0 0 0-1-1Z" fill="#571D00"/><path d="M66 3H12a1 1 0 0 0-1 1v34a1 1 0 0 0 1 1h54a1 1 0 0 0 1-1V4a1 1 0 0 0-1-1Z" fill="#FFD300"/><path d="M53.328 17.581H22.962v8.072h30.366v-8.072Z" fill="#E30613"/><path d="m45.128 21.04 12.557 5.254-3.844 1.793 3.844 3.332-2.306 2.306-3.716-3.844-1.538 3.844-4.997-12.685Z" fill="#fff" stroke="#571D00" stroke-width=".5" stroke-miterlimit="10"/><path d="M17.65 6H0v28h17.65V6Z" fill="#fff"/><path d="M2.124 9.052h9.421m-9.422 2.92h9.422m-9.422 2.786H9.82m-7.697 2.92h9.422m-9.422 2.919h5.308m-5.308 2.92h9.422m-9.422 2.919H9.82M2.123 31.08h3.052M13.27 9.052h2.256m-2.256 2.92h2.256m-2.256 2.786h2.256m-2.256 2.92h2.256m-2.256 2.919h2.256m-2.256 2.92h2.256m-2.256 2.919h2.256M13.27 31.08h2.256" stroke="#571D00" stroke-width=".5" stroke-miterlimit="10"/></svg>