<svg width="48" height="46" fill="none" xmlns="http://www.w3.org/2000/svg"><mask id="a" style="mask-type:alpha" maskUnits="userSpaceOnUse" x="7" y="0" width="32" height="21"><path fill="#C4C4C4" d="M7 0h32v21H7z"/></mask><g mask="url(#a)"><path d="M38.447 5.608s.068-2.4-2.332-2.951c-2.71-.62-5.284-1.2-6.61-1.52-2.168-.503-3.31 1.655-3.31 1.655l-3.774 16.404s-.184.987.765 1.21l10.306 2.37s.987.184 1.21-.755c.223-.938 3.745-16.413 3.745-16.413Z" fill="#FFCD00" stroke="#5B1A0D" stroke-miterlimit="10"/><path d="M30.85 14.008a3.407 3.407 0 1 0 0-6.813 3.407 3.407 0 0 0 0 6.813Z" fill="#002E6D"/><path d="M36.15 10.689 26.027 8.38l-.486 2.133 10.125 2.308.486-2.132Z" fill="#002E6D"/><path d="M30.85 15.799a5.197 5.197 0 1 0 0-10.394 5.197 5.197 0 0 0 0 10.394Z" stroke="#002E6D" stroke-width=".5" stroke-miterlimit="10"/><path d="M30.205 6.086c.134-.59-.488-1.233-1.39-1.439-.901-.205-1.74.106-1.875.694-.134.59.488 1.233 1.39 1.439.9.205 1.74-.105 1.875-.694Z" fill="#002E6D"/><path d="M30.385 3.934s-.474-2.361-2.932-2.352c-2.778 0-5.42.01-6.784.01-2.226 0-2.855 2.352-2.855 2.361l.02 16.83s.048 1.006 1.025 1.006l10.568-.01s1.006-.038 1.006-1.006-.048-16.839-.048-16.839Z" fill="#FFCD00" stroke="#5B1A0D" stroke-miterlimit="10"/><path d="M24.104 13.912a3.407 3.407 0 1 0 0-6.814 3.407 3.407 0 0 0 0 6.814Z" fill="#00833E"/><path d="m29.288 9.397-10.384.029.006 2.187 10.384-.029-.006-2.187Z" fill="#00833E"/><path d="M24.104 15.702a5.197 5.197 0 1 0 0-10.394 5.197 5.197 0 0 0 0 10.394Z" stroke="#00833E" stroke-width=".5" stroke-miterlimit="10"/><path d="M20.788 7.35c.924-.002 1.673-.494 1.67-1.098 0-.604-.752-1.091-1.676-1.089-.925.003-1.673.494-1.672 1.098.002.604.753 1.092 1.678 1.09Z" fill="#002E6D"/><path d="M21.83 2.666S20.785.498 18.404 1.108c-2.69.687-5.245 1.355-6.57 1.684-2.159.552-2.188 2.99-2.178 2.99l4.19 16.307s.29.958 1.239.716l10.239-2.632s.967-.29.725-1.22c-.251-.928-4.219-16.287-4.219-16.287Z" fill="#FFCD00" stroke="#5B1A0D" stroke-miterlimit="10"/><path d="M17.369 13.989a3.407 3.407 0 1 0 0-6.813 3.407 3.407 0 0 0 0 6.813Z" fill="#5B1A0D"/><path d="m22.116 8.224-10.053 2.6.548 2.118 10.052-2.6-.547-2.118Z" fill="#5B1A0D"/><path d="M17.369 15.78a5.197 5.197 0 1 0 0-10.394 5.197 5.197 0 0 0 0 10.393Z" stroke="#5B1A0D" stroke-width=".5" stroke-miterlimit="10"/><path d="M13.374 8.351c.895-.231 1.498-.893 1.347-1.478-.151-.584-1-.87-1.895-.639-.895.232-1.498.893-1.347 1.478.152.585 1 .87 1.895.64Z" fill="#002E6D"/></g><path d="M20.407 40.46h.074a1.383 1.383 0 0 0 1.311-1.45l-.369-7.388a1.383 1.383 0 0 0-2.761.138l.37 7.388a1.367 1.367 0 0 0 1.375 1.311Zm6.4 0h.074c.73 0 1.348-.573 1.385-1.321l.37-7.388a1.383 1.383 0 0 0-2.761-.139L25.504 39a1.366 1.366 0 0 0 1.302 1.46Zm-14.23-1.183a1.388 1.388 0 0 0 1.366 1.182 1.388 1.388 0 0 0 1.367-1.598l-1.108-7.387a1.388 1.388 0 0 0-2.743.416l1.118 7.387Zm20.556 1.163c.074.01.138.02.203.02a1.38 1.38 0 0 0 1.367-1.183l1.108-7.387a1.393 1.393 0 0 0-1.164-1.58 1.393 1.393 0 0 0-1.579 1.164l-1.108 7.388a1.39 1.39 0 0 0 1.173 1.579Z" fill="#E63000"/><path d="M43.124 19.22h-.61l4.637-10.038a1.384 1.384 0 0 0-2.512-1.164L39.467 19.22H7.812L2.641 8.018A1.384 1.384 0 0 0 .127 9.182L4.764 19.22h-.61A4.162 4.162 0 0 0 0 23.375a4.162 4.162 0 0 0 3.13 4.026l3.51 14.046a5.989 5.989 0 0 0 5.827 4.544h22.347a5.997 5.997 0 0 0 5.827-4.544l3.51-14.046a4.152 4.152 0 0 0 3.13-4.026 4.162 4.162 0 0 0-4.156-4.155Zm-5.18 21.562a3.231 3.231 0 0 1-3.14 2.448H12.466a3.231 3.231 0 0 1-3.14-2.448L6.02 27.531h35.239l-3.315 13.251Zm5.18-16.022H4.154a1.383 1.383 0 0 1-1.385-1.385c0-.766.62-1.385 1.386-1.385h38.97a1.384 1.384 0 1 1-.001 2.77Z" fill="#5B1A0D"/></svg>