<svg width="574" height="384" fill="none" xmlns="http://www.w3.org/2000/svg"><g clip-path="url(#a)"><path d="M68.93 266.731c8.83 6.601 13.415 16.228 7.616 23.694 0 0-4.756 6.327-11.58 15.367L14.89 267.373c2.876-4.278 7.223-9.932 7.223-9.932 7.004-9.922 16.485-8.375 22.368-4.047 4.524 3.295 6.285 8.46 4.948 12.889 5.716-4.404 12.251-5.13 19.503.448Zm-32.273 7.762c.826-1.128 2.069-2.713 2.069-2.713 2.268-3.158 1.144-8.789-1.803-11.061-2.946-2.273-6.981.527-8.215 2.329l-2.468 3.604 10.417 7.841Zm27.33-.771c-4.525-3.295-9.929-1.746-12.435.987 0 0-2.487 3.168-4.119 5.862l15.416 11.989c1.452-1.812 3.094-4.288 3.094-4.288 4.765-6.109 2.567-11.255-1.957-14.55Zm44.974-22.523-6.217 7.921-9.864-5.244-6.236 7.485 6.75 9.095-8.163 8.444-38.858-52.023 10.471-10.731 52.117 35.053Zm-24.511-4.815-23.94-16.637 19.014 24.064 4.926-7.427Zm27.502 3.153-43.015-47.033 8.213-7.353 33.585 36.745 7.158-6.433-28.537-31.507 8.212-7.354 28.537 31.507 5.687-5.058-33.138-36.546 8.212-7.354 42.787 46.825-37.701 33.561Zm21.813-85.944 10.506 14.827 8.489-6.055 6.313 9.115-8.488 6.055 5.847 8.48 13.806-9.567 7.474 10.592-13.806 9.567-10.189 7.223-7.473-10.593-10.516-15.045-6.313-9.115-5.838-8.262-6.323-9.332 10.188-7.223 13.806-9.567 6.313 9.115-13.796 9.785Zm46.273 31.597-31.554-55.186 9.619-5.231 19.638 18.356-6.371-25.278 10.445-6.36 32.779 53.165-9.8 6.113-18.744-32.814 4.459 21.649-5.783 2.877-12.023-9.517 15.634 26.834-8.299 5.392Zm19.345-82.34 16.823 14.111-1.362-20.912 13.106-5.604 3.386 66.699-13.106 5.604-2.975-32.638-28.303-21.249 12.431-6.011Zm132.715 11.172 3.64 17.971-8.681 1.695-1.067-4.322-22.349 4.483 1.066 4.322-8.681 1.695-3.64-17.971 4.559-.857c.019-14.419-2.869-30.239-4.614-39.993-.839-4.113-1.42-7.365-1.507-9.327l27.146-4.914 10.443 48.036 3.685-.818Zm-26.472 5.321 12.595-2.304-8.26-38.302-8.691 1.476c2.098 12.796 4.931 32.332 4.356 39.13Zm26.793-22.812c-2.198-20 3.03-30.5 15.891-31.723 3.049-.354 6.166.82 8.675 3.111 5.019 4.585 7.817 13.418 8.158 26.073.581 18.107-4.248 27.714-14.06 28.584-15.493 1.122-17.308-15.182-18.664-26.045Zm9.337-1.723c1.442 12.825 3.495 14.7 7.855 14.289 5.89-.479 6.548-10.338 6.516-16.017-.186-9.167-2.374-14.095-4.636-15.742-.675-.407-2.898-1.183-3.335-1.164-3.486.373-8.254 1.457-6.4 18.634Zm29.98 29.477-.373-62.9 8.948-.614L390.74 98.71l9.691-28.391 9.006.694 2.528 62.149-11.798.521 1.401-37.636-6.969 20.624-7.229-.117-5.51-15.704.164 33.417-10.288.018Zm57.441-62.397 5.716 25.307 10.995-23.643 14.069 1.344-31.689 60.603-14.07-1.344 13.292-26.147-11.3-37.73 12.987 1.61Zm-147.445 111.16-11.037 2.891L241.769 66.41l4.758-1.302 35.205 117.94Z" fill="#fff"/><path d="M280.873 59.657 208.46 75.529l.675-44.158 48.249-12.838 23.489 41.124Z" fill="#fff"/><path d="m269.77 90.732-4.113 1.056-10.696-43.874 1.729-.514 13.08 43.332Zm-.45 9.632a3.276 3.276 0 0 0 3.132-3.415 3.276 3.276 0 0 0-3.421-3.126 3.277 3.277 0 0 0-3.133 3.415 3.277 3.277 0 0 0 3.422 3.126ZM57.692 116.492c-3.579 3.217-.446 14.657 7.368 23.049 7.348 7.758 14.236 10.075 17.854 7.731 4.69-2.829 2.818-5.586-.52-11.774 2.792-1.216 4.7-2.611 7.463-4.48 7.644 9.492 9.237 20.782 2.725 26.968-6.731 6.196-22.69 6.683-38.09-9.895-15.4-16.577-13.33-34.145-3.341-40.922 0 0 6.303-5.958 16.813-.962l-1.343 9.235c-2.641-.32-5.35-2.167-8.929 1.05Zm37.013-9.501c15.355-9.198 23.795-1.489 26.828 2.746 2.33 3.174 5.944 10.661 4.608 15.089-1.517 5.31-6.359 9.675-10.812 12.93-.845.693-8.061 5.818-8.906 6.51l-37.66-49.672L79.57 86.47l15.136 20.521Zm12.759-43.163-10.388 7.668 38.174 51.398 10.387-7.668-38.173-51.398ZM115.946 122c.113-2.408-1.561-5.611-2.265-6.672-1.169-1.696-4.193-5.713-13.167-.729l10.677 13.728c2.554-1.642 4.861-3.929 4.755-6.327Zm45.255-16.201-11.955 6.864-31.108-54.987c.845-.693 8.527-5.183 9.59-5.885 6.619-3.788 11.188-4.427 16.688-3.796 4.846.66 10.549 5.869 12.679 9.488 2.605 4.473 6.365 15.23-8.277 25.707l12.383 22.609ZM134.848 59.34l9.006 15.55c8.261-6.264 5.665-10.518 4.704-12.442-.704-1.061-2.795-3.809-5.237-4.574-2.442-.766-6.137-.166-8.473 1.466Z" fill="#fff"/><path d="M56.53 109.99c-3.58 3.216-.447 14.656 7.367 23.049 7.348 7.758 14.236 10.075 17.854 7.731 4.69-2.829 2.818-5.586-.52-11.774 2.791-1.216 4.7-2.611 7.463-4.481 7.644 9.493 9.237 20.782 2.725 26.969-6.731 6.196-22.69 6.683-38.09-9.895-15.4-16.577-13.33-34.145-3.341-40.922 0 0 6.303-5.959 16.813-.962l-1.343 9.235c-2.641-.32-5.35-2.167-8.929 1.05Zm37.231-9.511c15.355-9.198 23.795-1.489 26.828 2.746 2.33 3.174 5.944 10.661 4.608 15.089-1.517 5.31-6.359 9.675-10.812 12.93-.845.693-8.061 5.818-8.906 6.511l-37.66-49.673 10.806-8.124 15.136 20.521Zm12.54-43.153-10.387 7.668 38.173 51.398 10.387-7.669-38.173-51.397Zm8.701 58.162c.112-2.408-1.562-5.611-2.265-6.672-1.17-1.696-4.193-5.713-13.167-.729l10.677 13.728c2.554-1.642 4.642-3.919 4.755-6.327Zm45.036-16.191-11.965 6.646-30.88-54.779c.845-.693 8.527-5.183 9.59-5.885 6.619-3.788 11.188-4.427 16.689-3.796 4.845.66 10.548 5.869 12.678 9.488 2.606 4.473 6.365 15.23-8.277 25.707l12.165 22.619Zm-26.353-46.459 9.006 15.55c8.26-6.264 5.664-10.519 4.704-12.442-.704-1.061-2.796-3.809-5.238-4.575-2.441-.766-6.136-.165-8.472 1.467ZM64.548 261.682c8.83 6.6 13.414 16.228 7.615 23.694 0 0-4.755 6.327-11.58 15.367l-50.067-38.201c2.876-4.278 7.223-9.932 7.223-9.932 7.004-9.922 16.485-8.375 22.368-4.047 4.524 3.295 6.285 8.46 4.948 12.888 5.925-4.631 12.251-5.129 19.493.231Zm-32.264 7.98c.825-1.129 2.069-2.713 2.069-2.713 2.268-3.159 1.144-8.789-1.803-11.062-2.946-2.272-6.981.528-8.215 2.33l-2.468 3.604 10.417 7.841Zm27.32-.989c-4.524-3.296-9.928-1.746-12.435.986 0 0-2.486 3.169-4.119 5.862l15.416 11.989c1.452-1.811 3.094-4.287 3.094-4.287 4.765-6.109 2.567-11.255-1.957-14.55Zm44.975-22.524-6.217 7.921-9.864-5.244-6.237 7.485 6.75 9.096-8.163 8.443-38.858-52.022 10.471-10.731 52.118 35.052Zm-24.502-4.596-23.94-16.637L75.15 248.98l4.925-7.427Zm27.503 3.153-43.025-47.251 8.212-7.354 33.585 36.746 7.159-6.434-28.528-31.289 8.212-7.353 28.538 31.507 5.687-5.058-33.148-36.764 8.212-7.354 42.787 46.824-37.691 33.78Zm21.803-86.162 10.506 14.827 8.489-6.055 6.313 9.114-8.488 6.056 5.847 8.479 13.806-9.567 7.474 10.593-13.806 9.567-10.189 7.223-7.473-10.593-10.516-15.046-6.314-9.114-5.838-8.262-6.313-9.114 10.188-7.223 13.806-9.567 6.314 9.114-13.806 9.568Zm46.491 31.587-31.773-55.176 9.62-5.232 19.637 18.357-6.371-25.278 10.445-6.361 32.779 53.166-9.8 6.113-18.744-32.814 4.459 21.649-5.783 2.877-12.023-9.518 15.853 26.825-8.299 5.392Zm19.127-82.331 16.823 14.112L210.462 101l13.105-5.604 3.387 66.698-13.106 5.604-2.975-32.637-28.303-21.25 12.431-6.011Zm132.724 11.391 3.64 17.971-8.681 1.694-1.067-4.322-22.349 4.484 1.066 4.322-8.681 1.694-3.64-17.971 4.559-.857c.019-14.419-2.869-30.238-4.614-39.992-.839-4.114-1.42-7.365-1.507-9.327l27.146-4.914 10.443 48.036 3.685-.818Zm-26.481 5.103 12.594-2.305-8.26-38.302-8.691 1.477c2.108 13.014 4.941 32.55 4.357 39.13Zm27.011-22.822c-2.198-20 3.029-30.5 15.891-31.723 3.049-.353 6.166.82 8.675 3.112 5.019 4.584 7.817 13.417 8.158 26.072.581 18.107-4.248 27.714-14.06 28.585-15.702 1.349-17.527-15.173-18.664-26.046Zm9.118-1.714c1.443 12.826 3.496 14.701 7.856 14.29 5.889-.479 6.548-10.339 6.516-16.017-.187-9.167-2.375-14.095-4.637-15.743-.674-.407-2.898-1.182-3.335-1.163-3.267.363-8.244 1.675-6.4 18.633Zm29.98 29.478-.373-62.9 8.948-.614 10.43 27.939 9.69-28.391 9.006.694 2.32 62.376-11.798.522 1.401-37.637-6.969 20.625-7.23-.118-5.51-15.703.164 33.416-10.079-.209Zm57.451-62.179 5.716 25.307 10.995-23.643 14.069 1.344-31.689 60.603-14.07-1.344 13.292-26.147-11.3-37.73 12.987 1.61ZM277.567 177.989l-11.245 3.119-28.708-119.539 4.758-1.302 35.195 117.722Z" fill="#E30613"/><path d="M276.5 54.826 204.077 70.48l.684-43.94 48.24-13.056L276.5 54.826Z" fill="#E30613"/><path d="m265.387 85.683-4.113 1.055-10.686-43.656 1.729-.513 13.07 43.114Zm-.45 9.632a3.278 3.278 0 0 0 3.133-3.416 3.277 3.277 0 0 0-3.422-3.125 3.277 3.277 0 0 0-3.133 3.415 3.277 3.277 0 0 0 3.422 3.126Z" fill="#E30613"/><path d="M545.448 245.884c-75.993-40.332-163.27-48.707-245.338-23.451-82.297 25.047-149.888 80.683-190.316 156.528L94.05 359.559 69 357.389c46.074-86.798 123.387-150.292 217.555-179.141 94.169-28.849 193.758-19.27 280.736 26.911l-21.842 40.725Z" fill="#fff"/><path d="M544.304 239.817c-75.993-40.332-163.27-48.707-245.338-23.452-82.297 25.047-149.888 80.684-190.316 156.529l-15.744-19.403-25.051-2.169c46.074-86.799 123.387-150.292 217.555-179.141 94.169-28.849 193.758-19.271 280.736 26.911l-21.842 40.725Z" fill="#571D00"/><path d="M113.659 332.694c4.505 2.86 5.372 7.627 2.715 11.895-3.274 5.17-8.1 4.946-12.376 2.295l-8.791-5.728c-3.374-2.035-5.98-6.508-2.496-11.905 3.283-4.951 8.327-4.737 11.929-2.493l9.019 5.936Zm-11.695-2.104c-1.131-.824-4.01-1.571-5.642 1.123-1.642 2.476-.007 4.806 1.343 5.621l9.009 5.718c2.252 1.43 4.665 1.542 6.089-.924 1.233-1.803.918-3.973-1.334-5.403l-9.465-6.135Zm10.072-9.839 2.269-3.159c3.511-4.743 7.672-4.708 11.512-2.038 4.523 3.295 4.935 7.646 2.059 11.924l-5.163 7.001-22.401-16.487 8.665-11.961 3.393 2.471-5.989 8.13 5.655 4.119Zm10.179 7.414 2.268-3.158c1.652-2.258 1.128-4.201-1.124-5.631-2.034-1.439-4.01-1.57-5.652.906l-2.268 3.158 6.776 4.725Zm20.383-19.251-9.314-7.671-4.993 5.9 9.314 7.671-2.904 3.624-21.366-17.843 2.904-3.623 8.868 7.472 5.211-5.91-8.868-7.473 2.915-3.405 21.366 17.842-3.133 3.416Zm10.966-24.297c3.887 3.76 3.881 8.567.539 12.21-4.186 4.336-9.05 3.24-12.482-.104l-7.547-7.312c-2.747-2.719-4.717-7.656-.321-12.22 3.968-4.326 9.06-3.022 12.026-.313l7.785 7.739Zm-11.136-4.314c-.913-.833-3.602-2.244-5.691.033-2.088 2.277-.89 4.627.261 5.887l7.765 7.303c2.053 1.875 4.267 2.433 6.147.384 1.462-1.594 1.584-3.784-.241-5.451l-8.241-8.156Zm26.333 1.458-6.512 6.186-19.069-20.348 6.313-5.74c3.779-3.662 7.74-3.182 10.953.171 1.607 1.677 2.358 3.828 1.382 6.493l.228.208c2.573-1.206 5.253-.014 7.088 1.871 3.441 3.562 3.187 7.724-.383 11.159Zm-16.72-16.738-2.734 2.524 5.047 5.238 2.735-2.524c1.889-1.831 1.812-3.575.205-5.252-1.388-1.686-3.145-1.827-5.253.014Zm8.013 7.947-2.943 2.752 5.513 5.873 2.944-2.752c2.098-2.058 1.355-3.992-.033-5.678-1.606-1.677-3.373-2.036-5.481-.195Zm16.91 1.219-17.588-21.505 3.598-2.781 11.798 14.334.219-.01c-.553-2.597-1.096-4.976-1.648-7.573-.849-4.332-1.915-8.654-2.982-12.976l3.38-2.771 17.588 21.505-3.599 2.781-11.56-13.907c.305 1.952.829 3.895 1.353 5.838l3.029 14.066-3.588 2.999Zm35.079-33.446c1.475 3.649.109 7.423-3.29 9.758-4.672 3.265-9.347 1.505-12.151-2.521l-6.086-8.907c-2.567-3.6-2.57-8.624 2.32-11.899 3.608-2.563 7.579-1.864 10.307.418l-2.904 3.624c-1.141-1.042-3.146-1.827-5.054-.432-2.336 1.632-2.012 4.021-1.07 5.509l6.313 9.114c1.398 1.905 3.412 2.908 5.748 1.275 1.7-1.167 2.278-2.94 1.317-4.864l4.55-1.075Zm13.517-1.253-7.683 4.491-14.188-23.84 7.245-4.472c4.482-2.601 8.254-1.457 10.613 2.371 1.179 1.914 1.503 4.303-.148 6.561l.009.218c2.821-.562 5.083 1.086 6.5 3.426 2.834 4.681 1.706 8.881-2.348 11.245Zm-6.809-10.403-3.409 2.117 4.251 7.021 3.409-2.117c2.564-1.424 2.249-3.595 1.07-5.509-1.189-2.132-2.975-2.927-5.321-1.512Zm-6.114-9.561-2.982 1.88 3.776 6.168 3.2-1.889c2.127-1.405 2.487-3.168 1.307-5.082-1.388-1.686-2.946-2.273-5.301-1.077Zm33.457-.823c2.396 4.7.851 9.356-3.65 11.521-5.347 2.858-9.623.207-11.792-4.285l-4.794-9.4c-1.902-3.411-1.915-8.654 3.65-11.521 5.138-2.63 9.633.011 11.544 3.64l5.042 10.045Zm-9.315-7.671c-.713-1.28-2.548-3.165-5.34-1.949-2.782 1.434-2.448 4.041-1.725 5.538l5.012 9.39c1.199 2.35 3.223 3.572 5.796 2.366 1.928-.959 2.706-3.178 1.517-5.31l-5.26-10.035Zm16.367 13.694-11.197-25.501 4.084-1.71 7.534 16.925.219-.01c.321-2.635.215-5.034.318-7.66l.732-13.139 3.865-1.701 11.198 25.502-4.074 1.928-7.297-16.499-.395 5.916-.903 14.24-4.084 1.709Zm-11.563-33.786 3.219-1.454c.485 1.071 2.063 2.094 3.563 1.372 1.501-.722 1.642-2.475 1.157-3.546l3.001-1.444c.752 2.152.925 6.076-3.158 7.786-3.846 2.136-6.593-.582-7.782-2.714Zm40.576 21.581-8.832-26.48 4.311-1.502 5.816 17.657.218-.01c.54-2.645.653-5.053.974-7.689.681-4.399 1.372-8.58 2.053-12.98l4.103-1.273 8.832 26.48-4.311 1.501-5.797-17.22c-.35 1.981-.482 3.953-.832 5.935l-2.223 14.079-4.312 1.502Zm33.28-9.773-2.924-11.667-7.579 1.864 2.924 11.667-4.331 1.066-6.886-27.003 4.55-1.075 2.904 11.231 7.58-1.864-2.905-11.231 4.331-1.066 6.885 27.003-4.549 1.075Zm12.816-27 4.528 23.175-4.56.857-4.527-23.175-6.079 1.143-.838-4.114 16.489-3.351.838 4.114-5.851 1.351Zm13.209 21.48-3.846-27.574 15.226-2.202.62 4.123-10.876 1.573.983 7.384 9.357-1.287.62 4.123-9.357 1.288.993 7.602 10.876-1.573.63 4.341-15.226 2.202Zm25.887-13.596-4.142.401.91 10.665-4.579.42-2.316-27.641 8.292-.585c5.234-.45 8.627 2.021 9.106 7.898.63 4.342-1.6 8.373-7.271 8.842Zm-1.224-12.835-3.705.382.604 8.712 3.923-.392c2.622-.116 3.856-1.918 3.73-4.753-.562-2.815-1.94-4.283-4.552-3.949Zm21.568 22.421-8.53.159-.569-27.719 4.588-.203.263 10.911 3.933-.173c5.909-.043 8.466 3.339 8.678 8.136.032 5.678-3.11 8.876-8.363 8.889Zm-.331-12.437-3.933.174.148 8.295 3.933-.174c2.84-.126 3.865-1.7 3.968-4.326-.116-2.617-1.276-4.095-4.116-3.969Zm11.493 12.381.961-27.787 15.57.623-.254 4.162-10.963-.39-.328 7.442 9.424.239-.254 4.162-9.423-.239-.318 7.66 10.962.39-.244 4.38-15.133-.642Zm28.056-9.105-3.962-.48-1.067 10.533-4.617-.451 2.5-27.637 8.35.724c5.273.422 8.258 3.567 7.634 9.274-.215 5.034-3.348 8.45-8.838 8.037Zm.96-12.931-3.733-.272-.717 8.551 3.734.272c2.641.32 4.103-1.274 4.424-3.909.103-2.626-1.067-4.322-3.708-4.642Z" fill="#fff"/></g><defs><clipPath id="a"><path fill="#fff" transform="rotate(-2.531 558.275 12.334)" d="M0 0h558.545v358.794H0z"/></clipPath></defs></svg>