<svg width="56" height="51" fill="none" xmlns="http://www.w3.org/2000/svg"><path d="M52.817 6.385C54.181 7 55.242 6.23 55.697 5c.454-1.23.15-2.462-1.213-3.077-1.06-.461-1.97-.77-3.03-.923-3.334-.462-6.364.308-9.091 2.462-1.667 1.23-3.03 2.153-5.303 1.384-2.576-.769-5.152.308-7.425 1.692-2.727 1.693-4.545 4.154-6.363 6.616-1.212 1.692-5.91 6-7.576 7.23-1.515 1.078-3.03 2.154-4.242 3.54C5.999 30.076 2.817 37.461 1.15 45.461c-.303 1.23-.303 2.461.151 3.692.455 1.077 1.212 1.846 2.424 1.692 1.061 0 1.667-.615 1.819-1.692.151-.77 0-1.539.151-2.308 1.364-7.692 4.394-14.615 9.697-20.154.606-.615 1.212-1.846 2.727-1.077-.757 3.385-1.212 6.77-.606 10.154.606 3.231 2.122 5.077 4.849 5.539 2.879.461 5-.923 6.666-3.077.91-1.077 1.364-2.462 1.516-3.846.757-5.077-.152-9.539-3.788-13.385-.758-.77-1.97-1.23-1.212-2.615 2.272-4 4.545-8.154 10.757-8.923-1.666 4.153-3.333 7.384-3.788 11.23-.303 3.385-.151 6.462 1.364 9.539 1.06 2 2.576 3.538 5 3.538s3.94-1.384 5-3.538c1.364-2.616 1.97-5.539 1.97-8.616-.152-3.538-.606-7.23-2.122-10.461-.909-1.846-.454-2.923 1.061-3.846 2.727-1.693 5.303-2.154 8.03-.923ZM26.151 33.769c-.303 1.385-1.061 2.923-2.728 2.77-1.515-.154-1.515-1.847-1.515-2.924-.151-3.077.152-6.153 1.667-9.538 2.727 3.23 3.333 6.308 2.576 9.692Zm13.03-4.307c-3.03-5.693-1.97-10.462.606-15.077 1.818 4.923 2.727 9.692-.606 15.077Z" fill="#5B1A0D"/></svg>