<svg width="18" height="10" fill="none" xmlns="http://www.w3.org/2000/svg"><path d="M14.225 5.735c-.278-.352-.198-.506 0-.817.003-.003 2.29-3.164 2.528-4.235.117-.392 0-.676-.566-.676h-1.875c-.479 0-.696.247-.813.522 0 0-.955 2.283-2.304 3.763-.435.428-.636.566-.874.566-.117 0-.298-.138-.298-.53V.677C10.023.208 9.89 0 9.494 0H6.548C6.25 0 6.07.218 6.07.422c0 .445.676.546.746 1.798v2.71c0 .593-.107.703-.348.703-.636 0-2.183-2.293-3.1-4.918C3.18.208 3 0 2.518 0H.643C.107 0 0 .248 0 .522c0 .486.636 2.91 2.963 6.11C4.513 8.815 6.696 10 8.68 10c1.192 0 1.34-.264 1.34-.716 0-2.086-.108-2.284.488-2.284.278 0 .753.138 1.868 1.192C13.649 9.441 13.86 10 14.573 10h1.875c.536 0 .803-.264.65-.78-.359-1.091-2.766-3.338-2.873-3.485Z" fill="#fff"/></svg>